<?xml version="1.0" encoding="utf-8" standalone="no"?>
<!DOCTYPE svg PUBLIC "-//W3C//DTD SVG 1.1//EN"
  "http://www.w3.org/Graphics/SVG/1.1/DTD/svg11.dtd">
<!-- Created with matplotlib (https://matplotlib.org/) -->
<svg height="335.17pt" version="1.1" viewBox="0 0 410.845 335.17" width="410.845pt" xmlns="http://www.w3.org/2000/svg" xmlns:xlink="http://www.w3.org/1999/xlink">
 <defs>
  <style type="text/css">
*{stroke-linecap:butt;stroke-linejoin:round;}
  </style>
 </defs>
 <g id="figure_1">
  <g id="patch_1">
   <path d="M -0 335.17 
L 410.845 335.17 
L 410.845 0 
L -0 0 
z
" style="fill:#ffffff;"/>
  </g>
  <g id="axes_1">
   <g id="patch_2">
    <path d="M 68.845 279 
L 403.645 279 
L 403.645 7.2 
L 68.845 7.2 
z
" style="fill:#ffffff;"/>
   </g>
   <g id="PolyCollection_1">
    <defs>
     <path d="M 84.063182 -68.524545 
L 84.063182 -74.816742 
L 122.108636 -163.183785 
L 160.154091 -165.118027 
L 198.199545 -182.667256 
L 236.245 -165.240354 
L 274.290455 -172.824064 
L 312.335909 -177.079274 
L 350.381364 -189.999653 
L 388.426818 -232.952091 
L 388.426818 -225.755439 
L 388.426818 -225.755439 
L 350.381364 -173.8752 
L 312.335909 -167.984336 
L 274.290455 -170.156379 
L 236.245 -154.922141 
L 198.199545 -175.317852 
L 160.154091 -158.99513 
L 122.108636 -150.526578 
L 84.063182 -68.524545 
z
" id="mfbea495b56" style="stroke:#000000;stroke-opacity:0.2;"/>
    </defs>
    <g clip-path="url(#p513361d187)">
     <use style="fill-opacity:0.2;stroke:#000000;stroke-opacity:0.2;" x="0" xlink:href="#mfbea495b56" y="335.17"/>
    </g>
   </g>
   <g id="PolyCollection_2">
    <defs>
     <path d="M 84.063182 -98.164164 
L 84.063182 -121.190105 
L 122.108636 -124.861933 
L 160.154091 -137.378613 
L 198.199545 -152.530583 
L 236.245 -160.486598 
L 274.290455 -171.287155 
L 312.335909 -212.633166 
L 350.381364 -281.101412 
L 388.426818 -315.615455 
L 388.426818 -313.929154 
L 388.426818 -313.929154 
L 350.381364 -272.736214 
L 312.335909 -190.081087 
L 274.290455 -167.862325 
L 236.245 -149.04842 
L 198.199545 -133.546262 
L 160.154091 -111.830219 
L 122.108636 -115.081314 
L 84.063182 -98.164164 
z
" id="mec6e3cbe59" style="stroke:#9c0534;stroke-opacity:0.2;"/>
    </defs>
    <g clip-path="url(#p513361d187)">
     <use style="fill:#9c0534;fill-opacity:0.2;stroke:#9c0534;stroke-opacity:0.2;" x="0" xlink:href="#mec6e3cbe59" y="335.17"/>
    </g>
   </g>
   <g id="PolyCollection_3">
    <defs>
     <path d="M 84.063182 -91.561528 
L 84.063182 -114.848373 
L 122.108636 -124.841665 
L 160.154091 -132.780976 
L 198.199545 -130.804677 
L 236.245 -149.392346 
L 274.290455 -154.653044 
L 312.335909 -171.052533 
L 350.381364 -232.410643 
L 388.426818 -284.752529 
L 388.426818 -275.693887 
L 388.426818 -275.693887 
L 350.381364 -217.826113 
L 312.335909 -161.116796 
L 274.290455 -150.363447 
L 236.245 -136.733541 
L 198.199545 -120.862124 
L 160.154091 -92.600359 
L 122.108636 -104.254654 
L 84.063182 -91.561528 
z
" id="m31a0cc8622" style="stroke:#45b6fe;stroke-opacity:0.2;"/>
    </defs>
    <g clip-path="url(#p513361d187)">
     <use style="fill:#45b6fe;fill-opacity:0.2;stroke:#45b6fe;stroke-opacity:0.2;" x="0" xlink:href="#m31a0cc8622" y="335.17"/>
    </g>
   </g>
   <g id="PolyCollection_4">
    <defs>
     <path d="M 84.063182 -77.212049 
L 84.063182 -110.29575 
L 122.108636 -108.922246 
L 160.154091 -106.345257 
L 198.199545 -120.836948 
L 236.245 -127.336778 
L 274.290455 -136.529379 
L 312.335909 -147.884245 
L 350.381364 -153.89273 
L 388.426818 -233.008605 
L 388.426818 -215.000645 
L 388.426818 -215.000645 
L 350.381364 -149.276514 
L 312.335909 -129.040572 
L 274.290455 -117.194748 
L 236.245 -109.992756 
L 198.199545 -113.509033 
L 160.154091 -98.173299 
L 122.108636 -85.978756 
L 84.063182 -77.212049 
z
" id="ma006863821" style="stroke:#ffab40;stroke-opacity:0.2;"/>
    </defs>
    <g clip-path="url(#p513361d187)">
     <use style="fill:#ffab40;fill-opacity:0.2;stroke:#ffab40;stroke-opacity:0.2;" x="0" xlink:href="#ma006863821" y="335.17"/>
    </g>
   </g>
   <g id="matplotlib.axis_1">
    <g id="xtick_1">
     <g id="line2d_1"/>
     <g id="text_1">
      <!-- $\mathdefault{10^{0}}$ -->
      <defs>
       <path d="M 12.40625 8.296875 
L 28.515625 8.296875 
L 28.515625 63.921875 
L 10.984375 60.40625 
L 10.984375 69.390625 
L 28.421875 72.90625 
L 38.28125 72.90625 
L 38.28125 8.296875 
L 54.390625 8.296875 
L 54.390625 0 
L 12.40625 0 
z
" id="DejaVuSans-49"/>
       <path d="M 31.78125 66.40625 
Q 24.171875 66.40625 20.328125 58.90625 
Q 16.5 51.421875 16.5 36.375 
Q 16.5 21.390625 20.328125 13.890625 
Q 24.171875 6.390625 31.78125 6.390625 
Q 39.453125 6.390625 43.28125 13.890625 
Q 47.125 21.390625 47.125 36.375 
Q 47.125 51.421875 43.28125 58.90625 
Q 39.453125 66.40625 31.78125 66.40625 
z
M 31.78125 74.21875 
Q 44.046875 74.21875 50.515625 64.515625 
Q 56.984375 54.828125 56.984375 36.375 
Q 56.984375 17.96875 50.515625 8.265625 
Q 44.046875 -1.421875 31.78125 -1.421875 
Q 19.53125 -1.421875 13.0625 8.265625 
Q 6.59375 17.96875 6.59375 36.375 
Q 6.59375 54.828125 13.0625 64.515625 
Q 19.53125 74.21875 31.78125 74.21875 
z
" id="DejaVuSans-48"/>
      </defs>
      <g transform="translate(69.983182 301.1575)scale(0.16 -0.16)">
       <use transform="translate(0 0.765625)" xlink:href="#DejaVuSans-49"/>
       <use transform="translate(63.623047 0.765625)" xlink:href="#DejaVuSans-48"/>
       <use transform="translate(128.203125 39.046875)scale(0.7)" xlink:href="#DejaVuSans-48"/>
      </g>
     </g>
    </g>
    <g id="xtick_2">
     <g id="line2d_2"/>
     <g id="text_2">
      <!-- $\mathdefault{10^{1}}$ -->
      <g transform="translate(196.367446 301.1575)scale(0.16 -0.16)">
       <use transform="translate(0 0.684375)" xlink:href="#DejaVuSans-49"/>
       <use transform="translate(63.623047 0.684375)" xlink:href="#DejaVuSans-48"/>
       <use transform="translate(128.203125 38.965625)scale(0.7)" xlink:href="#DejaVuSans-49"/>
      </g>
     </g>
    </g>
    <g id="xtick_3">
     <g id="line2d_3"/>
     <g id="text_3">
      <!-- $\mathdefault{10^{2}}$ -->
      <defs>
       <path d="M 19.1875 8.296875 
L 53.609375 8.296875 
L 53.609375 0 
L 7.328125 0 
L 7.328125 8.296875 
Q 12.9375 14.109375 22.625 23.890625 
Q 32.328125 33.6875 34.8125 36.53125 
Q 39.546875 41.84375 41.421875 45.53125 
Q 43.3125 49.21875 43.3125 52.78125 
Q 43.3125 58.59375 39.234375 62.25 
Q 35.15625 65.921875 28.609375 65.921875 
Q 23.96875 65.921875 18.8125 64.3125 
Q 13.671875 62.703125 7.8125 59.421875 
L 7.8125 69.390625 
Q 13.765625 71.78125 18.9375 73 
Q 24.125 74.21875 28.421875 74.21875 
Q 39.75 74.21875 46.484375 68.546875 
Q 53.21875 62.890625 53.21875 53.421875 
Q 53.21875 48.921875 51.53125 44.890625 
Q 49.859375 40.875 45.40625 35.40625 
Q 44.1875 33.984375 37.640625 27.21875 
Q 31.109375 20.453125 19.1875 8.296875 
z
" id="DejaVuSans-50"/>
      </defs>
      <g transform="translate(322.75171 301.1575)scale(0.16 -0.16)">
       <use transform="translate(0 0.765625)" xlink:href="#DejaVuSans-49"/>
       <use transform="translate(63.623047 0.765625)" xlink:href="#DejaVuSans-48"/>
       <use transform="translate(128.203125 39.046875)scale(0.7)" xlink:href="#DejaVuSans-50"/>
      </g>
     </g>
    </g>
    <g id="xtick_4">
     <g id="line2d_4"/>
    </g>
    <g id="xtick_5">
     <g id="line2d_5"/>
    </g>
    <g id="xtick_6">
     <g id="line2d_6"/>
    </g>
    <g id="xtick_7">
     <g id="line2d_7"/>
    </g>
    <g id="xtick_8">
     <g id="line2d_8"/>
    </g>
    <g id="xtick_9">
     <g id="line2d_9"/>
    </g>
    <g id="xtick_10">
     <g id="line2d_10"/>
    </g>
    <g id="xtick_11">
     <g id="line2d_11"/>
    </g>
    <g id="xtick_12">
     <g id="line2d_12"/>
    </g>
    <g id="xtick_13">
     <g id="line2d_13"/>
    </g>
    <g id="xtick_14">
     <g id="line2d_14"/>
    </g>
    <g id="xtick_15">
     <g id="line2d_15"/>
    </g>
    <g id="xtick_16">
     <g id="line2d_16"/>
    </g>
    <g id="xtick_17">
     <g id="line2d_17"/>
    </g>
    <g id="xtick_18">
     <g id="line2d_18"/>
    </g>
    <g id="xtick_19">
     <g id="line2d_19"/>
    </g>
    <g id="xtick_20">
     <g id="line2d_20"/>
    </g>
    <g id="xtick_21">
     <g id="line2d_21"/>
    </g>
    <g id="xtick_22">
     <g id="line2d_22"/>
    </g>
    <g id="xtick_23">
     <g id="line2d_23"/>
    </g>
    <g id="text_4">
     <!-- Batch Size -->
     <defs>
      <path d="M 19.671875 34.8125 
L 19.671875 8.109375 
L 35.5 8.109375 
Q 43.453125 8.109375 47.28125 11.40625 
Q 51.125 14.703125 51.125 21.484375 
Q 51.125 28.328125 47.28125 31.5625 
Q 43.453125 34.8125 35.5 34.8125 
z
M 19.671875 64.796875 
L 19.671875 42.828125 
L 34.28125 42.828125 
Q 41.5 42.828125 45.03125 45.53125 
Q 48.578125 48.25 48.578125 53.8125 
Q 48.578125 59.328125 45.03125 62.0625 
Q 41.5 64.796875 34.28125 64.796875 
z
M 9.8125 72.90625 
L 35.015625 72.90625 
Q 46.296875 72.90625 52.390625 68.21875 
Q 58.5 63.53125 58.5 54.890625 
Q 58.5 48.1875 55.375 44.234375 
Q 52.25 40.28125 46.1875 39.3125 
Q 53.46875 37.75 57.5 32.78125 
Q 61.53125 27.828125 61.53125 20.40625 
Q 61.53125 10.640625 54.890625 5.3125 
Q 48.25 0 35.984375 0 
L 9.8125 0 
z
" id="DejaVuSans-66"/>
      <path d="M 34.28125 27.484375 
Q 23.390625 27.484375 19.1875 25 
Q 14.984375 22.515625 14.984375 16.5 
Q 14.984375 11.71875 18.140625 8.90625 
Q 21.296875 6.109375 26.703125 6.109375 
Q 34.1875 6.109375 38.703125 11.40625 
Q 43.21875 16.703125 43.21875 25.484375 
L 43.21875 27.484375 
z
M 52.203125 31.203125 
L 52.203125 0 
L 43.21875 0 
L 43.21875 8.296875 
Q 40.140625 3.328125 35.546875 0.953125 
Q 30.953125 -1.421875 24.3125 -1.421875 
Q 15.921875 -1.421875 10.953125 3.296875 
Q 6 8.015625 6 15.921875 
Q 6 25.140625 12.171875 29.828125 
Q 18.359375 34.515625 30.609375 34.515625 
L 43.21875 34.515625 
L 43.21875 35.40625 
Q 43.21875 41.609375 39.140625 45 
Q 35.0625 48.390625 27.6875 48.390625 
Q 23 48.390625 18.546875 47.265625 
Q 14.109375 46.140625 10.015625 43.890625 
L 10.015625 52.203125 
Q 14.9375 54.109375 19.578125 55.046875 
Q 24.21875 56 28.609375 56 
Q 40.484375 56 46.34375 49.84375 
Q 52.203125 43.703125 52.203125 31.203125 
z
" id="DejaVuSans-97"/>
      <path d="M 18.3125 70.21875 
L 18.3125 54.6875 
L 36.8125 54.6875 
L 36.8125 47.703125 
L 18.3125 47.703125 
L 18.3125 18.015625 
Q 18.3125 11.328125 20.140625 9.421875 
Q 21.96875 7.515625 27.59375 7.515625 
L 36.8125 7.515625 
L 36.8125 0 
L 27.59375 0 
Q 17.1875 0 13.234375 3.875 
Q 9.28125 7.765625 9.28125 18.015625 
L 9.28125 47.703125 
L 2.6875 47.703125 
L 2.6875 54.6875 
L 9.28125 54.6875 
L 9.28125 70.21875 
z
" id="DejaVuSans-116"/>
      <path d="M 48.78125 52.59375 
L 48.78125 44.1875 
Q 44.96875 46.296875 41.140625 47.34375 
Q 37.3125 48.390625 33.40625 48.390625 
Q 24.65625 48.390625 19.8125 42.84375 
Q 14.984375 37.3125 14.984375 27.296875 
Q 14.984375 17.28125 19.8125 11.734375 
Q 24.65625 6.203125 33.40625 6.203125 
Q 37.3125 6.203125 41.140625 7.25 
Q 44.96875 8.296875 48.78125 10.40625 
L 48.78125 2.09375 
Q 45.015625 0.34375 40.984375 -0.53125 
Q 36.96875 -1.421875 32.421875 -1.421875 
Q 20.0625 -1.421875 12.78125 6.34375 
Q 5.515625 14.109375 5.515625 27.296875 
Q 5.515625 40.671875 12.859375 48.328125 
Q 20.21875 56 33.015625 56 
Q 37.15625 56 41.109375 55.140625 
Q 45.0625 54.296875 48.78125 52.59375 
z
" id="DejaVuSans-99"/>
      <path d="M 54.890625 33.015625 
L 54.890625 0 
L 45.90625 0 
L 45.90625 32.71875 
Q 45.90625 40.484375 42.875 44.328125 
Q 39.84375 48.1875 33.796875 48.1875 
Q 26.515625 48.1875 22.3125 43.546875 
Q 18.109375 38.921875 18.109375 30.90625 
L 18.109375 0 
L 9.078125 0 
L 9.078125 75.984375 
L 18.109375 75.984375 
L 18.109375 46.1875 
Q 21.34375 51.125 25.703125 53.5625 
Q 30.078125 56 35.796875 56 
Q 45.21875 56 50.046875 50.171875 
Q 54.890625 44.34375 54.890625 33.015625 
z
" id="DejaVuSans-104"/>
      <path id="DejaVuSans-32"/>
      <path d="M 53.515625 70.515625 
L 53.515625 60.890625 
Q 47.90625 63.578125 42.921875 64.890625 
Q 37.9375 66.21875 33.296875 66.21875 
Q 25.25 66.21875 20.875 63.09375 
Q 16.5 59.96875 16.5 54.203125 
Q 16.5 49.359375 19.40625 46.890625 
Q 22.3125 44.4375 30.421875 42.921875 
L 36.375 41.703125 
Q 47.40625 39.59375 52.65625 34.296875 
Q 57.90625 29 57.90625 20.125 
Q 57.90625 9.515625 50.796875 4.046875 
Q 43.703125 -1.421875 29.984375 -1.421875 
Q 24.8125 -1.421875 18.96875 -0.25 
Q 13.140625 0.921875 6.890625 3.21875 
L 6.890625 13.375 
Q 12.890625 10.015625 18.65625 8.296875 
Q 24.421875 6.59375 29.984375 6.59375 
Q 38.421875 6.59375 43.015625 9.90625 
Q 47.609375 13.234375 47.609375 19.390625 
Q 47.609375 24.75 44.3125 27.78125 
Q 41.015625 30.8125 33.5 32.328125 
L 27.484375 33.5 
Q 16.453125 35.6875 11.515625 40.375 
Q 6.59375 45.0625 6.59375 53.421875 
Q 6.59375 63.09375 13.40625 68.65625 
Q 20.21875 74.21875 32.171875 74.21875 
Q 37.3125 74.21875 42.625 73.28125 
Q 47.953125 72.359375 53.515625 70.515625 
z
" id="DejaVuSans-83"/>
      <path d="M 9.421875 54.6875 
L 18.40625 54.6875 
L 18.40625 0 
L 9.421875 0 
z
M 9.421875 75.984375 
L 18.40625 75.984375 
L 18.40625 64.59375 
L 9.421875 64.59375 
z
" id="DejaVuSans-105"/>
      <path d="M 5.515625 54.6875 
L 48.1875 54.6875 
L 48.1875 46.484375 
L 14.40625 7.171875 
L 48.1875 7.171875 
L 48.1875 0 
L 4.296875 0 
L 4.296875 8.203125 
L 38.09375 47.515625 
L 5.515625 47.515625 
z
" id="DejaVuSans-122"/>
      <path d="M 56.203125 29.59375 
L 56.203125 25.203125 
L 14.890625 25.203125 
Q 15.484375 15.921875 20.484375 11.0625 
Q 25.484375 6.203125 34.421875 6.203125 
Q 39.59375 6.203125 44.453125 7.46875 
Q 49.3125 8.734375 54.109375 11.28125 
L 54.109375 2.78125 
Q 49.265625 0.734375 44.1875 -0.34375 
Q 39.109375 -1.421875 33.890625 -1.421875 
Q 20.796875 -1.421875 13.15625 6.1875 
Q 5.515625 13.8125 5.515625 26.8125 
Q 5.515625 40.234375 12.765625 48.109375 
Q 20.015625 56 32.328125 56 
Q 43.359375 56 49.78125 48.890625 
Q 56.203125 41.796875 56.203125 29.59375 
z
M 47.21875 32.234375 
Q 47.125 39.59375 43.09375 43.984375 
Q 39.0625 48.390625 32.421875 48.390625 
Q 24.90625 48.390625 20.390625 44.140625 
Q 15.875 39.890625 15.1875 32.171875 
z
" id="DejaVuSans-101"/>
     </defs>
     <g style="fill:#262626;" transform="translate(194.28375 324.6425)scale(0.16 -0.16)">
      <use xlink:href="#DejaVuSans-66"/>
      <use x="68.603516" xlink:href="#DejaVuSans-97"/>
      <use x="129.882812" xlink:href="#DejaVuSans-116"/>
      <use x="169.091797" xlink:href="#DejaVuSans-99"/>
      <use x="224.072266" xlink:href="#DejaVuSans-104"/>
      <use x="287.451172" xlink:href="#DejaVuSans-32"/>
      <use x="319.238281" xlink:href="#DejaVuSans-83"/>
      <use x="382.714844" xlink:href="#DejaVuSans-105"/>
      <use x="410.498047" xlink:href="#DejaVuSans-122"/>
      <use x="462.988281" xlink:href="#DejaVuSans-101"/>
     </g>
    </g>
   </g>
   <g id="matplotlib.axis_2">
    <g id="ytick_1">
     <g id="line2d_24"/>
     <g id="text_5">
      <!-- $\mathdefault{10^{2}}$ -->
      <g transform="translate(30.685 251.877243)scale(0.16 -0.16)">
       <use transform="translate(0 0.765625)" xlink:href="#DejaVuSans-49"/>
       <use transform="translate(63.623047 0.765625)" xlink:href="#DejaVuSans-48"/>
       <use transform="translate(128.203125 39.046875)scale(0.7)" xlink:href="#DejaVuSans-50"/>
      </g>
     </g>
    </g>
    <g id="ytick_2">
     <g id="line2d_25"/>
     <g id="text_6">
      <!-- $\mathdefault{10^{3}}$ -->
      <defs>
       <path d="M 40.578125 39.3125 
Q 47.65625 37.796875 51.625 33 
Q 55.609375 28.21875 55.609375 21.1875 
Q 55.609375 10.40625 48.1875 4.484375 
Q 40.765625 -1.421875 27.09375 -1.421875 
Q 22.515625 -1.421875 17.65625 -0.515625 
Q 12.796875 0.390625 7.625 2.203125 
L 7.625 11.71875 
Q 11.71875 9.328125 16.59375 8.109375 
Q 21.484375 6.890625 26.8125 6.890625 
Q 36.078125 6.890625 40.9375 10.546875 
Q 45.796875 14.203125 45.796875 21.1875 
Q 45.796875 27.640625 41.28125 31.265625 
Q 36.765625 34.90625 28.71875 34.90625 
L 20.21875 34.90625 
L 20.21875 43.015625 
L 29.109375 43.015625 
Q 36.375 43.015625 40.234375 45.921875 
Q 44.09375 48.828125 44.09375 54.296875 
Q 44.09375 59.90625 40.109375 62.90625 
Q 36.140625 65.921875 28.71875 65.921875 
Q 24.65625 65.921875 20.015625 65.03125 
Q 15.375 64.15625 9.8125 62.3125 
L 9.8125 71.09375 
Q 15.4375 72.65625 20.34375 73.4375 
Q 25.25 74.21875 29.59375 74.21875 
Q 40.828125 74.21875 47.359375 69.109375 
Q 53.90625 64.015625 53.90625 55.328125 
Q 53.90625 49.265625 50.4375 45.09375 
Q 46.96875 40.921875 40.578125 39.3125 
z
" id="DejaVuSans-51"/>
      </defs>
      <g transform="translate(30.685 160.410987)scale(0.16 -0.16)">
       <use transform="translate(0 0.765625)" xlink:href="#DejaVuSans-49"/>
       <use transform="translate(63.623047 0.765625)" xlink:href="#DejaVuSans-48"/>
       <use transform="translate(128.203125 39.046875)scale(0.7)" xlink:href="#DejaVuSans-51"/>
      </g>
     </g>
    </g>
    <g id="ytick_3">
     <g id="line2d_26"/>
     <g id="text_7">
      <!-- $\mathdefault{10^{4}}$ -->
      <defs>
       <path d="M 37.796875 64.3125 
L 12.890625 25.390625 
L 37.796875 25.390625 
z
M 35.203125 72.90625 
L 47.609375 72.90625 
L 47.609375 25.390625 
L 58.015625 25.390625 
L 58.015625 17.1875 
L 47.609375 17.1875 
L 47.609375 0 
L 37.796875 0 
L 37.796875 17.1875 
L 4.890625 17.1875 
L 4.890625 26.703125 
z
" id="DejaVuSans-52"/>
      </defs>
      <g transform="translate(30.685 68.944731)scale(0.16 -0.16)">
       <use transform="translate(0 0.684375)" xlink:href="#DejaVuSans-49"/>
       <use transform="translate(63.623047 0.684375)" xlink:href="#DejaVuSans-48"/>
       <use transform="translate(128.203125 38.965625)scale(0.7)" xlink:href="#DejaVuSans-52"/>
      </g>
     </g>
    </g>
    <g id="ytick_4">
     <g id="line2d_27"/>
    </g>
    <g id="ytick_5">
     <g id="line2d_28"/>
    </g>
    <g id="ytick_6">
     <g id="line2d_29"/>
    </g>
    <g id="ytick_7">
     <g id="line2d_30"/>
    </g>
    <g id="ytick_8">
     <g id="line2d_31"/>
    </g>
    <g id="ytick_9">
     <g id="line2d_32"/>
    </g>
    <g id="ytick_10">
     <g id="line2d_33"/>
    </g>
    <g id="ytick_11">
     <g id="line2d_34"/>
    </g>
    <g id="ytick_12">
     <g id="line2d_35"/>
    </g>
    <g id="ytick_13">
     <g id="line2d_36"/>
    </g>
    <g id="ytick_14">
     <g id="line2d_37"/>
    </g>
    <g id="ytick_15">
     <g id="line2d_38"/>
    </g>
    <g id="ytick_16">
     <g id="line2d_39"/>
    </g>
    <g id="ytick_17">
     <g id="line2d_40"/>
    </g>
    <g id="ytick_18">
     <g id="line2d_41"/>
    </g>
    <g id="ytick_19">
     <g id="line2d_42"/>
    </g>
    <g id="ytick_20">
     <g id="line2d_43"/>
    </g>
    <g id="ytick_21">
     <g id="line2d_44"/>
    </g>
    <g id="ytick_22">
     <g id="line2d_45"/>
    </g>
    <g id="ytick_23">
     <g id="line2d_46"/>
    </g>
    <g id="ytick_24">
     <g id="line2d_47"/>
    </g>
    <g id="ytick_25">
     <g id="line2d_48"/>
    </g>
    <g id="ytick_26">
     <g id="line2d_49"/>
    </g>
    <g id="ytick_27">
     <g id="line2d_50"/>
    </g>
    <g id="text_8">
     <!-- Time (micro seconds) -->
     <defs>
      <path d="M -0.296875 72.90625 
L 61.375 72.90625 
L 61.375 64.59375 
L 35.5 64.59375 
L 35.5 0 
L 25.59375 0 
L 25.59375 64.59375 
L -0.296875 64.59375 
z
" id="DejaVuSans-84"/>
      <path d="M 52 44.1875 
Q 55.375 50.25 60.0625 53.125 
Q 64.75 56 71.09375 56 
Q 79.640625 56 84.28125 50.015625 
Q 88.921875 44.046875 88.921875 33.015625 
L 88.921875 0 
L 79.890625 0 
L 79.890625 32.71875 
Q 79.890625 40.578125 77.09375 44.375 
Q 74.3125 48.1875 68.609375 48.1875 
Q 61.625 48.1875 57.5625 43.546875 
Q 53.515625 38.921875 53.515625 30.90625 
L 53.515625 0 
L 44.484375 0 
L 44.484375 32.71875 
Q 44.484375 40.625 41.703125 44.40625 
Q 38.921875 48.1875 33.109375 48.1875 
Q 26.21875 48.1875 22.15625 43.53125 
Q 18.109375 38.875 18.109375 30.90625 
L 18.109375 0 
L 9.078125 0 
L 9.078125 54.6875 
L 18.109375 54.6875 
L 18.109375 46.1875 
Q 21.1875 51.21875 25.484375 53.609375 
Q 29.78125 56 35.6875 56 
Q 41.65625 56 45.828125 52.96875 
Q 50 49.953125 52 44.1875 
z
" id="DejaVuSans-109"/>
      <path d="M 31 75.875 
Q 24.46875 64.65625 21.28125 53.65625 
Q 18.109375 42.671875 18.109375 31.390625 
Q 18.109375 20.125 21.3125 9.0625 
Q 24.515625 -2 31 -13.1875 
L 23.1875 -13.1875 
Q 15.875 -1.703125 12.234375 9.375 
Q 8.59375 20.453125 8.59375 31.390625 
Q 8.59375 42.28125 12.203125 53.3125 
Q 15.828125 64.359375 23.1875 75.875 
z
" id="DejaVuSans-40"/>
      <path d="M 41.109375 46.296875 
Q 39.59375 47.171875 37.8125 47.578125 
Q 36.03125 48 33.890625 48 
Q 26.265625 48 22.1875 43.046875 
Q 18.109375 38.09375 18.109375 28.8125 
L 18.109375 0 
L 9.078125 0 
L 9.078125 54.6875 
L 18.109375 54.6875 
L 18.109375 46.1875 
Q 20.953125 51.171875 25.484375 53.578125 
Q 30.03125 56 36.53125 56 
Q 37.453125 56 38.578125 55.875 
Q 39.703125 55.765625 41.0625 55.515625 
z
" id="DejaVuSans-114"/>
      <path d="M 30.609375 48.390625 
Q 23.390625 48.390625 19.1875 42.75 
Q 14.984375 37.109375 14.984375 27.296875 
Q 14.984375 17.484375 19.15625 11.84375 
Q 23.34375 6.203125 30.609375 6.203125 
Q 37.796875 6.203125 41.984375 11.859375 
Q 46.1875 17.53125 46.1875 27.296875 
Q 46.1875 37.015625 41.984375 42.703125 
Q 37.796875 48.390625 30.609375 48.390625 
z
M 30.609375 56 
Q 42.328125 56 49.015625 48.375 
Q 55.71875 40.765625 55.71875 27.296875 
Q 55.71875 13.875 49.015625 6.21875 
Q 42.328125 -1.421875 30.609375 -1.421875 
Q 18.84375 -1.421875 12.171875 6.21875 
Q 5.515625 13.875 5.515625 27.296875 
Q 5.515625 40.765625 12.171875 48.375 
Q 18.84375 56 30.609375 56 
z
" id="DejaVuSans-111"/>
      <path d="M 44.28125 53.078125 
L 44.28125 44.578125 
Q 40.484375 46.53125 36.375 47.5 
Q 32.28125 48.484375 27.875 48.484375 
Q 21.1875 48.484375 17.84375 46.4375 
Q 14.5 44.390625 14.5 40.28125 
Q 14.5 37.15625 16.890625 35.375 
Q 19.28125 33.59375 26.515625 31.984375 
L 29.59375 31.296875 
Q 39.15625 29.25 43.1875 25.515625 
Q 47.21875 21.78125 47.21875 15.09375 
Q 47.21875 7.46875 41.1875 3.015625 
Q 35.15625 -1.421875 24.609375 -1.421875 
Q 20.21875 -1.421875 15.453125 -0.5625 
Q 10.6875 0.296875 5.421875 2 
L 5.421875 11.28125 
Q 10.40625 8.6875 15.234375 7.390625 
Q 20.0625 6.109375 24.8125 6.109375 
Q 31.15625 6.109375 34.5625 8.28125 
Q 37.984375 10.453125 37.984375 14.40625 
Q 37.984375 18.0625 35.515625 20.015625 
Q 33.0625 21.96875 24.703125 23.78125 
L 21.578125 24.515625 
Q 13.234375 26.265625 9.515625 29.90625 
Q 5.8125 33.546875 5.8125 39.890625 
Q 5.8125 47.609375 11.28125 51.796875 
Q 16.75 56 26.8125 56 
Q 31.78125 56 36.171875 55.265625 
Q 40.578125 54.546875 44.28125 53.078125 
z
" id="DejaVuSans-115"/>
      <path d="M 54.890625 33.015625 
L 54.890625 0 
L 45.90625 0 
L 45.90625 32.71875 
Q 45.90625 40.484375 42.875 44.328125 
Q 39.84375 48.1875 33.796875 48.1875 
Q 26.515625 48.1875 22.3125 43.546875 
Q 18.109375 38.921875 18.109375 30.90625 
L 18.109375 0 
L 9.078125 0 
L 9.078125 54.6875 
L 18.109375 54.6875 
L 18.109375 46.1875 
Q 21.34375 51.125 25.703125 53.5625 
Q 30.078125 56 35.796875 56 
Q 45.21875 56 50.046875 50.171875 
Q 54.890625 44.34375 54.890625 33.015625 
z
" id="DejaVuSans-110"/>
      <path d="M 45.40625 46.390625 
L 45.40625 75.984375 
L 54.390625 75.984375 
L 54.390625 0 
L 45.40625 0 
L 45.40625 8.203125 
Q 42.578125 3.328125 38.25 0.953125 
Q 33.9375 -1.421875 27.875 -1.421875 
Q 17.96875 -1.421875 11.734375 6.484375 
Q 5.515625 14.40625 5.515625 27.296875 
Q 5.515625 40.1875 11.734375 48.09375 
Q 17.96875 56 27.875 56 
Q 33.9375 56 38.25 53.625 
Q 42.578125 51.265625 45.40625 46.390625 
z
M 14.796875 27.296875 
Q 14.796875 17.390625 18.875 11.75 
Q 22.953125 6.109375 30.078125 6.109375 
Q 37.203125 6.109375 41.296875 11.75 
Q 45.40625 17.390625 45.40625 27.296875 
Q 45.40625 37.203125 41.296875 42.84375 
Q 37.203125 48.484375 30.078125 48.484375 
Q 22.953125 48.484375 18.875 42.84375 
Q 14.796875 37.203125 14.796875 27.296875 
z
" id="DejaVuSans-100"/>
      <path d="M 8.015625 75.875 
L 15.828125 75.875 
Q 23.140625 64.359375 26.78125 53.3125 
Q 30.421875 42.28125 30.421875 31.390625 
Q 30.421875 20.453125 26.78125 9.375 
Q 23.140625 -1.703125 15.828125 -13.1875 
L 8.015625 -13.1875 
Q 14.5 -2 17.703125 9.0625 
Q 20.90625 20.125 20.90625 31.390625 
Q 20.90625 42.671875 17.703125 53.65625 
Q 14.5 64.65625 8.015625 75.875 
z
" id="DejaVuSans-41"/>
     </defs>
     <g style="fill:#262626;" transform="translate(19.3575 229.11875)rotate(-90)scale(0.16 -0.16)">
      <use xlink:href="#DejaVuSans-84"/>
      <use x="57.958984" xlink:href="#DejaVuSans-105"/>
      <use x="85.742188" xlink:href="#DejaVuSans-109"/>
      <use x="183.154297" xlink:href="#DejaVuSans-101"/>
      <use x="244.677734" xlink:href="#DejaVuSans-32"/>
      <use x="276.464844" xlink:href="#DejaVuSans-40"/>
      <use x="315.478516" xlink:href="#DejaVuSans-109"/>
      <use x="412.890625" xlink:href="#DejaVuSans-105"/>
      <use x="440.673828" xlink:href="#DejaVuSans-99"/>
      <use x="495.654297" xlink:href="#DejaVuSans-114"/>
      <use x="534.517578" xlink:href="#DejaVuSans-111"/>
      <use x="595.699219" xlink:href="#DejaVuSans-32"/>
      <use x="627.486328" xlink:href="#DejaVuSans-115"/>
      <use x="679.585938" xlink:href="#DejaVuSans-101"/>
      <use x="741.109375" xlink:href="#DejaVuSans-99"/>
      <use x="796.089844" xlink:href="#DejaVuSans-111"/>
      <use x="857.271484" xlink:href="#DejaVuSans-110"/>
      <use x="920.650391" xlink:href="#DejaVuSans-100"/>
      <use x="984.126953" xlink:href="#DejaVuSans-115"/>
      <use x="1036.226562" xlink:href="#DejaVuSans-41"/>
     </g>
    </g>
   </g>
   <g id="line2d_51">
    <path clip-path="url(#p513361d187)" d="M 84.063182 263.3749 
L 122.108636 177.812809 
L 160.154091 172.995566 
L 198.199545 156.007719 
L 236.245 174.754667 
L 274.290455 163.657389 
L 312.335909 162.378468 
L 350.381364 152.419976 
L 388.426818 105.653481 
" style="fill:none;stroke:#000000;stroke-linecap:square;stroke-width:3.5;"/>
    <defs>
     <path d="M 0 3 
C 0.795609 3 1.55874 2.683901 2.12132 2.12132 
C 2.683901 1.55874 3 0.795609 3 0 
C 3 -0.795609 2.683901 -1.55874 2.12132 -2.12132 
C 1.55874 -2.683901 0.795609 -3 0 -3 
C -0.795609 -3 -1.55874 -2.683901 -2.12132 -2.12132 
C -2.683901 -1.55874 -3 -0.795609 -3 0 
C -3 0.795609 -2.683901 1.55874 -2.12132 2.12132 
C -1.55874 2.683901 -0.795609 3 0 3 
z
" id="m786b1a2444" style="stroke:#000000;"/>
    </defs>
    <g clip-path="url(#p513361d187)">
     <use style="stroke:#000000;" x="84.063182" xlink:href="#m786b1a2444" y="263.3749"/>
     <use style="stroke:#000000;" x="122.108636" xlink:href="#m786b1a2444" y="177.812809"/>
     <use style="stroke:#000000;" x="160.154091" xlink:href="#m786b1a2444" y="172.995566"/>
     <use style="stroke:#000000;" x="198.199545" xlink:href="#m786b1a2444" y="156.007719"/>
     <use style="stroke:#000000;" x="236.245" xlink:href="#m786b1a2444" y="174.754667"/>
     <use style="stroke:#000000;" x="274.290455" xlink:href="#m786b1a2444" y="163.657389"/>
     <use style="stroke:#000000;" x="312.335909" xlink:href="#m786b1a2444" y="162.378468"/>
     <use style="stroke:#000000;" x="350.381364" xlink:href="#m786b1a2444" y="152.419976"/>
     <use style="stroke:#000000;" x="388.426818" xlink:href="#m786b1a2444" y="105.653481"/>
    </g>
   </g>
   <g id="line2d_52">
    <path clip-path="url(#p513361d187)" d="M 84.063182 223.847315 
L 122.108636 214.898112 
L 160.154091 208.546078 
L 198.199545 191.0081 
L 236.245 179.992208 
L 274.290455 165.558361 
L 312.335909 132.233481 
L 350.381364 58.031393 
L 388.426818 20.388748 
" style="fill:none;stroke:#9c0534;stroke-linecap:square;stroke-width:3.5;"/>
    <defs>
     <path d="M 0 3 
C 0.795609 3 1.55874 2.683901 2.12132 2.12132 
C 2.683901 1.55874 3 0.795609 3 0 
C 3 -0.795609 2.683901 -1.55874 2.12132 -2.12132 
C 1.55874 -2.683901 0.795609 -3 0 -3 
C -0.795609 -3 -1.55874 -2.683901 -2.12132 -2.12132 
C -2.683901 -1.55874 -3 -0.795609 -3 0 
C -3 0.795609 -2.683901 1.55874 -2.12132 2.12132 
C -1.55874 2.683901 -0.795609 3 0 3 
z
" id="mce15e13c18" style="stroke:#9c0534;"/>
    </defs>
    <g clip-path="url(#p513361d187)">
     <use style="fill:#9c0534;stroke:#9c0534;" x="84.063182" xlink:href="#mce15e13c18" y="223.847315"/>
     <use style="fill:#9c0534;stroke:#9c0534;" x="122.108636" xlink:href="#mce15e13c18" y="214.898112"/>
     <use style="fill:#9c0534;stroke:#9c0534;" x="160.154091" xlink:href="#mce15e13c18" y="208.546078"/>
     <use style="fill:#9c0534;stroke:#9c0534;" x="198.199545" xlink:href="#mce15e13c18" y="191.0081"/>
     <use style="fill:#9c0534;stroke:#9c0534;" x="236.245" xlink:href="#mce15e13c18" y="179.992208"/>
     <use style="fill:#9c0534;stroke:#9c0534;" x="274.290455" xlink:href="#mce15e13c18" y="165.558361"/>
     <use style="fill:#9c0534;stroke:#9c0534;" x="312.335909" xlink:href="#mce15e13c18" y="132.233481"/>
     <use style="fill:#9c0534;stroke:#9c0534;" x="350.381364" xlink:href="#mce15e13c18" y="58.031393"/>
     <use style="fill:#9c0534;stroke:#9c0534;" x="388.426818" xlink:href="#mce15e13c18" y="20.388748"/>
    </g>
   </g>
   <g id="line2d_53">
    <path clip-path="url(#p513361d187)" d="M 84.063182 230.282518 
L 122.108636 219.302825 
L 160.154091 217.601803 
L 198.199545 209.026337 
L 236.245 191.604921 
L 274.290455 182.60388 
L 312.335909 168.775497 
L 350.381364 109.386004 
L 388.426818 54.689129 
" style="fill:none;stroke:#45b6fe;stroke-linecap:square;stroke-width:3.5;"/>
    <defs>
     <path d="M 0 3 
C 0.795609 3 1.55874 2.683901 2.12132 2.12132 
C 2.683901 1.55874 3 0.795609 3 0 
C 3 -0.795609 2.683901 -1.55874 2.12132 -2.12132 
C 1.55874 -2.683901 0.795609 -3 0 -3 
C -0.795609 -3 -1.55874 -2.683901 -2.12132 -2.12132 
C -2.683901 -1.55874 -3 -0.795609 -3 0 
C -3 0.795609 -2.683901 1.55874 -2.12132 2.12132 
C -1.55874 2.683901 -0.795609 3 0 3 
z
" id="m2d0fa46cc9" style="stroke:#45b6fe;"/>
    </defs>
    <g clip-path="url(#p513361d187)">
     <use style="fill:#45b6fe;stroke:#45b6fe;" x="84.063182" xlink:href="#m2d0fa46cc9" y="230.282518"/>
     <use style="fill:#45b6fe;stroke:#45b6fe;" x="122.108636" xlink:href="#m2d0fa46cc9" y="219.302825"/>
     <use style="fill:#45b6fe;stroke:#45b6fe;" x="160.154091" xlink:href="#m2d0fa46cc9" y="217.601803"/>
     <use style="fill:#45b6fe;stroke:#45b6fe;" x="198.199545" xlink:href="#m2d0fa46cc9" y="209.026337"/>
     <use style="fill:#45b6fe;stroke:#45b6fe;" x="236.245" xlink:href="#m2d0fa46cc9" y="191.604921"/>
     <use style="fill:#45b6fe;stroke:#45b6fe;" x="274.290455" xlink:href="#m2d0fa46cc9" y="182.60388"/>
     <use style="fill:#45b6fe;stroke:#45b6fe;" x="312.335909" xlink:href="#m2d0fa46cc9" y="168.775497"/>
     <use style="fill:#45b6fe;stroke:#45b6fe;" x="350.381364" xlink:href="#m2d0fa46cc9" y="109.386004"/>
     <use style="fill:#45b6fe;stroke:#45b6fe;" x="388.426818" xlink:href="#m2d0fa46cc9" y="54.689129"/>
    </g>
   </g>
   <g id="line2d_54">
    <path clip-path="url(#p513361d187)" d="M 84.063182 238.067035 
L 122.108636 236.085554 
L 160.154091 232.700948 
L 198.199545 217.828273 
L 236.245 215.566063 
L 274.290455 207.143018 
L 312.335909 195.600547 
L 350.381364 183.51836 
L 388.426818 110.15354 
" style="fill:none;stroke:#ffab40;stroke-linecap:square;stroke-width:3.5;"/>
    <defs>
     <path d="M 0 3 
C 0.795609 3 1.55874 2.683901 2.12132 2.12132 
C 2.683901 1.55874 3 0.795609 3 0 
C 3 -0.795609 2.683901 -1.55874 2.12132 -2.12132 
C 1.55874 -2.683901 0.795609 -3 0 -3 
C -0.795609 -3 -1.55874 -2.683901 -2.12132 -2.12132 
C -2.683901 -1.55874 -3 -0.795609 -3 0 
C -3 0.795609 -2.683901 1.55874 -2.12132 2.12132 
C -1.55874 2.683901 -0.795609 3 0 3 
z
" id="m2e4896fe17" style="stroke:#ffab40;"/>
    </defs>
    <g clip-path="url(#p513361d187)">
     <use style="fill:#ffab40;stroke:#ffab40;" x="84.063182" xlink:href="#m2e4896fe17" y="238.067035"/>
     <use style="fill:#ffab40;stroke:#ffab40;" x="122.108636" xlink:href="#m2e4896fe17" y="236.085554"/>
     <use style="fill:#ffab40;stroke:#ffab40;" x="160.154091" xlink:href="#m2e4896fe17" y="232.700948"/>
     <use style="fill:#ffab40;stroke:#ffab40;" x="198.199545" xlink:href="#m2e4896fe17" y="217.828273"/>
     <use style="fill:#ffab40;stroke:#ffab40;" x="236.245" xlink:href="#m2e4896fe17" y="215.566063"/>
     <use style="fill:#ffab40;stroke:#ffab40;" x="274.290455" xlink:href="#m2e4896fe17" y="207.143018"/>
     <use style="fill:#ffab40;stroke:#ffab40;" x="312.335909" xlink:href="#m2e4896fe17" y="195.600547"/>
     <use style="fill:#ffab40;stroke:#ffab40;" x="350.381364" xlink:href="#m2e4896fe17" y="183.51836"/>
     <use style="fill:#ffab40;stroke:#ffab40;" x="388.426818" xlink:href="#m2e4896fe17" y="110.15354"/>
    </g>
   </g>
   <g id="patch_3">
    <path d="M 68.845 279 
L 68.845 7.2 
" style="fill:none;stroke:#262626;stroke-linecap:square;stroke-linejoin:miter;stroke-width:2;"/>
   </g>
   <g id="patch_4">
    <path d="M 403.645 279 
L 403.645 7.2 
" style="fill:none;stroke:#262626;stroke-linecap:square;stroke-linejoin:miter;stroke-width:2;"/>
   </g>
   <g id="patch_5">
    <path d="M 68.845 279 
L 403.645 279 
" style="fill:none;stroke:#262626;stroke-linecap:square;stroke-linejoin:miter;stroke-width:2;"/>
   </g>
   <g id="patch_6">
    <path d="M 68.845 7.2 
L 403.645 7.2 
" style="fill:none;stroke:#262626;stroke-linecap:square;stroke-linejoin:miter;stroke-width:2;"/>
   </g>
   <g id="legend_1">
    <g id="text_9">
     <!-- Sparsity -->
     <defs>
      <path d="M 18.109375 8.203125 
L 18.109375 -20.796875 
L 9.078125 -20.796875 
L 9.078125 54.6875 
L 18.109375 54.6875 
L 18.109375 46.390625 
Q 20.953125 51.265625 25.265625 53.625 
Q 29.59375 56 35.59375 56 
Q 45.5625 56 51.78125 48.09375 
Q 58.015625 40.1875 58.015625 27.296875 
Q 58.015625 14.40625 51.78125 6.484375 
Q 45.5625 -1.421875 35.59375 -1.421875 
Q 29.59375 -1.421875 25.265625 0.953125 
Q 20.953125 3.328125 18.109375 8.203125 
z
M 48.6875 27.296875 
Q 48.6875 37.203125 44.609375 42.84375 
Q 40.53125 48.484375 33.40625 48.484375 
Q 26.265625 48.484375 22.1875 42.84375 
Q 18.109375 37.203125 18.109375 27.296875 
Q 18.109375 17.390625 22.1875 11.75 
Q 26.265625 6.109375 33.40625 6.109375 
Q 40.53125 6.109375 44.609375 11.75 
Q 48.6875 17.390625 48.6875 27.296875 
z
" id="DejaVuSans-112"/>
      <path d="M 32.171875 -5.078125 
Q 28.375 -14.84375 24.75 -17.8125 
Q 21.140625 -20.796875 15.09375 -20.796875 
L 7.90625 -20.796875 
L 7.90625 -13.28125 
L 13.1875 -13.28125 
Q 16.890625 -13.28125 18.9375 -11.515625 
Q 21 -9.765625 23.484375 -3.21875 
L 25.09375 0.875 
L 2.984375 54.6875 
L 12.5 54.6875 
L 29.59375 11.921875 
L 46.6875 54.6875 
L 56.203125 54.6875 
z
" id="DejaVuSans-121"/>
     </defs>
     <g transform="translate(75.845 24.837812)scale(0.14 -0.14)">
      <use xlink:href="#DejaVuSans-83"/>
      <use x="63.476562" xlink:href="#DejaVuSans-112"/>
      <use x="126.953125" xlink:href="#DejaVuSans-97"/>
      <use x="188.232422" xlink:href="#DejaVuSans-114"/>
      <use x="229.345703" xlink:href="#DejaVuSans-115"/>
      <use x="281.445312" xlink:href="#DejaVuSans-105"/>
      <use x="309.228516" xlink:href="#DejaVuSans-116"/>
      <use x="348.4375" xlink:href="#DejaVuSans-121"/>
     </g>
    </g>
    <g id="line2d_55">
     <path d="M 75.845 40.487187 
L 103.845 40.487187 
" style="fill:none;stroke:#000000;stroke-linecap:square;stroke-width:3.5;"/>
    </g>
    <g id="line2d_56">
     <g>
      <use style="stroke:#000000;" x="89.845" xlink:href="#m786b1a2444" y="40.487187"/>
     </g>
    </g>
    <g id="text_10">
     <!-- 0.0 (PyTorch Linear, dense) -->
     <defs>
      <path d="M 10.6875 12.40625 
L 21 12.40625 
L 21 0 
L 10.6875 0 
z
" id="DejaVuSans-46"/>
      <path d="M 19.671875 64.796875 
L 19.671875 37.40625 
L 32.078125 37.40625 
Q 38.96875 37.40625 42.71875 40.96875 
Q 46.484375 44.53125 46.484375 51.125 
Q 46.484375 57.671875 42.71875 61.234375 
Q 38.96875 64.796875 32.078125 64.796875 
z
M 9.8125 72.90625 
L 32.078125 72.90625 
Q 44.34375 72.90625 50.609375 67.359375 
Q 56.890625 61.8125 56.890625 51.125 
Q 56.890625 40.328125 50.609375 34.8125 
Q 44.34375 29.296875 32.078125 29.296875 
L 19.671875 29.296875 
L 19.671875 0 
L 9.8125 0 
z
" id="DejaVuSans-80"/>
      <path d="M 9.8125 72.90625 
L 19.671875 72.90625 
L 19.671875 8.296875 
L 55.171875 8.296875 
L 55.171875 0 
L 9.8125 0 
z
" id="DejaVuSans-76"/>
      <path d="M 11.71875 12.40625 
L 22.015625 12.40625 
L 22.015625 4 
L 14.015625 -11.625 
L 7.71875 -11.625 
L 11.71875 4 
z
" id="DejaVuSans-44"/>
     </defs>
     <g transform="translate(115.045 45.387187)scale(0.14 -0.14)">
      <use xlink:href="#DejaVuSans-48"/>
      <use x="63.623047" xlink:href="#DejaVuSans-46"/>
      <use x="95.410156" xlink:href="#DejaVuSans-48"/>
      <use x="159.033203" xlink:href="#DejaVuSans-32"/>
      <use x="190.820312" xlink:href="#DejaVuSans-40"/>
      <use x="229.833984" xlink:href="#DejaVuSans-80"/>
      <use x="290.136719" xlink:href="#DejaVuSans-121"/>
      <use x="349.316406" xlink:href="#DejaVuSans-84"/>
      <use x="393.400391" xlink:href="#DejaVuSans-111"/>
      <use x="454.582031" xlink:href="#DejaVuSans-114"/>
      <use x="493.445312" xlink:href="#DejaVuSans-99"/>
      <use x="548.425781" xlink:href="#DejaVuSans-104"/>
      <use x="611.804688" xlink:href="#DejaVuSans-32"/>
      <use x="643.591797" xlink:href="#DejaVuSans-76"/>
      <use x="699.304688" xlink:href="#DejaVuSans-105"/>
      <use x="727.087891" xlink:href="#DejaVuSans-110"/>
      <use x="790.466797" xlink:href="#DejaVuSans-101"/>
      <use x="851.990234" xlink:href="#DejaVuSans-97"/>
      <use x="913.269531" xlink:href="#DejaVuSans-114"/>
      <use x="954.382812" xlink:href="#DejaVuSans-44"/>
      <use x="986.169922" xlink:href="#DejaVuSans-32"/>
      <use x="1017.957031" xlink:href="#DejaVuSans-100"/>
      <use x="1081.433594" xlink:href="#DejaVuSans-101"/>
      <use x="1142.957031" xlink:href="#DejaVuSans-110"/>
      <use x="1206.335938" xlink:href="#DejaVuSans-115"/>
      <use x="1258.435547" xlink:href="#DejaVuSans-101"/>
      <use x="1319.958984" xlink:href="#DejaVuSans-41"/>
     </g>
    </g>
    <g id="line2d_57">
     <path d="M 75.845 61.036562 
L 103.845 61.036562 
" style="fill:none;stroke:#9c0534;stroke-linecap:square;stroke-width:3.5;"/>
    </g>
    <g id="line2d_58">
     <g>
      <use style="fill:#9c0534;stroke:#9c0534;" x="89.845" xlink:href="#mce15e13c18" y="61.036562"/>
     </g>
    </g>
    <g id="text_11">
     <!-- 0.9 -->
     <defs>
      <path d="M 10.984375 1.515625 
L 10.984375 10.5 
Q 14.703125 8.734375 18.5 7.8125 
Q 22.3125 6.890625 25.984375 6.890625 
Q 35.75 6.890625 40.890625 13.453125 
Q 46.046875 20.015625 46.78125 33.40625 
Q 43.953125 29.203125 39.59375 26.953125 
Q 35.25 24.703125 29.984375 24.703125 
Q 19.046875 24.703125 12.671875 31.3125 
Q 6.296875 37.9375 6.296875 49.421875 
Q 6.296875 60.640625 12.9375 67.421875 
Q 19.578125 74.21875 30.609375 74.21875 
Q 43.265625 74.21875 49.921875 64.515625 
Q 56.59375 54.828125 56.59375 36.375 
Q 56.59375 19.140625 48.40625 8.859375 
Q 40.234375 -1.421875 26.421875 -1.421875 
Q 22.703125 -1.421875 18.890625 -0.6875 
Q 15.09375 0.046875 10.984375 1.515625 
z
M 30.609375 32.421875 
Q 37.25 32.421875 41.125 36.953125 
Q 45.015625 41.5 45.015625 49.421875 
Q 45.015625 57.28125 41.125 61.84375 
Q 37.25 66.40625 30.609375 66.40625 
Q 23.96875 66.40625 20.09375 61.84375 
Q 16.21875 57.28125 16.21875 49.421875 
Q 16.21875 41.5 20.09375 36.953125 
Q 23.96875 32.421875 30.609375 32.421875 
z
" id="DejaVuSans-57"/>
     </defs>
     <g transform="translate(115.045 65.936562)scale(0.14 -0.14)">
      <use xlink:href="#DejaVuSans-48"/>
      <use x="63.623047" xlink:href="#DejaVuSans-46"/>
      <use x="95.410156" xlink:href="#DejaVuSans-57"/>
     </g>
    </g>
    <g id="line2d_59">
     <path d="M 75.845 81.585937 
L 103.845 81.585937 
" style="fill:none;stroke:#45b6fe;stroke-linecap:square;stroke-width:3.5;"/>
    </g>
    <g id="line2d_60">
     <g>
      <use style="fill:#45b6fe;stroke:#45b6fe;" x="89.845" xlink:href="#m2d0fa46cc9" y="81.585937"/>
     </g>
    </g>
    <g id="text_12">
     <!-- 0.95 -->
     <defs>
      <path d="M 10.796875 72.90625 
L 49.515625 72.90625 
L 49.515625 64.59375 
L 19.828125 64.59375 
L 19.828125 46.734375 
Q 21.96875 47.46875 24.109375 47.828125 
Q 26.265625 48.1875 28.421875 48.1875 
Q 40.625 48.1875 47.75 41.5 
Q 54.890625 34.8125 54.890625 23.390625 
Q 54.890625 11.625 47.5625 5.09375 
Q 40.234375 -1.421875 26.90625 -1.421875 
Q 22.3125 -1.421875 17.546875 -0.640625 
Q 12.796875 0.140625 7.71875 1.703125 
L 7.71875 11.625 
Q 12.109375 9.234375 16.796875 8.0625 
Q 21.484375 6.890625 26.703125 6.890625 
Q 35.15625 6.890625 40.078125 11.328125 
Q 45.015625 15.765625 45.015625 23.390625 
Q 45.015625 31 40.078125 35.4375 
Q 35.15625 39.890625 26.703125 39.890625 
Q 22.75 39.890625 18.8125 39.015625 
Q 14.890625 38.140625 10.796875 36.28125 
z
" id="DejaVuSans-53"/>
     </defs>
     <g transform="translate(115.045 86.485937)scale(0.14 -0.14)">
      <use xlink:href="#DejaVuSans-48"/>
      <use x="63.623047" xlink:href="#DejaVuSans-46"/>
      <use x="95.410156" xlink:href="#DejaVuSans-57"/>
      <use x="159.033203" xlink:href="#DejaVuSans-53"/>
     </g>
    </g>
    <g id="line2d_61">
     <path d="M 75.845 102.135312 
L 103.845 102.135312 
" style="fill:none;stroke:#ffab40;stroke-linecap:square;stroke-width:3.5;"/>
    </g>
    <g id="line2d_62">
     <g>
      <use style="fill:#ffab40;stroke:#ffab40;" x="89.845" xlink:href="#m2e4896fe17" y="102.135312"/>
     </g>
    </g>
    <g id="text_13">
     <!-- 0.99 -->
     <g transform="translate(115.045 107.035312)scale(0.14 -0.14)">
      <use xlink:href="#DejaVuSans-48"/>
      <use x="63.623047" xlink:href="#DejaVuSans-46"/>
      <use x="95.410156" xlink:href="#DejaVuSans-57"/>
      <use x="159.033203" xlink:href="#DejaVuSans-57"/>
     </g>
    </g>
   </g>
  </g>
 </g>
 <defs>
  <clipPath id="p513361d187">
   <rect height="271.8" width="334.8" x="68.845" y="7.2"/>
  </clipPath>
 </defs>
</svg>
