<?xml version="1.0" encoding="utf-8" standalone="no"?>
<!DOCTYPE svg PUBLIC "-//W3C//DTD SVG 1.1//EN"
  "http://www.w3.org/Graphics/SVG/1.1/DTD/svg11.dtd">
<svg xmlns:xlink="http://www.w3.org/1999/xlink" width="428.495pt" height="335.17pt" viewBox="0 0 428.495 335.17" xmlns="http://www.w3.org/2000/svg" version="1.1">
 <metadata>
  <rdf:RDF xmlns:dc="http://purl.org/dc/elements/1.1/" xmlns:cc="http://creativecommons.org/ns#" xmlns:rdf="http://www.w3.org/1999/02/22-rdf-syntax-ns#">
   <cc:Work>
    <dc:type rdf:resource="http://purl.org/dc/dcmitype/StillImage"/>
    <dc:date>2023-01-25T20:12:13.261320</dc:date>
    <dc:format>image/svg+xml</dc:format>
    <dc:creator>
     <cc:Agent>
      <dc:title>Matplotlib v3.5.2, https://matplotlib.org/</dc:title>
     </cc:Agent>
    </dc:creator>
   </cc:Work>
  </rdf:RDF>
 </metadata>
 <defs>
  <style type="text/css">*{stroke-linejoin: round; stroke-linecap: butt}</style>
 </defs>
 <g id="figure_1">
  <g id="patch_1">
   <path d="M 0 335.17 
L 428.495 335.17 
L 428.495 0 
L 0 0 
z
" style="fill: #ffffff"/>
  </g>
  <g id="axes_1">
   <g id="patch_2">
    <path d="M 71.225 279 
L 406.025 279 
L 406.025 7.2 
L 71.225 7.2 
z
" style="fill: #ffffff"/>
   </g>
   <g id="PathCollection_1">
    <defs>
     <path id="C0_0_ef799ee793" d="M 0 4.472136 
C 1.186024 4.472136 2.323632 4.000923 3.162278 3.162278 
C 4.000923 2.323632 4.472136 1.186024 4.472136 -0 
C 4.472136 -1.186024 4.000923 -2.323632 3.162278 -3.162278 
C 2.323632 -4.000923 1.186024 -4.472136 0 -4.472136 
C -1.186024 -4.472136 -2.323632 -4.000923 -3.162278 -3.162278 
C -4.000923 -2.323632 -4.472136 -1.186024 -4.472136 0 
C -4.472136 1.186024 -4.000923 2.323632 -3.162278 3.162278 
C -2.323632 4.000923 -1.186024 4.472136 0 4.472136 
z
"/>
    </defs>
    <g clip-path="url(#p0e15d4ab89)">
     <use xlink:href="#C0_0_ef799ee793" x="399.460294" y="262.822176" style="fill: none; stroke: #1f77b4; stroke-width: 2"/>
    </g>
    <g clip-path="url(#p0e15d4ab89)">
     <use xlink:href="#C0_0_ef799ee793" x="373.201471" y="78.168954" style="fill: none; stroke: #1f77b4; stroke-width: 2"/>
    </g>
    <g clip-path="url(#p0e15d4ab89)">
     <use xlink:href="#C0_0_ef799ee793" x="340.377941" y="53.473181" style="fill: none; stroke: #1f77b4; stroke-width: 2"/>
    </g>
    <g clip-path="url(#p0e15d4ab89)">
     <use xlink:href="#C0_0_ef799ee793" x="274.730882" y="25.303257" style="fill: none; stroke: #1f77b4; stroke-width: 2"/>
    </g>
    <g clip-path="url(#p0e15d4ab89)">
     <use xlink:href="#C0_0_ef799ee793" x="209.083824" y="22.582536" style="fill: none; stroke: #1f77b4; stroke-width: 2"/>
    </g>
    <g clip-path="url(#p0e15d4ab89)">
     <use xlink:href="#C0_0_ef799ee793" x="143.436765" y="18.920028" style="fill: none; stroke: #1f77b4; stroke-width: 2"/>
    </g>
    <g clip-path="url(#p0e15d4ab89)">
     <use xlink:href="#C0_0_ef799ee793" x="77.789706" y="18.689813" style="fill: none; stroke: #1f77b4; stroke-width: 2"/>
    </g>
   </g>
   <g id="PathCollection_2">
    <defs>
     <path id="C1_0_c56dec3dff" d="M 0 4.472136 
C 1.186024 4.472136 2.323632 4.000923 3.162278 3.162278 
C 4.000923 2.323632 4.472136 1.186024 4.472136 -0 
C 4.472136 -1.186024 4.000923 -2.323632 3.162278 -3.162278 
C 2.323632 -4.000923 1.186024 -4.472136 0 -4.472136 
C -1.186024 -4.472136 -2.323632 -4.000923 -3.162278 -3.162278 
C -4.000923 -2.323632 -4.472136 -1.186024 -4.472136 0 
C -4.472136 1.186024 -4.000923 2.323632 -3.162278 3.162278 
C -2.323632 4.000923 -1.186024 4.472136 0 4.472136 
z
"/>
    </defs>
    <g clip-path="url(#p0e15d4ab89)">
     <use xlink:href="#C1_0_c56dec3dff" x="399.460294" y="17.266667" style="fill: none; stroke: #ff7f0e; stroke-width: 2"/>
    </g>
    <g clip-path="url(#p0e15d4ab89)">
     <use xlink:href="#C1_0_c56dec3dff" x="373.201471" y="17.266667" style="fill: none; stroke: #ff7f0e; stroke-width: 2"/>
    </g>
    <g clip-path="url(#p0e15d4ab89)">
     <use xlink:href="#C1_0_c56dec3dff" x="340.377941" y="17.266667" style="fill: none; stroke: #ff7f0e; stroke-width: 2"/>
    </g>
    <g clip-path="url(#p0e15d4ab89)">
     <use xlink:href="#C1_0_c56dec3dff" x="274.730882" y="17.266667" style="fill: none; stroke: #ff7f0e; stroke-width: 2"/>
    </g>
    <g clip-path="url(#p0e15d4ab89)">
     <use xlink:href="#C1_0_c56dec3dff" x="209.083824" y="17.266667" style="fill: none; stroke: #ff7f0e; stroke-width: 2"/>
    </g>
    <g clip-path="url(#p0e15d4ab89)">
     <use xlink:href="#C1_0_c56dec3dff" x="143.436765" y="17.266667" style="fill: none; stroke: #ff7f0e; stroke-width: 2"/>
    </g>
    <g clip-path="url(#p0e15d4ab89)">
     <use xlink:href="#C1_0_c56dec3dff" x="77.789706" y="17.266667" style="fill: none; stroke: #ff7f0e; stroke-width: 2"/>
    </g>
   </g>
   <g id="PathCollection_3">
    <defs>
     <path id="C2_0_705c4c77aa" d="M 0 4.472136 
C 1.186024 4.472136 2.323632 4.000923 3.162278 3.162278 
C 4.000923 2.323632 4.472136 1.186024 4.472136 -0 
C 4.472136 -1.186024 4.000923 -2.323632 3.162278 -3.162278 
C 2.323632 -4.000923 1.186024 -4.472136 0 -4.472136 
C -1.186024 -4.472136 -2.323632 -4.000923 -3.162278 -3.162278 
C -4.000923 -2.323632 -4.472136 -1.186024 -4.472136 0 
C -4.472136 1.186024 -4.000923 2.323632 -3.162278 3.162278 
C -2.323632 4.000923 -1.186024 4.472136 0 4.472136 
z
"/>
    </defs>
    <g clip-path="url(#p0e15d4ab89)">
     <use xlink:href="#C2_0_705c4c77aa" x="399.460294" y="238.314761" style="fill: none; stroke: #2ca02c; stroke-width: 2"/>
    </g>
    <g clip-path="url(#p0e15d4ab89)">
     <use xlink:href="#C2_0_705c4c77aa" x="373.201471" y="155.353708" style="fill: none; stroke: #2ca02c; stroke-width: 2"/>
    </g>
    <g clip-path="url(#p0e15d4ab89)">
     <use xlink:href="#C2_0_705c4c77aa" x="340.377941" y="128.983645" style="fill: none; stroke: #2ca02c; stroke-width: 2"/>
    </g>
    <g clip-path="url(#p0e15d4ab89)">
     <use xlink:href="#C2_0_705c4c77aa" x="274.730882" y="78.629383" style="fill: none; stroke: #2ca02c; stroke-width: 2"/>
    </g>
    <g clip-path="url(#p0e15d4ab89)">
     <use xlink:href="#C2_0_705c4c77aa" x="209.083824" y="68.96036" style="fill: none; stroke: #2ca02c; stroke-width: 2"/>
    </g>
    <g clip-path="url(#p0e15d4ab89)">
     <use xlink:href="#C2_0_705c4c77aa" x="143.436765" y="50.501317" style="fill: none; stroke: #2ca02c; stroke-width: 2"/>
    </g>
    <g clip-path="url(#p0e15d4ab89)">
     <use xlink:href="#C2_0_705c4c77aa" x="77.789706" y="43.887872" style="fill: none; stroke: #2ca02c; stroke-width: 2"/>
    </g>
   </g>
   <g id="matplotlib.axis_1">
    <g id="xtick_1">
     <g id="line2d_1"/>
     <g id="text_1">
      <!-- 50 -->
      <g transform="translate(67.609706 301.1575)scale(0.16 -0.16)">
       <defs>
        <path id="DejaVuSans-35" d="M 691 4666 
L 3169 4666 
L 3169 4134 
L 1269 4134 
L 1269 2991 
Q 1406 3038 1543 3061 
Q 1681 3084 1819 3084 
Q 2600 3084 3056 2656 
Q 3513 2228 3513 1497 
Q 3513 744 3044 326 
Q 2575 -91 1722 -91 
Q 1428 -91 1123 -41 
Q 819 9 494 109 
L 494 744 
Q 775 591 1075 516 
Q 1375 441 1709 441 
Q 2250 441 2565 725 
Q 2881 1009 2881 1497 
Q 2881 1984 2565 2268 
Q 2250 2553 1709 2553 
Q 1456 2553 1204 2497 
Q 953 2441 691 2322 
L 691 4666 
z
" transform="scale(0.015625)"/>
        <path id="DejaVuSans-30" d="M 2034 4250 
Q 1547 4250 1301 3770 
Q 1056 3291 1056 2328 
Q 1056 1369 1301 889 
Q 1547 409 2034 409 
Q 2525 409 2770 889 
Q 3016 1369 3016 2328 
Q 3016 3291 2770 3770 
Q 2525 4250 2034 4250 
z
M 2034 4750 
Q 2819 4750 3233 4129 
Q 3647 3509 3647 2328 
Q 3647 1150 3233 529 
Q 2819 -91 2034 -91 
Q 1250 -91 836 529 
Q 422 1150 422 2328 
Q 422 3509 836 4129 
Q 1250 4750 2034 4750 
z
" transform="scale(0.015625)"/>
       </defs>
       <use xlink:href="#DejaVuSans-35"/>
       <use xlink:href="#DejaVuSans-30" x="63.623047"/>
      </g>
     </g>
    </g>
    <g id="xtick_2">
     <g id="line2d_2"/>
     <g id="text_2">
      <!-- 60 -->
      <g transform="translate(133.256765 301.1575)scale(0.16 -0.16)">
       <defs>
        <path id="DejaVuSans-36" d="M 2113 2584 
Q 1688 2584 1439 2293 
Q 1191 2003 1191 1497 
Q 1191 994 1439 701 
Q 1688 409 2113 409 
Q 2538 409 2786 701 
Q 3034 994 3034 1497 
Q 3034 2003 2786 2293 
Q 2538 2584 2113 2584 
z
M 3366 4563 
L 3366 3988 
Q 3128 4100 2886 4159 
Q 2644 4219 2406 4219 
Q 1781 4219 1451 3797 
Q 1122 3375 1075 2522 
Q 1259 2794 1537 2939 
Q 1816 3084 2150 3084 
Q 2853 3084 3261 2657 
Q 3669 2231 3669 1497 
Q 3669 778 3244 343 
Q 2819 -91 2113 -91 
Q 1303 -91 875 529 
Q 447 1150 447 2328 
Q 447 3434 972 4092 
Q 1497 4750 2381 4750 
Q 2619 4750 2861 4703 
Q 3103 4656 3366 4563 
z
" transform="scale(0.015625)"/>
       </defs>
       <use xlink:href="#DejaVuSans-36"/>
       <use xlink:href="#DejaVuSans-30" x="63.623047"/>
      </g>
     </g>
    </g>
    <g id="xtick_3">
     <g id="line2d_3"/>
     <g id="text_3">
      <!-- 70 -->
      <g transform="translate(198.903824 301.1575)scale(0.16 -0.16)">
       <defs>
        <path id="DejaVuSans-37" d="M 525 4666 
L 3525 4666 
L 3525 4397 
L 1831 0 
L 1172 0 
L 2766 4134 
L 525 4134 
L 525 4666 
z
" transform="scale(0.015625)"/>
       </defs>
       <use xlink:href="#DejaVuSans-37"/>
       <use xlink:href="#DejaVuSans-30" x="63.623047"/>
      </g>
     </g>
    </g>
    <g id="xtick_4">
     <g id="line2d_4"/>
     <g id="text_4">
      <!-- 80 -->
      <g transform="translate(264.550882 301.1575)scale(0.16 -0.16)">
       <defs>
        <path id="DejaVuSans-38" d="M 2034 2216 
Q 1584 2216 1326 1975 
Q 1069 1734 1069 1313 
Q 1069 891 1326 650 
Q 1584 409 2034 409 
Q 2484 409 2743 651 
Q 3003 894 3003 1313 
Q 3003 1734 2745 1975 
Q 2488 2216 2034 2216 
z
M 1403 2484 
Q 997 2584 770 2862 
Q 544 3141 544 3541 
Q 544 4100 942 4425 
Q 1341 4750 2034 4750 
Q 2731 4750 3128 4425 
Q 3525 4100 3525 3541 
Q 3525 3141 3298 2862 
Q 3072 2584 2669 2484 
Q 3125 2378 3379 2068 
Q 3634 1759 3634 1313 
Q 3634 634 3220 271 
Q 2806 -91 2034 -91 
Q 1263 -91 848 271 
Q 434 634 434 1313 
Q 434 1759 690 2068 
Q 947 2378 1403 2484 
z
M 1172 3481 
Q 1172 3119 1398 2916 
Q 1625 2713 2034 2713 
Q 2441 2713 2670 2916 
Q 2900 3119 2900 3481 
Q 2900 3844 2670 4047 
Q 2441 4250 2034 4250 
Q 1625 4250 1398 4047 
Q 1172 3844 1172 3481 
z
" transform="scale(0.015625)"/>
       </defs>
       <use xlink:href="#DejaVuSans-38"/>
       <use xlink:href="#DejaVuSans-30" x="63.623047"/>
      </g>
     </g>
    </g>
    <g id="xtick_5">
     <g id="line2d_5"/>
     <g id="text_5">
      <!-- 90 -->
      <g transform="translate(330.197941 301.1575)scale(0.16 -0.16)">
       <defs>
        <path id="DejaVuSans-39" d="M 703 97 
L 703 672 
Q 941 559 1184 500 
Q 1428 441 1663 441 
Q 2288 441 2617 861 
Q 2947 1281 2994 2138 
Q 2813 1869 2534 1725 
Q 2256 1581 1919 1581 
Q 1219 1581 811 2004 
Q 403 2428 403 3163 
Q 403 3881 828 4315 
Q 1253 4750 1959 4750 
Q 2769 4750 3195 4129 
Q 3622 3509 3622 2328 
Q 3622 1225 3098 567 
Q 2575 -91 1691 -91 
Q 1453 -91 1209 -44 
Q 966 3 703 97 
z
M 1959 2075 
Q 2384 2075 2632 2365 
Q 2881 2656 2881 3163 
Q 2881 3666 2632 3958 
Q 2384 4250 1959 4250 
Q 1534 4250 1286 3958 
Q 1038 3666 1038 3163 
Q 1038 2656 1286 2365 
Q 1534 2075 1959 2075 
z
" transform="scale(0.015625)"/>
       </defs>
       <use xlink:href="#DejaVuSans-39"/>
       <use xlink:href="#DejaVuSans-30" x="63.623047"/>
      </g>
     </g>
    </g>
    <g id="xtick_6">
     <g id="line2d_6"/>
     <g id="text_6">
      <!-- 100 -->
      <g transform="translate(390.755 301.1575)scale(0.16 -0.16)">
       <defs>
        <path id="DejaVuSans-31" d="M 794 531 
L 1825 531 
L 1825 4091 
L 703 3866 
L 703 4441 
L 1819 4666 
L 2450 4666 
L 2450 531 
L 3481 531 
L 3481 0 
L 794 0 
L 794 531 
z
" transform="scale(0.015625)"/>
       </defs>
       <use xlink:href="#DejaVuSans-31"/>
       <use xlink:href="#DejaVuSans-30" x="63.623047"/>
       <use xlink:href="#DejaVuSans-30" x="127.246094"/>
      </g>
     </g>
    </g>
    <g id="text_7">
     <!-- Sparsity (%) -->
     <g style="fill: #262626" transform="translate(189.62875 324.6425)scale(0.16 -0.16)">
      <defs>
       <path id="DejaVuSans-53" d="M 3425 4513 
L 3425 3897 
Q 3066 4069 2747 4153 
Q 2428 4238 2131 4238 
Q 1616 4238 1336 4038 
Q 1056 3838 1056 3469 
Q 1056 3159 1242 3001 
Q 1428 2844 1947 2747 
L 2328 2669 
Q 3034 2534 3370 2195 
Q 3706 1856 3706 1288 
Q 3706 609 3251 259 
Q 2797 -91 1919 -91 
Q 1588 -91 1214 -16 
Q 841 59 441 206 
L 441 856 
Q 825 641 1194 531 
Q 1563 422 1919 422 
Q 2459 422 2753 634 
Q 3047 847 3047 1241 
Q 3047 1584 2836 1778 
Q 2625 1972 2144 2069 
L 1759 2144 
Q 1053 2284 737 2584 
Q 422 2884 422 3419 
Q 422 4038 858 4394 
Q 1294 4750 2059 4750 
Q 2388 4750 2728 4690 
Q 3069 4631 3425 4513 
z
" transform="scale(0.015625)"/>
       <path id="DejaVuSans-70" d="M 1159 525 
L 1159 -1331 
L 581 -1331 
L 581 3500 
L 1159 3500 
L 1159 2969 
Q 1341 3281 1617 3432 
Q 1894 3584 2278 3584 
Q 2916 3584 3314 3078 
Q 3713 2572 3713 1747 
Q 3713 922 3314 415 
Q 2916 -91 2278 -91 
Q 1894 -91 1617 61 
Q 1341 213 1159 525 
z
M 3116 1747 
Q 3116 2381 2855 2742 
Q 2594 3103 2138 3103 
Q 1681 3103 1420 2742 
Q 1159 2381 1159 1747 
Q 1159 1113 1420 752 
Q 1681 391 2138 391 
Q 2594 391 2855 752 
Q 3116 1113 3116 1747 
z
" transform="scale(0.015625)"/>
       <path id="DejaVuSans-61" d="M 2194 1759 
Q 1497 1759 1228 1600 
Q 959 1441 959 1056 
Q 959 750 1161 570 
Q 1363 391 1709 391 
Q 2188 391 2477 730 
Q 2766 1069 2766 1631 
L 2766 1759 
L 2194 1759 
z
M 3341 1997 
L 3341 0 
L 2766 0 
L 2766 531 
Q 2569 213 2275 61 
Q 1981 -91 1556 -91 
Q 1019 -91 701 211 
Q 384 513 384 1019 
Q 384 1609 779 1909 
Q 1175 2209 1959 2209 
L 2766 2209 
L 2766 2266 
Q 2766 2663 2505 2880 
Q 2244 3097 1772 3097 
Q 1472 3097 1187 3025 
Q 903 2953 641 2809 
L 641 3341 
Q 956 3463 1253 3523 
Q 1550 3584 1831 3584 
Q 2591 3584 2966 3190 
Q 3341 2797 3341 1997 
z
" transform="scale(0.015625)"/>
       <path id="DejaVuSans-72" d="M 2631 2963 
Q 2534 3019 2420 3045 
Q 2306 3072 2169 3072 
Q 1681 3072 1420 2755 
Q 1159 2438 1159 1844 
L 1159 0 
L 581 0 
L 581 3500 
L 1159 3500 
L 1159 2956 
Q 1341 3275 1631 3429 
Q 1922 3584 2338 3584 
Q 2397 3584 2469 3576 
Q 2541 3569 2628 3553 
L 2631 2963 
z
" transform="scale(0.015625)"/>
       <path id="DejaVuSans-73" d="M 2834 3397 
L 2834 2853 
Q 2591 2978 2328 3040 
Q 2066 3103 1784 3103 
Q 1356 3103 1142 2972 
Q 928 2841 928 2578 
Q 928 2378 1081 2264 
Q 1234 2150 1697 2047 
L 1894 2003 
Q 2506 1872 2764 1633 
Q 3022 1394 3022 966 
Q 3022 478 2636 193 
Q 2250 -91 1575 -91 
Q 1294 -91 989 -36 
Q 684 19 347 128 
L 347 722 
Q 666 556 975 473 
Q 1284 391 1588 391 
Q 1994 391 2212 530 
Q 2431 669 2431 922 
Q 2431 1156 2273 1281 
Q 2116 1406 1581 1522 
L 1381 1569 
Q 847 1681 609 1914 
Q 372 2147 372 2553 
Q 372 3047 722 3315 
Q 1072 3584 1716 3584 
Q 2034 3584 2315 3537 
Q 2597 3491 2834 3397 
z
" transform="scale(0.015625)"/>
       <path id="DejaVuSans-69" d="M 603 3500 
L 1178 3500 
L 1178 0 
L 603 0 
L 603 3500 
z
M 603 4863 
L 1178 4863 
L 1178 4134 
L 603 4134 
L 603 4863 
z
" transform="scale(0.015625)"/>
       <path id="DejaVuSans-74" d="M 1172 4494 
L 1172 3500 
L 2356 3500 
L 2356 3053 
L 1172 3053 
L 1172 1153 
Q 1172 725 1289 603 
Q 1406 481 1766 481 
L 2356 481 
L 2356 0 
L 1766 0 
Q 1100 0 847 248 
Q 594 497 594 1153 
L 594 3053 
L 172 3053 
L 172 3500 
L 594 3500 
L 594 4494 
L 1172 4494 
z
" transform="scale(0.015625)"/>
       <path id="DejaVuSans-79" d="M 2059 -325 
Q 1816 -950 1584 -1140 
Q 1353 -1331 966 -1331 
L 506 -1331 
L 506 -850 
L 844 -850 
Q 1081 -850 1212 -737 
Q 1344 -625 1503 -206 
L 1606 56 
L 191 3500 
L 800 3500 
L 1894 763 
L 2988 3500 
L 3597 3500 
L 2059 -325 
z
" transform="scale(0.015625)"/>
       <path id="DejaVuSans-20" transform="scale(0.015625)"/>
       <path id="DejaVuSans-28" d="M 1984 4856 
Q 1566 4138 1362 3434 
Q 1159 2731 1159 2009 
Q 1159 1288 1364 580 
Q 1569 -128 1984 -844 
L 1484 -844 
Q 1016 -109 783 600 
Q 550 1309 550 2009 
Q 550 2706 781 3412 
Q 1013 4119 1484 4856 
L 1984 4856 
z
" transform="scale(0.015625)"/>
       <path id="DejaVuSans-25" d="M 4653 2053 
Q 4381 2053 4226 1822 
Q 4072 1591 4072 1178 
Q 4072 772 4226 539 
Q 4381 306 4653 306 
Q 4919 306 5073 539 
Q 5228 772 5228 1178 
Q 5228 1588 5073 1820 
Q 4919 2053 4653 2053 
z
M 4653 2450 
Q 5147 2450 5437 2106 
Q 5728 1763 5728 1178 
Q 5728 594 5436 251 
Q 5144 -91 4653 -91 
Q 4153 -91 3862 251 
Q 3572 594 3572 1178 
Q 3572 1766 3864 2108 
Q 4156 2450 4653 2450 
z
M 1428 4353 
Q 1159 4353 1004 4120 
Q 850 3888 850 3481 
Q 850 3069 1003 2837 
Q 1156 2606 1428 2606 
Q 1700 2606 1854 2837 
Q 2009 3069 2009 3481 
Q 2009 3884 1853 4118 
Q 1697 4353 1428 4353 
z
M 4250 4750 
L 4750 4750 
L 1831 -91 
L 1331 -91 
L 4250 4750 
z
M 1428 4750 
Q 1922 4750 2215 4408 
Q 2509 4066 2509 3481 
Q 2509 2891 2217 2550 
Q 1925 2209 1428 2209 
Q 931 2209 642 2551 
Q 353 2894 353 3481 
Q 353 4063 643 4406 
Q 934 4750 1428 4750 
z
" transform="scale(0.015625)"/>
       <path id="DejaVuSans-29" d="M 513 4856 
L 1013 4856 
Q 1481 4119 1714 3412 
Q 1947 2706 1947 2009 
Q 1947 1309 1714 600 
Q 1481 -109 1013 -844 
L 513 -844 
Q 928 -128 1133 580 
Q 1338 1288 1338 2009 
Q 1338 2731 1133 3434 
Q 928 4138 513 4856 
z
" transform="scale(0.015625)"/>
      </defs>
      <use xlink:href="#DejaVuSans-53"/>
      <use xlink:href="#DejaVuSans-70" x="63.476562"/>
      <use xlink:href="#DejaVuSans-61" x="126.953125"/>
      <use xlink:href="#DejaVuSans-72" x="188.232422"/>
      <use xlink:href="#DejaVuSans-73" x="229.345703"/>
      <use xlink:href="#DejaVuSans-69" x="281.445312"/>
      <use xlink:href="#DejaVuSans-74" x="309.228516"/>
      <use xlink:href="#DejaVuSans-79" x="348.4375"/>
      <use xlink:href="#DejaVuSans-20" x="407.617188"/>
      <use xlink:href="#DejaVuSans-28" x="439.404297"/>
      <use xlink:href="#DejaVuSans-25" x="478.417969"/>
      <use xlink:href="#DejaVuSans-29" x="573.4375"/>
     </g>
    </g>
   </g>
   <g id="matplotlib.axis_2">
    <g id="ytick_1">
     <g id="line2d_7"/>
     <g id="text_8">
      <!-- 48 -->
      <g transform="translate(40.865 285.07875)scale(0.16 -0.16)">
       <defs>
        <path id="DejaVuSans-34" d="M 2419 4116 
L 825 1625 
L 2419 1625 
L 2419 4116 
z
M 2253 4666 
L 3047 4666 
L 3047 1625 
L 3713 1625 
L 3713 1100 
L 3047 1100 
L 3047 0 
L 2419 0 
L 2419 1100 
L 313 1100 
L 313 1709 
L 2253 4666 
z
" transform="scale(0.015625)"/>
       </defs>
       <use xlink:href="#DejaVuSans-34"/>
       <use xlink:href="#DejaVuSans-38" x="63.623047"/>
      </g>
     </g>
    </g>
    <g id="ytick_2">
     <g id="line2d_8"/>
     <g id="text_9">
      <!-- 58 -->
      <g transform="translate(40.865 234.745417)scale(0.16 -0.16)">
       <use xlink:href="#DejaVuSans-35"/>
       <use xlink:href="#DejaVuSans-38" x="63.623047"/>
      </g>
     </g>
    </g>
    <g id="ytick_3">
     <g id="line2d_9"/>
     <g id="text_10">
      <!-- 68 -->
      <g transform="translate(40.865 184.412083)scale(0.16 -0.16)">
       <use xlink:href="#DejaVuSans-36"/>
       <use xlink:href="#DejaVuSans-38" x="63.623047"/>
      </g>
     </g>
    </g>
    <g id="ytick_4">
     <g id="line2d_10"/>
     <g id="text_11">
      <!-- 79 -->
      <g transform="translate(40.865 129.045417)scale(0.16 -0.16)">
       <use xlink:href="#DejaVuSans-37"/>
       <use xlink:href="#DejaVuSans-39" x="63.623047"/>
      </g>
     </g>
    </g>
    <g id="ytick_5">
     <g id="line2d_11"/>
     <g id="text_12">
      <!-- 89 -->
      <g transform="translate(40.865 78.712083)scale(0.16 -0.16)">
       <use xlink:href="#DejaVuSans-38"/>
       <use xlink:href="#DejaVuSans-39" x="63.623047"/>
      </g>
     </g>
    </g>
    <g id="ytick_6">
     <g id="line2d_12"/>
     <g id="text_13">
      <!-- 100 -->
      <g transform="translate(30.685 23.345417)scale(0.16 -0.16)">
       <use xlink:href="#DejaVuSans-31"/>
       <use xlink:href="#DejaVuSans-30" x="63.623047"/>
       <use xlink:href="#DejaVuSans-30" x="127.246094"/>
      </g>
     </g>
    </g>
    <g id="text_14">
     <!-- Active Nerons (%) -->
     <g style="fill: #262626" transform="translate(19.3575 214.925)rotate(-90)scale(0.16 -0.16)">
      <defs>
       <path id="DejaVuSans-41" d="M 2188 4044 
L 1331 1722 
L 3047 1722 
L 2188 4044 
z
M 1831 4666 
L 2547 4666 
L 4325 0 
L 3669 0 
L 3244 1197 
L 1141 1197 
L 716 0 
L 50 0 
L 1831 4666 
z
" transform="scale(0.015625)"/>
       <path id="DejaVuSans-63" d="M 3122 3366 
L 3122 2828 
Q 2878 2963 2633 3030 
Q 2388 3097 2138 3097 
Q 1578 3097 1268 2742 
Q 959 2388 959 1747 
Q 959 1106 1268 751 
Q 1578 397 2138 397 
Q 2388 397 2633 464 
Q 2878 531 3122 666 
L 3122 134 
Q 2881 22 2623 -34 
Q 2366 -91 2075 -91 
Q 1284 -91 818 406 
Q 353 903 353 1747 
Q 353 2603 823 3093 
Q 1294 3584 2113 3584 
Q 2378 3584 2631 3529 
Q 2884 3475 3122 3366 
z
" transform="scale(0.015625)"/>
       <path id="DejaVuSans-76" d="M 191 3500 
L 800 3500 
L 1894 563 
L 2988 3500 
L 3597 3500 
L 2284 0 
L 1503 0 
L 191 3500 
z
" transform="scale(0.015625)"/>
       <path id="DejaVuSans-65" d="M 3597 1894 
L 3597 1613 
L 953 1613 
Q 991 1019 1311 708 
Q 1631 397 2203 397 
Q 2534 397 2845 478 
Q 3156 559 3463 722 
L 3463 178 
Q 3153 47 2828 -22 
Q 2503 -91 2169 -91 
Q 1331 -91 842 396 
Q 353 884 353 1716 
Q 353 2575 817 3079 
Q 1281 3584 2069 3584 
Q 2775 3584 3186 3129 
Q 3597 2675 3597 1894 
z
M 3022 2063 
Q 3016 2534 2758 2815 
Q 2500 3097 2075 3097 
Q 1594 3097 1305 2825 
Q 1016 2553 972 2059 
L 3022 2063 
z
" transform="scale(0.015625)"/>
       <path id="DejaVuSans-4e" d="M 628 4666 
L 1478 4666 
L 3547 763 
L 3547 4666 
L 4159 4666 
L 4159 0 
L 3309 0 
L 1241 3903 
L 1241 0 
L 628 0 
L 628 4666 
z
" transform="scale(0.015625)"/>
       <path id="DejaVuSans-6f" d="M 1959 3097 
Q 1497 3097 1228 2736 
Q 959 2375 959 1747 
Q 959 1119 1226 758 
Q 1494 397 1959 397 
Q 2419 397 2687 759 
Q 2956 1122 2956 1747 
Q 2956 2369 2687 2733 
Q 2419 3097 1959 3097 
z
M 1959 3584 
Q 2709 3584 3137 3096 
Q 3566 2609 3566 1747 
Q 3566 888 3137 398 
Q 2709 -91 1959 -91 
Q 1206 -91 779 398 
Q 353 888 353 1747 
Q 353 2609 779 3096 
Q 1206 3584 1959 3584 
z
" transform="scale(0.015625)"/>
       <path id="DejaVuSans-6e" d="M 3513 2113 
L 3513 0 
L 2938 0 
L 2938 2094 
Q 2938 2591 2744 2837 
Q 2550 3084 2163 3084 
Q 1697 3084 1428 2787 
Q 1159 2491 1159 1978 
L 1159 0 
L 581 0 
L 581 3500 
L 1159 3500 
L 1159 2956 
Q 1366 3272 1645 3428 
Q 1925 3584 2291 3584 
Q 2894 3584 3203 3211 
Q 3513 2838 3513 2113 
z
" transform="scale(0.015625)"/>
      </defs>
      <use xlink:href="#DejaVuSans-41"/>
      <use xlink:href="#DejaVuSans-63" x="66.658203"/>
      <use xlink:href="#DejaVuSans-74" x="121.638672"/>
      <use xlink:href="#DejaVuSans-69" x="160.847656"/>
      <use xlink:href="#DejaVuSans-76" x="188.630859"/>
      <use xlink:href="#DejaVuSans-65" x="247.810547"/>
      <use xlink:href="#DejaVuSans-20" x="309.333984"/>
      <use xlink:href="#DejaVuSans-4e" x="341.121094"/>
      <use xlink:href="#DejaVuSans-65" x="415.925781"/>
      <use xlink:href="#DejaVuSans-72" x="477.449219"/>
      <use xlink:href="#DejaVuSans-6f" x="516.3125"/>
      <use xlink:href="#DejaVuSans-6e" x="577.494141"/>
      <use xlink:href="#DejaVuSans-73" x="640.873047"/>
      <use xlink:href="#DejaVuSans-20" x="692.972656"/>
      <use xlink:href="#DejaVuSans-28" x="724.759766"/>
      <use xlink:href="#DejaVuSans-25" x="763.773438"/>
      <use xlink:href="#DejaVuSans-29" x="858.792969"/>
     </g>
    </g>
   </g>
   <g id="LineCollection_1">
    <path d="M 399.460294 276.691603 
L 399.460294 248.952749 
" clip-path="url(#p0e15d4ab89)" style="fill: none; stroke: #1f77b4; stroke-width: 0.5"/>
    <path d="M 373.201471 91.869497 
L 373.201471 64.46841 
" clip-path="url(#p0e15d4ab89)" style="fill: none; stroke: #1f77b4; stroke-width: 0.5"/>
    <path d="M 340.377941 64.393619 
L 340.377941 42.552743 
" clip-path="url(#p0e15d4ab89)" style="fill: none; stroke: #1f77b4; stroke-width: 0.5"/>
    <path d="M 274.730882 27.169031 
L 274.730882 23.437483 
" clip-path="url(#p0e15d4ab89)" style="fill: none; stroke: #1f77b4; stroke-width: 0.5"/>
    <path d="M 209.083824 25.157346 
L 209.083824 20.007727 
" clip-path="url(#p0e15d4ab89)" style="fill: none; stroke: #1f77b4; stroke-width: 0.5"/>
    <path d="M 143.436765 19.53908 
L 143.436765 18.300975 
" clip-path="url(#p0e15d4ab89)" style="fill: none; stroke: #1f77b4; stroke-width: 0.5"/>
    <path d="M 77.789706 20.060576 
L 77.789706 17.31905 
" clip-path="url(#p0e15d4ab89)" style="fill: none; stroke: #1f77b4; stroke-width: 0.5"/>
   </g>
   <g id="line2d_13">
    <defs>
     <path id="m91661382c8" d="M 3 0 
L -3 -0 
" style="stroke: #1f77b4"/>
    </defs>
    <g clip-path="url(#p0e15d4ab89)">
     <use xlink:href="#m91661382c8" x="399.460294" y="276.691603" style="fill: #1f77b4; stroke: #1f77b4"/>
     <use xlink:href="#m91661382c8" x="373.201471" y="91.869497" style="fill: #1f77b4; stroke: #1f77b4"/>
     <use xlink:href="#m91661382c8" x="340.377941" y="64.393619" style="fill: #1f77b4; stroke: #1f77b4"/>
     <use xlink:href="#m91661382c8" x="274.730882" y="27.169031" style="fill: #1f77b4; stroke: #1f77b4"/>
     <use xlink:href="#m91661382c8" x="209.083824" y="25.157346" style="fill: #1f77b4; stroke: #1f77b4"/>
     <use xlink:href="#m91661382c8" x="143.436765" y="19.53908" style="fill: #1f77b4; stroke: #1f77b4"/>
     <use xlink:href="#m91661382c8" x="77.789706" y="20.060576" style="fill: #1f77b4; stroke: #1f77b4"/>
    </g>
   </g>
   <g id="line2d_14">
    <g clip-path="url(#p0e15d4ab89)">
     <use xlink:href="#m91661382c8" x="399.460294" y="248.952749" style="fill: #1f77b4; stroke: #1f77b4"/>
     <use xlink:href="#m91661382c8" x="373.201471" y="64.46841" style="fill: #1f77b4; stroke: #1f77b4"/>
     <use xlink:href="#m91661382c8" x="340.377941" y="42.552743" style="fill: #1f77b4; stroke: #1f77b4"/>
     <use xlink:href="#m91661382c8" x="274.730882" y="23.437483" style="fill: #1f77b4; stroke: #1f77b4"/>
     <use xlink:href="#m91661382c8" x="209.083824" y="20.007727" style="fill: #1f77b4; stroke: #1f77b4"/>
     <use xlink:href="#m91661382c8" x="143.436765" y="18.300975" style="fill: #1f77b4; stroke: #1f77b4"/>
     <use xlink:href="#m91661382c8" x="77.789706" y="17.31905" style="fill: #1f77b4; stroke: #1f77b4"/>
    </g>
   </g>
   <g id="LineCollection_2">
    <path clip-path="url(#p0e15d4ab89)" style="fill: none; stroke: #ff7f0e; stroke-width: 0.5"/>
    <path clip-path="url(#p0e15d4ab89)" style="fill: none; stroke: #ff7f0e; stroke-width: 0.5"/>
    <path clip-path="url(#p0e15d4ab89)" style="fill: none; stroke: #ff7f0e; stroke-width: 0.5"/>
    <path clip-path="url(#p0e15d4ab89)" style="fill: none; stroke: #ff7f0e; stroke-width: 0.5"/>
    <path clip-path="url(#p0e15d4ab89)" style="fill: none; stroke: #ff7f0e; stroke-width: 0.5"/>
    <path clip-path="url(#p0e15d4ab89)" style="fill: none; stroke: #ff7f0e; stroke-width: 0.5"/>
    <path clip-path="url(#p0e15d4ab89)" style="fill: none; stroke: #ff7f0e; stroke-width: 0.5"/>
   </g>
   <g id="line2d_15">
    <defs>
     <path id="m3925179aa3" d="M 3 0 
L -3 -0 
" style="stroke: #ff7f0e"/>
    </defs>
    <g clip-path="url(#p0e15d4ab89)"/>
   </g>
   <g id="line2d_16">
    <g clip-path="url(#p0e15d4ab89)"/>
   </g>
   <g id="LineCollection_3">
    <path d="M 399.460294 244.524756 
L 399.460294 232.104766 
" clip-path="url(#p0e15d4ab89)" style="fill: none; stroke: #2ca02c; stroke-width: 0.5"/>
    <path d="M 373.201471 173.012121 
L 373.201471 137.695294 
" clip-path="url(#p0e15d4ab89)" style="fill: none; stroke: #2ca02c; stroke-width: 0.5"/>
    <path d="M 340.377941 142.318449 
L 340.377941 115.648842 
" clip-path="url(#p0e15d4ab89)" style="fill: none; stroke: #2ca02c; stroke-width: 0.5"/>
    <path d="M 274.730882 86.511744 
L 274.730882 70.747022 
" clip-path="url(#p0e15d4ab89)" style="fill: none; stroke: #2ca02c; stroke-width: 0.5"/>
    <path d="M 209.083824 76.309252 
L 209.083824 61.611469 
" clip-path="url(#p0e15d4ab89)" style="fill: none; stroke: #2ca02c; stroke-width: 0.5"/>
    <path d="M 143.436765 55.335575 
L 143.436765 45.667059 
" clip-path="url(#p0e15d4ab89)" style="fill: none; stroke: #2ca02c; stroke-width: 0.5"/>
    <path d="M 77.789706 47.156368 
L 77.789706 40.619377 
" clip-path="url(#p0e15d4ab89)" style="fill: none; stroke: #2ca02c; stroke-width: 0.5"/>
   </g>
   <g id="line2d_17">
    <defs>
     <path id="m1b93bee1ac" d="M 3 0 
L -3 -0 
" style="stroke: #2ca02c"/>
    </defs>
    <g clip-path="url(#p0e15d4ab89)">
     <use xlink:href="#m1b93bee1ac" x="399.460294" y="244.524756" style="fill: #2ca02c; stroke: #2ca02c"/>
     <use xlink:href="#m1b93bee1ac" x="373.201471" y="173.012121" style="fill: #2ca02c; stroke: #2ca02c"/>
     <use xlink:href="#m1b93bee1ac" x="340.377941" y="142.318449" style="fill: #2ca02c; stroke: #2ca02c"/>
     <use xlink:href="#m1b93bee1ac" x="274.730882" y="86.511744" style="fill: #2ca02c; stroke: #2ca02c"/>
     <use xlink:href="#m1b93bee1ac" x="209.083824" y="76.309252" style="fill: #2ca02c; stroke: #2ca02c"/>
     <use xlink:href="#m1b93bee1ac" x="143.436765" y="55.335575" style="fill: #2ca02c; stroke: #2ca02c"/>
     <use xlink:href="#m1b93bee1ac" x="77.789706" y="47.156368" style="fill: #2ca02c; stroke: #2ca02c"/>
    </g>
   </g>
   <g id="line2d_18">
    <g clip-path="url(#p0e15d4ab89)">
     <use xlink:href="#m1b93bee1ac" x="399.460294" y="232.104766" style="fill: #2ca02c; stroke: #2ca02c"/>
     <use xlink:href="#m1b93bee1ac" x="373.201471" y="137.695294" style="fill: #2ca02c; stroke: #2ca02c"/>
     <use xlink:href="#m1b93bee1ac" x="340.377941" y="115.648842" style="fill: #2ca02c; stroke: #2ca02c"/>
     <use xlink:href="#m1b93bee1ac" x="274.730882" y="70.747022" style="fill: #2ca02c; stroke: #2ca02c"/>
     <use xlink:href="#m1b93bee1ac" x="209.083824" y="61.611469" style="fill: #2ca02c; stroke: #2ca02c"/>
     <use xlink:href="#m1b93bee1ac" x="143.436765" y="45.667059" style="fill: #2ca02c; stroke: #2ca02c"/>
     <use xlink:href="#m1b93bee1ac" x="77.789706" y="40.619377" style="fill: #2ca02c; stroke: #2ca02c"/>
    </g>
   </g>
   <g id="patch_3">
    <path d="M 71.225 279 
L 71.225 7.2 
" style="fill: none; stroke: #262626; stroke-width: 2; stroke-linejoin: miter; stroke-linecap: square"/>
   </g>
   <g id="patch_4">
    <path d="M 406.025 279 
L 406.025 7.2 
" style="fill: none; stroke: #262626; stroke-width: 2; stroke-linejoin: miter; stroke-linecap: square"/>
   </g>
   <g id="patch_5">
    <path d="M 71.225 279 
L 406.025 279 
" style="fill: none; stroke: #262626; stroke-width: 2; stroke-linejoin: miter; stroke-linecap: square"/>
   </g>
   <g id="patch_6">
    <path d="M 71.225 7.2 
L 406.025 7.2 
" style="fill: none; stroke: #262626; stroke-width: 2; stroke-linejoin: miter; stroke-linecap: square"/>
   </g>
   <g id="legend_1">
    <g id="PathCollection_4">
     <path d="M 106.225 214.786823 
C 107.411024 214.786823 108.548632 214.315611 109.387278 213.476965 
C 110.225923 212.638319 110.697136 211.500712 110.697136 210.314687 
C 110.697136 209.128663 110.225923 207.991056 109.387278 207.15241 
C 108.548632 206.313764 107.411024 205.842552 106.225 205.842552 
C 105.038976 205.842552 103.901368 206.313764 103.062722 207.15241 
C 102.224077 207.991056 101.752864 209.128663 101.752864 210.314687 
C 101.752864 211.500712 102.224077 212.638319 103.062722 213.476965 
C 103.901368 214.315611 105.038976 214.786823 106.225 214.786823 
L 106.225 214.786823 
z
" style="fill: none; stroke: #1f77b4; stroke-width: 2"/>
    </g>
    <g id="text_15">
     <!-- RigL -->
     <g transform="translate(131.425 213.989687)scale(0.14 -0.14)">
      <defs>
       <path id="DejaVuSans-52" d="M 2841 2188 
Q 3044 2119 3236 1894 
Q 3428 1669 3622 1275 
L 4263 0 
L 3584 0 
L 2988 1197 
Q 2756 1666 2539 1819 
Q 2322 1972 1947 1972 
L 1259 1972 
L 1259 0 
L 628 0 
L 628 4666 
L 2053 4666 
Q 2853 4666 3247 4331 
Q 3641 3997 3641 3322 
Q 3641 2881 3436 2590 
Q 3231 2300 2841 2188 
z
M 1259 4147 
L 1259 2491 
L 2053 2491 
Q 2509 2491 2742 2702 
Q 2975 2913 2975 3322 
Q 2975 3731 2742 3939 
Q 2509 4147 2053 4147 
L 1259 4147 
z
" transform="scale(0.015625)"/>
       <path id="DejaVuSans-67" d="M 2906 1791 
Q 2906 2416 2648 2759 
Q 2391 3103 1925 3103 
Q 1463 3103 1205 2759 
Q 947 2416 947 1791 
Q 947 1169 1205 825 
Q 1463 481 1925 481 
Q 2391 481 2648 825 
Q 2906 1169 2906 1791 
z
M 3481 434 
Q 3481 -459 3084 -895 
Q 2688 -1331 1869 -1331 
Q 1566 -1331 1297 -1286 
Q 1028 -1241 775 -1147 
L 775 -588 
Q 1028 -725 1275 -790 
Q 1522 -856 1778 -856 
Q 2344 -856 2625 -561 
Q 2906 -266 2906 331 
L 2906 616 
Q 2728 306 2450 153 
Q 2172 0 1784 0 
Q 1141 0 747 490 
Q 353 981 353 1791 
Q 353 2603 747 3093 
Q 1141 3584 1784 3584 
Q 2172 3584 2450 3431 
Q 2728 3278 2906 2969 
L 2906 3500 
L 3481 3500 
L 3481 434 
z
" transform="scale(0.015625)"/>
       <path id="DejaVuSans-4c" d="M 628 4666 
L 1259 4666 
L 1259 531 
L 3531 531 
L 3531 0 
L 628 0 
L 628 4666 
z
" transform="scale(0.015625)"/>
      </defs>
      <use xlink:href="#DejaVuSans-52"/>
      <use xlink:href="#DejaVuSans-69" x="69.482422"/>
      <use xlink:href="#DejaVuSans-67" x="97.265625"/>
      <use xlink:href="#DejaVuSans-4c" x="160.742188"/>
     </g>
    </g>
    <g id="PathCollection_5">
     <path d="M 106.225 235.336198 
C 107.411024 235.336198 108.548632 234.864986 109.387278 234.02634 
C 110.225923 233.187694 110.697136 232.050087 110.697136 230.864062 
C 110.697136 229.678038 110.225923 228.540431 109.387278 227.701785 
C 108.548632 226.863139 107.411024 226.391927 106.225 226.391927 
C 105.038976 226.391927 103.901368 226.863139 103.062722 227.701785 
C 102.224077 228.540431 101.752864 229.678038 101.752864 230.864062 
C 101.752864 232.050087 102.224077 233.187694 103.062722 234.02634 
C 103.901368 234.864986 105.038976 235.336198 106.225 235.336198 
L 106.225 235.336198 
z
" style="fill: none; stroke: #ff7f0e; stroke-width: 2"/>
    </g>
    <g id="text_16">
     <!-- SRigL w/o ablation -->
     <g transform="translate(131.425 234.539062)scale(0.14 -0.14)">
      <defs>
       <path id="DejaVuSans-77" d="M 269 3500 
L 844 3500 
L 1563 769 
L 2278 3500 
L 2956 3500 
L 3675 769 
L 4391 3500 
L 4966 3500 
L 4050 0 
L 3372 0 
L 2619 2869 
L 1863 0 
L 1184 0 
L 269 3500 
z
" transform="scale(0.015625)"/>
       <path id="DejaVuSans-2f" d="M 1625 4666 
L 2156 4666 
L 531 -594 
L 0 -594 
L 1625 4666 
z
" transform="scale(0.015625)"/>
       <path id="DejaVuSans-62" d="M 3116 1747 
Q 3116 2381 2855 2742 
Q 2594 3103 2138 3103 
Q 1681 3103 1420 2742 
Q 1159 2381 1159 1747 
Q 1159 1113 1420 752 
Q 1681 391 2138 391 
Q 2594 391 2855 752 
Q 3116 1113 3116 1747 
z
M 1159 2969 
Q 1341 3281 1617 3432 
Q 1894 3584 2278 3584 
Q 2916 3584 3314 3078 
Q 3713 2572 3713 1747 
Q 3713 922 3314 415 
Q 2916 -91 2278 -91 
Q 1894 -91 1617 61 
Q 1341 213 1159 525 
L 1159 0 
L 581 0 
L 581 4863 
L 1159 4863 
L 1159 2969 
z
" transform="scale(0.015625)"/>
       <path id="DejaVuSans-6c" d="M 603 4863 
L 1178 4863 
L 1178 0 
L 603 0 
L 603 4863 
z
" transform="scale(0.015625)"/>
      </defs>
      <use xlink:href="#DejaVuSans-53"/>
      <use xlink:href="#DejaVuSans-52" x="63.476562"/>
      <use xlink:href="#DejaVuSans-69" x="132.958984"/>
      <use xlink:href="#DejaVuSans-67" x="160.742188"/>
      <use xlink:href="#DejaVuSans-4c" x="224.21875"/>
      <use xlink:href="#DejaVuSans-20" x="279.931641"/>
      <use xlink:href="#DejaVuSans-77" x="311.71875"/>
      <use xlink:href="#DejaVuSans-2f" x="393.505859"/>
      <use xlink:href="#DejaVuSans-6f" x="427.197266"/>
      <use xlink:href="#DejaVuSans-20" x="488.378906"/>
      <use xlink:href="#DejaVuSans-61" x="520.166016"/>
      <use xlink:href="#DejaVuSans-62" x="581.445312"/>
      <use xlink:href="#DejaVuSans-6c" x="644.921875"/>
      <use xlink:href="#DejaVuSans-61" x="672.705078"/>
      <use xlink:href="#DejaVuSans-74" x="733.984375"/>
      <use xlink:href="#DejaVuSans-69" x="773.193359"/>
      <use xlink:href="#DejaVuSans-6f" x="800.976562"/>
      <use xlink:href="#DejaVuSans-6e" x="862.158203"/>
     </g>
    </g>
    <g id="PathCollection_6">
     <path d="M 106.225 255.885573 
C 107.411024 255.885573 108.548632 255.414361 109.387278 254.575715 
C 110.225923 253.737069 110.697136 252.599462 110.697136 251.413437 
C 110.697136 250.227413 110.225923 249.089806 109.387278 248.25116 
C 108.548632 247.412514 107.411024 246.941302 106.225 246.941302 
C 105.038976 246.941302 103.901368 247.412514 103.062722 248.25116 
C 102.224077 249.089806 101.752864 250.227413 101.752864 251.413437 
C 101.752864 252.599462 102.224077 253.737069 103.062722 254.575715 
C 103.901368 255.414361 105.038976 255.885573 106.225 255.885573 
L 106.225 255.885573 
z
" style="fill: none; stroke: #2ca02c; stroke-width: 2"/>
    </g>
    <g id="text_17">
     <!-- SRigL -->
     <g transform="translate(131.425 255.088437)scale(0.14 -0.14)">
      <use xlink:href="#DejaVuSans-53"/>
      <use xlink:href="#DejaVuSans-52" x="63.476562"/>
      <use xlink:href="#DejaVuSans-69" x="132.958984"/>
      <use xlink:href="#DejaVuSans-67" x="160.742188"/>
      <use xlink:href="#DejaVuSans-4c" x="224.21875"/>
     </g>
    </g>
   </g>
  </g>
 </g>
 <defs>
  <clipPath id="p0e15d4ab89">
   <rect x="71.225" y="7.2" width="334.8" height="271.8"/>
  </clipPath>
 </defs>
</svg>
