<?xml version="1.0" encoding="utf-8" standalone="no"?>
<!DOCTYPE svg PUBLIC "-//W3C//DTD SVG 1.1//EN"
  "http://www.w3.org/Graphics/SVG/1.1/DTD/svg11.dtd">
<!-- Created with matplotlib (https://matplotlib.org/) -->
<svg height="335.17pt" version="1.1" viewBox="0 0 421.276818 335.17" width="421.276818pt" xmlns="http://www.w3.org/2000/svg" xmlns:xlink="http://www.w3.org/1999/xlink">
 <defs>
  <style type="text/css">
*{stroke-linecap:butt;stroke-linejoin:round;}
  </style>
 </defs>
 <g id="figure_1">
  <g id="patch_1">
   <path d="M 0 335.17 
L 421.276818 335.17 
L 421.276818 0 
L 0 0 
z
" style="fill:#ffffff;"/>
  </g>
  <g id="axes_1">
   <g id="patch_2">
    <path d="M 79.225 279 
L 414.025 279 
L 414.025 7.2 
L 79.225 7.2 
z
" style="fill:#ffffff;"/>
   </g>
   <g id="matplotlib.axis_1">
    <g id="xtick_1">
     <g id="text_1">
      <!-- 40 -->
      <defs>
       <path d="M 37.796875 64.3125 
L 12.890625 25.390625 
L 37.796875 25.390625 
z
M 35.203125 72.90625 
L 47.609375 72.90625 
L 47.609375 25.390625 
L 58.015625 25.390625 
L 58.015625 17.1875 
L 47.609375 17.1875 
L 47.609375 0 
L 37.796875 0 
L 37.796875 17.1875 
L 4.890625 17.1875 
L 4.890625 26.703125 
z
" id="DejaVuSans-52"/>
       <path d="M 31.78125 66.40625 
Q 24.171875 66.40625 20.328125 58.90625 
Q 16.5 51.421875 16.5 36.375 
Q 16.5 21.390625 20.328125 13.890625 
Q 24.171875 6.390625 31.78125 6.390625 
Q 39.453125 6.390625 43.28125 13.890625 
Q 47.125 21.390625 47.125 36.375 
Q 47.125 51.421875 43.28125 58.90625 
Q 39.453125 66.40625 31.78125 66.40625 
z
M 31.78125 74.21875 
Q 44.046875 74.21875 50.515625 64.515625 
Q 56.984375 54.828125 56.984375 36.375 
Q 56.984375 17.96875 50.515625 8.265625 
Q 44.046875 -1.421875 31.78125 -1.421875 
Q 19.53125 -1.421875 13.0625 8.265625 
Q 6.59375 17.96875 6.59375 36.375 
Q 6.59375 54.828125 13.0625 64.515625 
Q 19.53125 74.21875 31.78125 74.21875 
z
" id="DejaVuSans-48"/>
      </defs>
      <g transform="translate(84.263182 301.1575)scale(0.16 -0.16)">
       <use xlink:href="#DejaVuSans-52"/>
       <use x="63.623047" xlink:href="#DejaVuSans-48"/>
      </g>
     </g>
    </g>
    <g id="xtick_2">
     <g id="text_2">
      <!-- 60 -->
      <defs>
       <path d="M 33.015625 40.375 
Q 26.375 40.375 22.484375 35.828125 
Q 18.609375 31.296875 18.609375 23.390625 
Q 18.609375 15.53125 22.484375 10.953125 
Q 26.375 6.390625 33.015625 6.390625 
Q 39.65625 6.390625 43.53125 10.953125 
Q 47.40625 15.53125 47.40625 23.390625 
Q 47.40625 31.296875 43.53125 35.828125 
Q 39.65625 40.375 33.015625 40.375 
z
M 52.59375 71.296875 
L 52.59375 62.3125 
Q 48.875 64.0625 45.09375 64.984375 
Q 41.3125 65.921875 37.59375 65.921875 
Q 27.828125 65.921875 22.671875 59.328125 
Q 17.53125 52.734375 16.796875 39.40625 
Q 19.671875 43.65625 24.015625 45.921875 
Q 28.375 48.1875 33.59375 48.1875 
Q 44.578125 48.1875 50.953125 41.515625 
Q 57.328125 34.859375 57.328125 23.390625 
Q 57.328125 12.15625 50.6875 5.359375 
Q 44.046875 -1.421875 33.015625 -1.421875 
Q 20.359375 -1.421875 13.671875 8.265625 
Q 6.984375 17.96875 6.984375 36.375 
Q 6.984375 53.65625 15.1875 63.9375 
Q 23.390625 74.21875 37.203125 74.21875 
Q 40.921875 74.21875 44.703125 73.484375 
Q 48.484375 72.75 52.59375 71.296875 
z
" id="DejaVuSans-54"/>
      </defs>
      <g transform="translate(185.717727 301.1575)scale(0.16 -0.16)">
       <use xlink:href="#DejaVuSans-54"/>
       <use x="63.623047" xlink:href="#DejaVuSans-48"/>
      </g>
     </g>
    </g>
    <g id="xtick_3">
     <g id="text_3">
      <!-- 80 -->
      <defs>
       <path d="M 31.78125 34.625 
Q 24.75 34.625 20.71875 30.859375 
Q 16.703125 27.09375 16.703125 20.515625 
Q 16.703125 13.921875 20.71875 10.15625 
Q 24.75 6.390625 31.78125 6.390625 
Q 38.8125 6.390625 42.859375 10.171875 
Q 46.921875 13.96875 46.921875 20.515625 
Q 46.921875 27.09375 42.890625 30.859375 
Q 38.875 34.625 31.78125 34.625 
z
M 21.921875 38.8125 
Q 15.578125 40.375 12.03125 44.71875 
Q 8.5 49.078125 8.5 55.328125 
Q 8.5 64.0625 14.71875 69.140625 
Q 20.953125 74.21875 31.78125 74.21875 
Q 42.671875 74.21875 48.875 69.140625 
Q 55.078125 64.0625 55.078125 55.328125 
Q 55.078125 49.078125 51.53125 44.71875 
Q 48 40.375 41.703125 38.8125 
Q 48.828125 37.15625 52.796875 32.3125 
Q 56.78125 27.484375 56.78125 20.515625 
Q 56.78125 9.90625 50.3125 4.234375 
Q 43.84375 -1.421875 31.78125 -1.421875 
Q 19.734375 -1.421875 13.25 4.234375 
Q 6.78125 9.90625 6.78125 20.515625 
Q 6.78125 27.484375 10.78125 32.3125 
Q 14.796875 37.15625 21.921875 38.8125 
z
M 18.3125 54.390625 
Q 18.3125 48.734375 21.84375 45.5625 
Q 25.390625 42.390625 31.78125 42.390625 
Q 38.140625 42.390625 41.71875 45.5625 
Q 45.3125 48.734375 45.3125 54.390625 
Q 45.3125 60.0625 41.71875 63.234375 
Q 38.140625 66.40625 31.78125 66.40625 
Q 25.390625 66.40625 21.84375 63.234375 
Q 18.3125 60.0625 18.3125 54.390625 
z
" id="DejaVuSans-56"/>
      </defs>
      <g transform="translate(287.172273 301.1575)scale(0.16 -0.16)">
       <use xlink:href="#DejaVuSans-56"/>
       <use x="63.623047" xlink:href="#DejaVuSans-48"/>
      </g>
     </g>
    </g>
    <g id="xtick_4">
     <g id="text_4">
      <!-- 100 -->
      <defs>
       <path d="M 12.40625 8.296875 
L 28.515625 8.296875 
L 28.515625 63.921875 
L 10.984375 60.40625 
L 10.984375 69.390625 
L 28.421875 72.90625 
L 38.28125 72.90625 
L 38.28125 8.296875 
L 54.390625 8.296875 
L 54.390625 0 
L 12.40625 0 
z
" id="DejaVuSans-49"/>
      </defs>
      <g transform="translate(383.536818 301.1575)scale(0.16 -0.16)">
       <use xlink:href="#DejaVuSans-49"/>
       <use x="63.623047" xlink:href="#DejaVuSans-48"/>
       <use x="127.246094" xlink:href="#DejaVuSans-48"/>
      </g>
     </g>
    </g>
    <g id="text_5">
     <!-- Layer Width -->
     <defs>
      <path d="M 9.8125 72.90625 
L 19.671875 72.90625 
L 19.671875 8.296875 
L 55.171875 8.296875 
L 55.171875 0 
L 9.8125 0 
z
" id="DejaVuSans-76"/>
      <path d="M 34.28125 27.484375 
Q 23.390625 27.484375 19.1875 25 
Q 14.984375 22.515625 14.984375 16.5 
Q 14.984375 11.71875 18.140625 8.90625 
Q 21.296875 6.109375 26.703125 6.109375 
Q 34.1875 6.109375 38.703125 11.40625 
Q 43.21875 16.703125 43.21875 25.484375 
L 43.21875 27.484375 
z
M 52.203125 31.203125 
L 52.203125 0 
L 43.21875 0 
L 43.21875 8.296875 
Q 40.140625 3.328125 35.546875 0.953125 
Q 30.953125 -1.421875 24.3125 -1.421875 
Q 15.921875 -1.421875 10.953125 3.296875 
Q 6 8.015625 6 15.921875 
Q 6 25.140625 12.171875 29.828125 
Q 18.359375 34.515625 30.609375 34.515625 
L 43.21875 34.515625 
L 43.21875 35.40625 
Q 43.21875 41.609375 39.140625 45 
Q 35.0625 48.390625 27.6875 48.390625 
Q 23 48.390625 18.546875 47.265625 
Q 14.109375 46.140625 10.015625 43.890625 
L 10.015625 52.203125 
Q 14.9375 54.109375 19.578125 55.046875 
Q 24.21875 56 28.609375 56 
Q 40.484375 56 46.34375 49.84375 
Q 52.203125 43.703125 52.203125 31.203125 
z
" id="DejaVuSans-97"/>
      <path d="M 32.171875 -5.078125 
Q 28.375 -14.84375 24.75 -17.8125 
Q 21.140625 -20.796875 15.09375 -20.796875 
L 7.90625 -20.796875 
L 7.90625 -13.28125 
L 13.1875 -13.28125 
Q 16.890625 -13.28125 18.9375 -11.515625 
Q 21 -9.765625 23.484375 -3.21875 
L 25.09375 0.875 
L 2.984375 54.6875 
L 12.5 54.6875 
L 29.59375 11.921875 
L 46.6875 54.6875 
L 56.203125 54.6875 
z
" id="DejaVuSans-121"/>
      <path d="M 56.203125 29.59375 
L 56.203125 25.203125 
L 14.890625 25.203125 
Q 15.484375 15.921875 20.484375 11.0625 
Q 25.484375 6.203125 34.421875 6.203125 
Q 39.59375 6.203125 44.453125 7.46875 
Q 49.3125 8.734375 54.109375 11.28125 
L 54.109375 2.78125 
Q 49.265625 0.734375 44.1875 -0.34375 
Q 39.109375 -1.421875 33.890625 -1.421875 
Q 20.796875 -1.421875 13.15625 6.1875 
Q 5.515625 13.8125 5.515625 26.8125 
Q 5.515625 40.234375 12.765625 48.109375 
Q 20.015625 56 32.328125 56 
Q 43.359375 56 49.78125 48.890625 
Q 56.203125 41.796875 56.203125 29.59375 
z
M 47.21875 32.234375 
Q 47.125 39.59375 43.09375 43.984375 
Q 39.0625 48.390625 32.421875 48.390625 
Q 24.90625 48.390625 20.390625 44.140625 
Q 15.875 39.890625 15.1875 32.171875 
z
" id="DejaVuSans-101"/>
      <path d="M 41.109375 46.296875 
Q 39.59375 47.171875 37.8125 47.578125 
Q 36.03125 48 33.890625 48 
Q 26.265625 48 22.1875 43.046875 
Q 18.109375 38.09375 18.109375 28.8125 
L 18.109375 0 
L 9.078125 0 
L 9.078125 54.6875 
L 18.109375 54.6875 
L 18.109375 46.1875 
Q 20.953125 51.171875 25.484375 53.578125 
Q 30.03125 56 36.53125 56 
Q 37.453125 56 38.578125 55.875 
Q 39.703125 55.765625 41.0625 55.515625 
z
" id="DejaVuSans-114"/>
      <path id="DejaVuSans-32"/>
      <path d="M 3.328125 72.90625 
L 13.28125 72.90625 
L 28.609375 11.28125 
L 43.890625 72.90625 
L 54.984375 72.90625 
L 70.3125 11.28125 
L 85.59375 72.90625 
L 95.609375 72.90625 
L 77.296875 0 
L 64.890625 0 
L 49.515625 63.28125 
L 33.984375 0 
L 21.578125 0 
z
" id="DejaVuSans-87"/>
      <path d="M 9.421875 54.6875 
L 18.40625 54.6875 
L 18.40625 0 
L 9.421875 0 
z
M 9.421875 75.984375 
L 18.40625 75.984375 
L 18.40625 64.59375 
L 9.421875 64.59375 
z
" id="DejaVuSans-105"/>
      <path d="M 45.40625 46.390625 
L 45.40625 75.984375 
L 54.390625 75.984375 
L 54.390625 0 
L 45.40625 0 
L 45.40625 8.203125 
Q 42.578125 3.328125 38.25 0.953125 
Q 33.9375 -1.421875 27.875 -1.421875 
Q 17.96875 -1.421875 11.734375 6.484375 
Q 5.515625 14.40625 5.515625 27.296875 
Q 5.515625 40.1875 11.734375 48.09375 
Q 17.96875 56 27.875 56 
Q 33.9375 56 38.25 53.625 
Q 42.578125 51.265625 45.40625 46.390625 
z
M 14.796875 27.296875 
Q 14.796875 17.390625 18.875 11.75 
Q 22.953125 6.109375 30.078125 6.109375 
Q 37.203125 6.109375 41.296875 11.75 
Q 45.40625 17.390625 45.40625 27.296875 
Q 45.40625 37.203125 41.296875 42.84375 
Q 37.203125 48.484375 30.078125 48.484375 
Q 22.953125 48.484375 18.875 42.84375 
Q 14.796875 37.203125 14.796875 27.296875 
z
" id="DejaVuSans-100"/>
      <path d="M 18.3125 70.21875 
L 18.3125 54.6875 
L 36.8125 54.6875 
L 36.8125 47.703125 
L 18.3125 47.703125 
L 18.3125 18.015625 
Q 18.3125 11.328125 20.140625 9.421875 
Q 21.96875 7.515625 27.59375 7.515625 
L 36.8125 7.515625 
L 36.8125 0 
L 27.59375 0 
Q 17.1875 0 13.234375 3.875 
Q 9.28125 7.765625 9.28125 18.015625 
L 9.28125 47.703125 
L 2.6875 47.703125 
L 2.6875 54.6875 
L 9.28125 54.6875 
L 9.28125 70.21875 
z
" id="DejaVuSans-116"/>
      <path d="M 54.890625 33.015625 
L 54.890625 0 
L 45.90625 0 
L 45.90625 32.71875 
Q 45.90625 40.484375 42.875 44.328125 
Q 39.84375 48.1875 33.796875 48.1875 
Q 26.515625 48.1875 22.3125 43.546875 
Q 18.109375 38.921875 18.109375 30.90625 
L 18.109375 0 
L 9.078125 0 
L 9.078125 75.984375 
L 18.109375 75.984375 
L 18.109375 46.1875 
Q 21.34375 51.125 25.703125 53.5625 
Q 30.078125 56 35.796875 56 
Q 45.21875 56 50.046875 50.171875 
Q 54.890625 44.34375 54.890625 33.015625 
z
" id="DejaVuSans-104"/>
     </defs>
     <g style="fill:#262626;" transform="translate(198.53875 324.6425)scale(0.16 -0.16)">
      <use xlink:href="#DejaVuSans-76"/>
      <use x="55.712891" xlink:href="#DejaVuSans-97"/>
      <use x="116.992188" xlink:href="#DejaVuSans-121"/>
      <use x="176.171875" xlink:href="#DejaVuSans-101"/>
      <use x="237.695312" xlink:href="#DejaVuSans-114"/>
      <use x="278.808594" xlink:href="#DejaVuSans-32"/>
      <use x="310.595703" xlink:href="#DejaVuSans-87"/>
      <use x="407.222656" xlink:href="#DejaVuSans-105"/>
      <use x="435.005859" xlink:href="#DejaVuSans-100"/>
      <use x="498.482422" xlink:href="#DejaVuSans-116"/>
      <use x="537.691406" xlink:href="#DejaVuSans-104"/>
     </g>
    </g>
   </g>
   <g id="matplotlib.axis_2">
    <g id="ytick_1">
     <g id="text_6">
      <!-- 0.05 -->
      <defs>
       <path d="M 10.6875 12.40625 
L 21 12.40625 
L 21 0 
L 10.6875 0 
z
" id="DejaVuSans-46"/>
       <path d="M 10.796875 72.90625 
L 49.515625 72.90625 
L 49.515625 64.59375 
L 19.828125 64.59375 
L 19.828125 46.734375 
Q 21.96875 47.46875 24.109375 47.828125 
Q 26.265625 48.1875 28.421875 48.1875 
Q 40.625 48.1875 47.75 41.5 
Q 54.890625 34.8125 54.890625 23.390625 
Q 54.890625 11.625 47.5625 5.09375 
Q 40.234375 -1.421875 26.90625 -1.421875 
Q 22.3125 -1.421875 17.546875 -0.640625 
Q 12.796875 0.140625 7.71875 1.703125 
L 7.71875 11.625 
Q 12.109375 9.234375 16.796875 8.0625 
Q 21.484375 6.890625 26.703125 6.890625 
Q 35.15625 6.890625 40.078125 11.328125 
Q 45.015625 15.765625 45.015625 23.390625 
Q 45.015625 31 40.078125 35.4375 
Q 35.15625 39.890625 26.703125 39.890625 
Q 22.75 39.890625 18.8125 39.015625 
Q 14.890625 38.140625 10.796875 36.28125 
z
" id="DejaVuSans-53"/>
      </defs>
      <g transform="translate(33.6 278.934906)scale(0.16 -0.16)">
       <use xlink:href="#DejaVuSans-48"/>
       <use x="63.623047" xlink:href="#DejaVuSans-46"/>
       <use x="95.410156" xlink:href="#DejaVuSans-48"/>
       <use x="159.033203" xlink:href="#DejaVuSans-53"/>
      </g>
     </g>
    </g>
    <g id="ytick_2">
     <g id="text_7">
      <!-- 0.10 -->
      <g transform="translate(33.6 231.201773)scale(0.16 -0.16)">
       <use xlink:href="#DejaVuSans-48"/>
       <use x="63.623047" xlink:href="#DejaVuSans-46"/>
       <use x="95.410156" xlink:href="#DejaVuSans-49"/>
       <use x="159.033203" xlink:href="#DejaVuSans-48"/>
      </g>
     </g>
    </g>
    <g id="ytick_3">
     <g id="text_8">
      <!-- 0.15 -->
      <g transform="translate(33.6 183.468639)scale(0.16 -0.16)">
       <use xlink:href="#DejaVuSans-48"/>
       <use x="63.623047" xlink:href="#DejaVuSans-46"/>
       <use x="95.410156" xlink:href="#DejaVuSans-49"/>
       <use x="159.033203" xlink:href="#DejaVuSans-53"/>
      </g>
     </g>
    </g>
    <g id="ytick_4">
     <g id="text_9">
      <!-- 0.20 -->
      <defs>
       <path d="M 19.1875 8.296875 
L 53.609375 8.296875 
L 53.609375 0 
L 7.328125 0 
L 7.328125 8.296875 
Q 12.9375 14.109375 22.625 23.890625 
Q 32.328125 33.6875 34.8125 36.53125 
Q 39.546875 41.84375 41.421875 45.53125 
Q 43.3125 49.21875 43.3125 52.78125 
Q 43.3125 58.59375 39.234375 62.25 
Q 35.15625 65.921875 28.609375 65.921875 
Q 23.96875 65.921875 18.8125 64.3125 
Q 13.671875 62.703125 7.8125 59.421875 
L 7.8125 69.390625 
Q 13.765625 71.78125 18.9375 73 
Q 24.125 74.21875 28.421875 74.21875 
Q 39.75 74.21875 46.484375 68.546875 
Q 53.21875 62.890625 53.21875 53.421875 
Q 53.21875 48.921875 51.53125 44.890625 
Q 49.859375 40.875 45.40625 35.40625 
Q 44.1875 33.984375 37.640625 27.21875 
Q 31.109375 20.453125 19.1875 8.296875 
z
" id="DejaVuSans-50"/>
      </defs>
      <g transform="translate(33.6 135.735506)scale(0.16 -0.16)">
       <use xlink:href="#DejaVuSans-48"/>
       <use x="63.623047" xlink:href="#DejaVuSans-46"/>
       <use x="95.410156" xlink:href="#DejaVuSans-50"/>
       <use x="159.033203" xlink:href="#DejaVuSans-48"/>
      </g>
     </g>
    </g>
    <g id="ytick_5">
     <g id="text_10">
      <!-- 0.25 -->
      <g transform="translate(33.6 88.002372)scale(0.16 -0.16)">
       <use xlink:href="#DejaVuSans-48"/>
       <use x="63.623047" xlink:href="#DejaVuSans-46"/>
       <use x="95.410156" xlink:href="#DejaVuSans-50"/>
       <use x="159.033203" xlink:href="#DejaVuSans-53"/>
      </g>
     </g>
    </g>
    <g id="ytick_6">
     <g id="text_11">
      <!-- 0.30 -->
      <defs>
       <path d="M 40.578125 39.3125 
Q 47.65625 37.796875 51.625 33 
Q 55.609375 28.21875 55.609375 21.1875 
Q 55.609375 10.40625 48.1875 4.484375 
Q 40.765625 -1.421875 27.09375 -1.421875 
Q 22.515625 -1.421875 17.65625 -0.515625 
Q 12.796875 0.390625 7.625 2.203125 
L 7.625 11.71875 
Q 11.71875 9.328125 16.59375 8.109375 
Q 21.484375 6.890625 26.8125 6.890625 
Q 36.078125 6.890625 40.9375 10.546875 
Q 45.796875 14.203125 45.796875 21.1875 
Q 45.796875 27.640625 41.28125 31.265625 
Q 36.765625 34.90625 28.71875 34.90625 
L 20.21875 34.90625 
L 20.21875 43.015625 
L 29.109375 43.015625 
Q 36.375 43.015625 40.234375 45.921875 
Q 44.09375 48.828125 44.09375 54.296875 
Q 44.09375 59.90625 40.109375 62.90625 
Q 36.140625 65.921875 28.71875 65.921875 
Q 24.65625 65.921875 20.015625 65.03125 
Q 15.375 64.15625 9.8125 62.3125 
L 9.8125 71.09375 
Q 15.4375 72.65625 20.34375 73.4375 
Q 25.25 74.21875 29.59375 74.21875 
Q 40.828125 74.21875 47.359375 69.109375 
Q 53.90625 64.015625 53.90625 55.328125 
Q 53.90625 49.265625 50.4375 45.09375 
Q 46.96875 40.921875 40.578125 39.3125 
z
" id="DejaVuSans-51"/>
      </defs>
      <g transform="translate(33.6 40.269239)scale(0.16 -0.16)">
       <use xlink:href="#DejaVuSans-48"/>
       <use x="63.623047" xlink:href="#DejaVuSans-46"/>
       <use x="95.410156" xlink:href="#DejaVuSans-51"/>
       <use x="159.033203" xlink:href="#DejaVuSans-48"/>
      </g>
     </g>
    </g>
    <g id="text_12">
     <!-- Var $||z||^2$ -->
     <defs>
      <path d="M 28.609375 0 
L 0.78125 72.90625 
L 11.078125 72.90625 
L 34.1875 11.53125 
L 57.328125 72.90625 
L 67.578125 72.90625 
L 39.796875 0 
z
" id="DejaVuSans-86"/>
      <path d="M 21 76.421875 
L 21 -23.578125 
L 12.703125 -23.578125 
L 12.703125 76.421875 
z
" id="DejaVuSans-124"/>
      <path d="M 11.625 54.6875 
L 54.296875 54.6875 
L 52.6875 46.484375 
L 11.53125 7.171875 
L 45.515625 7.171875 
L 44.09375 0 
L -0.296875 0 
L 1.3125 8.203125 
L 42.484375 47.515625 
L 10.203125 47.515625 
z
" id="DejaVuSans-Oblique-122"/>
     </defs>
     <g style="fill:#262626;" transform="translate(21.76 178.22)rotate(-90)scale(0.16 -0.16)">
      <use transform="translate(0 0.765625)" xlink:href="#DejaVuSans-86"/>
      <use transform="translate(68.408203 0.765625)" xlink:href="#DejaVuSans-97"/>
      <use transform="translate(129.6875 0.765625)" xlink:href="#DejaVuSans-114"/>
      <use transform="translate(170.800781 0.765625)" xlink:href="#DejaVuSans-32"/>
      <use transform="translate(202.587891 0.765625)" xlink:href="#DejaVuSans-124"/>
      <use transform="translate(236.279297 0.765625)" xlink:href="#DejaVuSans-124"/>
      <use transform="translate(269.970703 0.765625)" xlink:href="#DejaVuSans-Oblique-122"/>
      <use transform="translate(322.460938 0.765625)" xlink:href="#DejaVuSans-124"/>
      <use transform="translate(356.152344 0.765625)" xlink:href="#DejaVuSans-124"/>
      <use transform="translate(390.800781 39.046875)scale(0.7)" xlink:href="#DejaVuSans-50"/>
     </g>
    </g>
   </g>
   <g id="line2d_1">
    <defs>
     <path d="M 0 5 
C 1.326016 5 2.597899 4.473168 3.535534 3.535534 
C 4.473168 2.597899 5 1.326016 5 0 
C 5 -1.326016 4.473168 -2.597899 3.535534 -3.535534 
C 2.597899 -4.473168 1.326016 -5 0 -5 
C -1.326016 -5 -2.597899 -4.473168 -3.535534 -3.535534 
C -4.473168 -2.597899 -5 -1.326016 -5 0 
C -5 1.326016 -4.473168 2.597899 -3.535534 3.535534 
C -2.597899 4.473168 -1.326016 5 0 5 
z
" id="m33b0aedc39" style="stroke:#45b6fe;"/>
    </defs>
    <g clip-path="url(#p08530ead1a)">
     <use style="fill:#45b6fe;stroke:#45b6fe;" x="94.443182" xlink:href="#m33b0aedc39" y="22.217308"/>
     <use style="fill:#45b6fe;stroke:#45b6fe;" x="195.897727" xlink:href="#m33b0aedc39" y="160.534079"/>
     <use style="fill:#45b6fe;stroke:#45b6fe;" x="297.352273" xlink:href="#m33b0aedc39" y="213.993279"/>
     <use style="fill:#45b6fe;stroke:#45b6fe;" x="398.806818" xlink:href="#m33b0aedc39" y="242.107577"/>
    </g>
   </g>
   <g id="line2d_2">
    <defs>
     <path d="M 0 4.5 
C 1.193414 4.5 2.338109 4.025852 3.181981 3.181981 
C 4.025852 2.338109 4.5 1.193414 4.5 0 
C 4.5 -1.193414 4.025852 -2.338109 3.181981 -3.181981 
C 2.338109 -4.025852 1.193414 -4.5 0 -4.5 
C -1.193414 -4.5 -2.338109 -4.025852 -3.181981 -3.181981 
C -4.025852 -2.338109 -4.5 -1.193414 -4.5 0 
C -4.5 1.193414 -4.025852 2.338109 -3.181981 3.181981 
C -2.338109 4.025852 -1.193414 4.5 0 4.5 
z
" id="m24d9e49cdc" style="stroke:#45b6fe;"/>
    </defs>
    <g clip-path="url(#p08530ead1a)">
     <use style="fill-opacity:0;stroke:#45b6fe;" x="94.443182" xlink:href="#m24d9e49cdc" y="38.916598"/>
     <use style="fill-opacity:0;stroke:#45b6fe;" x="195.897727" xlink:href="#m24d9e49cdc" y="168.239667"/>
     <use style="fill-opacity:0;stroke:#45b6fe;" x="297.352273" xlink:href="#m24d9e49cdc" y="218.893207"/>
     <use style="fill-opacity:0;stroke:#45b6fe;" x="398.806818" xlink:href="#m24d9e49cdc" y="246.297162"/>
    </g>
   </g>
   <g id="line2d_3">
    <defs>
     <path d="M 0 5 
C 1.326016 5 2.597899 4.473168 3.535534 3.535534 
C 4.473168 2.597899 5 1.326016 5 0 
C 5 -1.326016 4.473168 -2.597899 3.535534 -3.535534 
C 2.597899 -4.473168 1.326016 -5 0 -5 
C -1.326016 -5 -2.597899 -4.473168 -3.535534 -3.535534 
C -4.473168 -2.597899 -5 -1.326016 -5 0 
C -5 1.326016 -4.473168 2.597899 -3.535534 3.535534 
C -2.597899 4.473168 -1.326016 5 0 5 
z
" id="mb42ed4be4c" style="stroke:#ffab40;"/>
    </defs>
    <g clip-path="url(#p08530ead1a)">
     <use style="fill:#ffab40;stroke:#ffab40;" x="94.443182" xlink:href="#mb42ed4be4c" y="116.500184"/>
     <use style="fill:#ffab40;stroke:#ffab40;" x="195.897727" xlink:href="#mb42ed4be4c" y="201.993417"/>
     <use style="fill:#ffab40;stroke:#ffab40;" x="297.352273" xlink:href="#mb42ed4be4c" y="239.156803"/>
     <use style="fill:#ffab40;stroke:#ffab40;" x="398.806818" xlink:href="#mb42ed4be4c" y="258.022187"/>
    </g>
   </g>
   <g id="line2d_4">
    <defs>
     <path d="M 0 4.5 
C 1.193414 4.5 2.338109 4.025852 3.181981 3.181981 
C 4.025852 2.338109 4.5 1.193414 4.5 0 
C 4.5 -1.193414 4.025852 -2.338109 3.181981 -3.181981 
C 2.338109 -4.025852 1.193414 -4.5 0 -4.5 
C -1.193414 -4.5 -2.338109 -4.025852 -3.181981 -3.181981 
C -4.025852 -2.338109 -4.5 -1.193414 -4.5 0 
C -4.5 1.193414 -4.025852 2.338109 -3.181981 3.181981 
C -2.338109 4.025852 -1.193414 4.5 0 4.5 
z
" id="m69f7418a64" style="stroke:#ffab40;"/>
    </defs>
    <g clip-path="url(#p08530ead1a)">
     <use style="fill-opacity:0;stroke:#ffab40;" x="94.443182" xlink:href="#m69f7418a64" y="125.074921"/>
     <use style="fill-opacity:0;stroke:#ffab40;" x="195.897727" xlink:href="#m69f7418a64" y="206.995764"/>
     <use style="fill-opacity:0;stroke:#ffab40;" x="297.352273" xlink:href="#m69f7418a64" y="241.827944"/>
     <use style="fill-opacity:0;stroke:#ffab40;" x="398.806818" xlink:href="#m69f7418a64" y="259.565287"/>
    </g>
   </g>
   <g id="line2d_5">
    <defs>
     <path d="M 0 5 
C 1.326016 5 2.597899 4.473168 3.535534 3.535534 
C 4.473168 2.597899 5 1.326016 5 0 
C 5 -1.326016 4.473168 -2.597899 3.535534 -3.535534 
C 2.597899 -4.473168 1.326016 -5 0 -5 
C -1.326016 -5 -2.597899 -4.473168 -3.535534 -3.535534 
C -4.473168 -2.597899 -5 -1.326016 -5 0 
C -5 1.326016 -4.473168 2.597899 -3.535534 3.535534 
C -2.597899 4.473168 -1.326016 5 0 5 
z
" id="m5b95a2bfca" style="stroke:#9c0534;"/>
    </defs>
    <g clip-path="url(#p08530ead1a)">
     <use style="fill:#9c0534;stroke:#9c0534;" x="94.443182" xlink:href="#m5b95a2bfca" y="163.845681"/>
     <use style="fill:#9c0534;stroke:#9c0534;" x="195.897727" xlink:href="#m5b95a2bfca" y="225.180395"/>
     <use style="fill:#9c0534;stroke:#9c0534;" x="297.352273" xlink:href="#m5b95a2bfca" y="250.111362"/>
     <use style="fill:#9c0534;stroke:#9c0534;" x="398.806818" xlink:href="#m5b95a2bfca" y="265.465661"/>
    </g>
   </g>
   <g id="line2d_6">
    <defs>
     <path d="M 0 4.5 
C 1.193414 4.5 2.338109 4.025852 3.181981 3.181981 
C 4.025852 2.338109 4.5 1.193414 4.5 0 
C 4.5 -1.193414 4.025852 -2.338109 3.181981 -3.181981 
C 2.338109 -4.025852 1.193414 -4.5 0 -4.5 
C -1.193414 -4.5 -2.338109 -4.025852 -3.181981 -3.181981 
C -4.025852 -2.338109 -4.5 -1.193414 -4.5 0 
C -4.5 1.193414 -4.025852 2.338109 -3.181981 3.181981 
C -2.338109 4.025852 -1.193414 4.5 0 4.5 
z
" id="m2cf90e2787" style="stroke:#9c0534;"/>
    </defs>
    <g clip-path="url(#p08530ead1a)">
     <use style="fill-opacity:0;stroke:#9c0534;" x="94.443182" xlink:href="#m2cf90e2787" y="167.881644"/>
     <use style="fill-opacity:0;stroke:#9c0534;" x="195.897727" xlink:href="#m2cf90e2787" y="226.534236"/>
     <use style="fill-opacity:0;stroke:#9c0534;" x="297.352273" xlink:href="#m2cf90e2787" y="251.85659"/>
     <use style="fill-opacity:0;stroke:#9c0534;" x="398.806818" xlink:href="#m2cf90e2787" y="266.401994"/>
    </g>
   </g>
   <g id="line2d_7">
    <path clip-path="url(#p08530ead1a)" d="M 94.443182 39.304753 
L 99.515909 49.839809 
L 104.588636 59.710151 
L 109.661364 68.972772 
L 114.734091 77.678581 
L 119.806818 85.873172 
L 124.879545 93.597486 
L 129.952273 100.888371 
L 135.025 107.77907 
L 140.097727 114.299637 
L 145.170455 120.477307 
L 150.243182 126.336804 
L 155.315909 131.900621 
L 160.388636 137.189257 
L 165.461364 142.22143 
L 170.534091 147.014259 
L 175.606818 151.583429 
L 180.679545 155.943334 
L 185.752273 160.107203 
L 190.825 164.087213 
L 195.897727 167.894589 
L 200.970455 171.539693 
L 206.043182 175.032103 
L 211.115909 178.380687 
L 216.188636 181.59366 
L 221.261364 184.678646 
L 226.334091 187.642728 
L 231.406818 190.492495 
L 236.479545 193.234081 
L 241.552273 195.873203 
L 246.625 198.415198 
L 251.697727 200.86505 
L 256.770455 203.227419 
L 261.843182 205.506667 
L 266.915909 207.706879 
L 271.988636 209.831889 
L 277.061364 211.885291 
L 282.134091 213.870464 
L 287.206818 215.790583 
L 292.279545 217.648636 
L 297.352273 219.447437 
L 302.425 221.189637 
L 307.497727 222.877736 
L 312.570455 224.514096 
L 317.643182 226.100944 
L 322.715909 227.640389 
L 327.788636 229.134422 
L 332.861364 230.584931 
L 337.934091 231.993701 
L 343.006818 233.362425 
L 348.079545 234.692709 
L 353.152273 235.986076 
L 358.225 237.243971 
L 363.297727 238.46777 
L 368.370455 239.658778 
L 373.443182 240.818237 
L 378.515909 241.947329 
L 383.588636 243.04718 
L 388.661364 244.118862 
L 393.734091 245.163396 
" style="fill:none;stroke:#45b6fe;stroke-dasharray:12.95,5.6;stroke-dashoffset:0;stroke-width:3.5;"/>
   </g>
   <g id="line2d_8">
    <path clip-path="url(#p08530ead1a)" d="M 94.443182 19.554545 
L 99.515909 30.977595 
L 104.588636 41.677474 
L 109.661364 51.716185 
L 114.734091 61.149123 
L 119.806818 70.025909 
L 124.879545 78.391105 
L 129.952273 86.284824 
L 135.025 93.743255 
L 140.097727 100.799126 
L 145.170455 107.482087 
L 150.243182 113.819065 
L 155.315909 119.834553 
L 160.388636 125.550875 
L 165.461364 130.988416 
L 170.534091 136.165819 
L 175.606818 141.100167 
L 180.679545 145.807134 
L 185.752273 150.301127 
L 190.825 154.595406 
L 195.897727 158.702195 
L 200.970455 162.632777 
L 206.043182 166.397582 
L 211.115909 170.006261 
L 216.188636 173.467761 
L 221.261364 176.790381 
L 226.334091 179.981831 
L 231.406818 183.049282 
L 236.479545 185.99941 
L 241.552273 188.838436 
L 246.625 191.572168 
L 251.697727 194.206029 
L 256.770455 196.745087 
L 261.843182 199.194088 
L 266.915909 201.557476 
L 271.988636 203.839418 
L 277.061364 206.043824 
L 282.134091 208.174367 
L 287.206818 210.234499 
L 292.279545 212.227468 
L 297.352273 214.156332 
L 302.425 216.023972 
L 307.497727 217.833105 
L 312.570455 219.586295 
L 317.643182 221.285964 
L 322.715909 222.9344 
L 327.788636 224.533768 
L 332.861364 226.086114 
L 337.934091 227.593379 
L 343.006818 229.0574 
L 348.079545 230.479918 
L 353.152273 231.862588 
L 358.225 233.206979 
L 363.297727 234.51458 
L 368.370455 235.786808 
L 373.443182 237.025011 
L 378.515909 238.23047 
L 383.588636 239.404405 
L 388.661364 240.547978 
L 393.734091 241.662298 
" style="fill:none;stroke:#45b6fe;stroke-linecap:square;stroke-width:3.5;"/>
   </g>
   <g id="line2d_9">
    <path clip-path="url(#p08530ead1a)" d="M 94.443182 124.542492 
L 99.515909 131.064653 
L 104.588636 137.199004 
L 109.661364 142.97763 
L 114.734091 148.429273 
L 119.806818 153.579745 
L 124.879545 158.452287 
L 129.952273 163.067877 
L 135.025 167.445486 
L 140.097727 171.602318 
L 145.170455 175.554 
L 150.243182 179.314755 
L 155.315909 182.897559 
L 160.388636 186.314266 
L 165.461364 189.575729 
L 170.534091 192.691899 
L 175.606818 195.671915 
L 180.679545 198.524185 
L 185.752273 201.256456 
L 190.825 203.875876 
L 195.897727 206.389051 
L 200.970455 208.802092 
L 206.043182 211.120662 
L 211.115909 213.350016 
L 216.188636 215.495033 
L 221.261364 217.560253 
L 226.334091 219.549903 
L 231.406818 221.467922 
L 236.479545 223.317988 
L 241.552273 225.103536 
L 246.625 226.827778 
L 251.697727 228.493721 
L 256.770455 230.104183 
L 261.843182 231.661808 
L 266.915909 233.169077 
L 271.988636 234.628322 
L 277.061364 236.041736 
L 282.134091 237.411382 
L 287.206818 238.739205 
L 292.279545 240.027039 
L 297.352273 241.276614 
L 302.425 242.489562 
L 307.497727 243.667428 
L 312.570455 244.811672 
L 317.643182 245.923674 
L 322.715909 247.004743 
L 327.788636 248.056119 
L 332.861364 249.078977 
L 337.934091 250.074433 
L 343.006818 251.043546 
L 348.079545 251.987323 
L 353.152273 252.906718 
L 358.225 253.802644 
L 363.297727 254.675965 
L 368.370455 255.527505 
L 373.443182 256.358052 
L 378.515909 257.168353 
L 383.588636 257.959124 
L 388.661364 258.731045 
L 393.734091 259.484768 
" style="fill:none;stroke:#ffab40;stroke-dasharray:12.95,5.6;stroke-dashoffset:0;stroke-width:3.5;"/>
   </g>
   <g id="line2d_10">
    <path clip-path="url(#p08530ead1a)" d="M 94.443182 115.18713 
L 99.515909 122.12992 
L 104.588636 128.65721 
L 109.661364 134.803457 
L 114.734091 140.599529 
L 119.806818 146.073146 
L 124.879545 151.249265 
L 129.952273 156.150407 
L 135.025 160.796943 
L 140.097727 165.207339 
L 145.170455 169.398369 
L 150.243182 173.3853 
L 155.315909 177.182053 
L 160.388636 180.801348 
L 165.461364 184.254828 
L 170.534091 187.553164 
L 175.606818 190.706159 
L 180.679545 193.722827 
L 185.752273 196.611473 
L 190.825 199.379757 
L 195.897727 202.034759 
L 200.970455 204.583027 
L 206.043182 207.030625 
L 211.115909 209.383182 
L 216.188636 211.645923 
L 221.261364 213.823707 
L 226.334091 215.921057 
L 231.406818 217.94219 
L 236.479545 219.891039 
L 241.552273 221.771278 
L 246.625 223.586342 
L 251.697727 225.339447 
L 256.770455 227.033605 
L 261.843182 228.671639 
L 266.915909 230.256202 
L 271.988636 231.789783 
L 277.061364 233.274725 
L 282.134091 234.71323 
L 287.206818 236.107376 
L 292.279545 237.459117 
L 297.352273 238.770301 
L 302.425 240.042668 
L 307.497727 241.277866 
L 312.570455 242.47745 
L 317.643182 243.642894 
L 322.715909 244.775591 
L 327.788636 245.876862 
L 332.861364 246.947959 
L 337.934091 247.99007 
L 343.006818 249.004324 
L 348.079545 249.99179 
L 353.152273 250.953488 
L 358.225 251.890384 
L 363.297727 252.803401 
L 368.370455 253.693415 
L 373.443182 254.561261 
L 378.515909 255.407736 
L 383.588636 256.233599 
L 388.661364 257.039574 
L 393.734091 257.826354 
" style="fill:none;stroke:#ffab40;stroke-linecap:square;stroke-width:3.5;"/>
   </g>
   <g id="line2d_11">
    <path clip-path="url(#p08530ead1a)" d="M 94.443182 167.161361 
L 99.515909 171.677075 
L 104.588636 175.943431 
L 109.661364 179.980059 
L 114.734091 183.804619 
L 119.806818 187.433031 
L 124.879545 190.879688 
L 129.952273 194.157629 
L 135.025 197.278695 
L 140.097727 200.253659 
L 145.170455 203.092346 
L 150.243182 205.80373 
L 155.315909 208.396027 
L 160.388636 210.87677 
L 165.461364 213.252878 
L 170.534091 215.530718 
L 175.606818 217.716157 
L 180.679545 219.81461 
L 185.752273 221.831083 
L 190.825 223.770208 
L 195.897727 225.636282 
L 200.970455 227.433292 
L 206.043182 229.164941 
L 211.115909 230.83468 
L 216.188636 232.445719 
L 221.261364 234.001057 
L 226.334091 235.50349 
L 231.406818 236.955636 
L 236.479545 238.359942 
L 241.552273 239.718702 
L 246.625 241.034067 
L 251.697727 242.308056 
L 256.770455 243.542565 
L 261.843182 244.739379 
L 266.915909 245.900176 
L 271.988636 247.026539 
L 277.061364 248.119958 
L 282.134091 249.18184 
L 287.206818 250.213516 
L 292.279545 251.216241 
L 297.352273 252.191202 
L 302.425 253.139525 
L 307.497727 254.062274 
L 312.570455 254.96046 
L 317.643182 255.835039 
L 322.715909 256.68692 
L 327.788636 257.516968 
L 332.861364 258.326001 
L 337.934091 259.1148 
L 343.006818 259.884107 
L 348.079545 260.634629 
L 353.152273 261.36704 
L 358.225 262.08198 
L 363.297727 262.780062 
L 368.370455 263.461869 
L 373.443182 264.12796 
L 378.515909 264.778866 
L 383.588636 265.415096 
L 388.661364 266.037137 
L 393.734091 266.645455 
" style="fill:none;stroke:#9c0534;stroke-dasharray:12.95,5.6;stroke-dashoffset:0;stroke-width:3.5;"/>
   </g>
   <g id="line2d_12">
    <path clip-path="url(#p08530ead1a)" d="M 94.443182 163.003422 
L 99.515909 167.706083 
L 104.588636 172.147078 
L 109.661364 176.347094 
L 114.734091 180.324733 
L 119.806818 184.096765 
L 124.879545 187.678345 
L 129.952273 191.083198 
L 135.025 194.323787 
L 140.097727 197.411446 
L 145.170455 200.35651 
L 150.243182 203.168417 
L 155.315909 205.855802 
L 160.388636 208.426585 
L 165.461364 210.888033 
L 170.534091 213.246836 
L 175.606818 215.509155 
L 180.679545 217.680673 
L 185.752273 219.766645 
L 190.825 221.771933 
L 195.897727 223.701042 
L 200.970455 225.558151 
L 206.043182 227.347147 
L 211.115909 229.071643 
L 216.188636 230.735004 
L 221.261364 232.34037 
L 226.334091 233.89067 
L 231.406818 235.388644 
L 236.479545 236.836854 
L 241.552273 238.237699 
L 246.625 239.593429 
L 251.697727 240.906157 
L 256.770455 242.177864 
L 261.843182 243.410415 
L 266.915909 244.605565 
L 271.988636 245.764966 
L 277.061364 246.890175 
L 282.134091 247.982662 
L 287.206818 249.043814 
L 292.279545 250.074942 
L 297.352273 251.077285 
L 302.425 252.052017 
L 307.497727 253.000247 
L 312.570455 253.923028 
L 317.643182 254.821359 
L 322.715909 255.696186 
L 327.788636 256.548409 
L 332.861364 257.378881 
L 337.934091 258.188416 
L 343.006818 258.977786 
L 348.079545 259.747726 
L 353.152273 260.498937 
L 358.225 261.232087 
L 363.297727 261.947811 
L 368.370455 262.646718 
L 373.443182 263.329386 
L 378.515909 263.996369 
L 383.588636 264.648196 
L 388.661364 265.285372 
L 393.734091 265.908381 
" style="fill:none;stroke:#9c0534;stroke-linecap:square;stroke-width:3.5;"/>
   </g>
   <g id="patch_3">
    <path d="M 79.225 279 
L 79.225 7.2 
" style="fill:none;stroke:#262626;stroke-linecap:square;stroke-linejoin:miter;stroke-width:2;"/>
   </g>
   <g id="patch_4">
    <path d="M 414.025 279 
L 414.025 7.2 
" style="fill:none;stroke:#262626;stroke-linecap:square;stroke-linejoin:miter;stroke-width:2;"/>
   </g>
   <g id="patch_5">
    <path d="M 79.225 279 
L 414.025 279 
" style="fill:none;stroke:#262626;stroke-linecap:square;stroke-linejoin:miter;stroke-width:2;"/>
   </g>
   <g id="patch_6">
    <path d="M 79.225 7.2 
L 414.025 7.2 
" style="fill:none;stroke:#262626;stroke-linecap:square;stroke-linejoin:miter;stroke-width:2;"/>
   </g>
   <g id="legend_1">
    <g id="line2d_13">
     <path d="M 171.93875 19.937812 
L 199.93875 19.937812 
" style="fill:none;stroke:#000000;stroke-linecap:square;stroke-width:2;"/>
    </g>
    <g id="line2d_14"/>
    <g id="text_13">
     <!-- Const-Per-Layer Theory -->
     <defs>
      <path d="M 64.40625 67.28125 
L 64.40625 56.890625 
Q 59.421875 61.53125 53.78125 63.8125 
Q 48.140625 66.109375 41.796875 66.109375 
Q 29.296875 66.109375 22.65625 58.46875 
Q 16.015625 50.828125 16.015625 36.375 
Q 16.015625 21.96875 22.65625 14.328125 
Q 29.296875 6.6875 41.796875 6.6875 
Q 48.140625 6.6875 53.78125 8.984375 
Q 59.421875 11.28125 64.40625 15.921875 
L 64.40625 5.609375 
Q 59.234375 2.09375 53.4375 0.328125 
Q 47.65625 -1.421875 41.21875 -1.421875 
Q 24.65625 -1.421875 15.125 8.703125 
Q 5.609375 18.84375 5.609375 36.375 
Q 5.609375 53.953125 15.125 64.078125 
Q 24.65625 74.21875 41.21875 74.21875 
Q 47.75 74.21875 53.53125 72.484375 
Q 59.328125 70.75 64.40625 67.28125 
z
" id="DejaVuSans-67"/>
      <path d="M 30.609375 48.390625 
Q 23.390625 48.390625 19.1875 42.75 
Q 14.984375 37.109375 14.984375 27.296875 
Q 14.984375 17.484375 19.15625 11.84375 
Q 23.34375 6.203125 30.609375 6.203125 
Q 37.796875 6.203125 41.984375 11.859375 
Q 46.1875 17.53125 46.1875 27.296875 
Q 46.1875 37.015625 41.984375 42.703125 
Q 37.796875 48.390625 30.609375 48.390625 
z
M 30.609375 56 
Q 42.328125 56 49.015625 48.375 
Q 55.71875 40.765625 55.71875 27.296875 
Q 55.71875 13.875 49.015625 6.21875 
Q 42.328125 -1.421875 30.609375 -1.421875 
Q 18.84375 -1.421875 12.171875 6.21875 
Q 5.515625 13.875 5.515625 27.296875 
Q 5.515625 40.765625 12.171875 48.375 
Q 18.84375 56 30.609375 56 
z
" id="DejaVuSans-111"/>
      <path d="M 54.890625 33.015625 
L 54.890625 0 
L 45.90625 0 
L 45.90625 32.71875 
Q 45.90625 40.484375 42.875 44.328125 
Q 39.84375 48.1875 33.796875 48.1875 
Q 26.515625 48.1875 22.3125 43.546875 
Q 18.109375 38.921875 18.109375 30.90625 
L 18.109375 0 
L 9.078125 0 
L 9.078125 54.6875 
L 18.109375 54.6875 
L 18.109375 46.1875 
Q 21.34375 51.125 25.703125 53.5625 
Q 30.078125 56 35.796875 56 
Q 45.21875 56 50.046875 50.171875 
Q 54.890625 44.34375 54.890625 33.015625 
z
" id="DejaVuSans-110"/>
      <path d="M 44.28125 53.078125 
L 44.28125 44.578125 
Q 40.484375 46.53125 36.375 47.5 
Q 32.28125 48.484375 27.875 48.484375 
Q 21.1875 48.484375 17.84375 46.4375 
Q 14.5 44.390625 14.5 40.28125 
Q 14.5 37.15625 16.890625 35.375 
Q 19.28125 33.59375 26.515625 31.984375 
L 29.59375 31.296875 
Q 39.15625 29.25 43.1875 25.515625 
Q 47.21875 21.78125 47.21875 15.09375 
Q 47.21875 7.46875 41.1875 3.015625 
Q 35.15625 -1.421875 24.609375 -1.421875 
Q 20.21875 -1.421875 15.453125 -0.5625 
Q 10.6875 0.296875 5.421875 2 
L 5.421875 11.28125 
Q 10.40625 8.6875 15.234375 7.390625 
Q 20.0625 6.109375 24.8125 6.109375 
Q 31.15625 6.109375 34.5625 8.28125 
Q 37.984375 10.453125 37.984375 14.40625 
Q 37.984375 18.0625 35.515625 20.015625 
Q 33.0625 21.96875 24.703125 23.78125 
L 21.578125 24.515625 
Q 13.234375 26.265625 9.515625 29.90625 
Q 5.8125 33.546875 5.8125 39.890625 
Q 5.8125 47.609375 11.28125 51.796875 
Q 16.75 56 26.8125 56 
Q 31.78125 56 36.171875 55.265625 
Q 40.578125 54.546875 44.28125 53.078125 
z
" id="DejaVuSans-115"/>
      <path d="M 4.890625 31.390625 
L 31.203125 31.390625 
L 31.203125 23.390625 
L 4.890625 23.390625 
z
" id="DejaVuSans-45"/>
      <path d="M 19.671875 64.796875 
L 19.671875 37.40625 
L 32.078125 37.40625 
Q 38.96875 37.40625 42.71875 40.96875 
Q 46.484375 44.53125 46.484375 51.125 
Q 46.484375 57.671875 42.71875 61.234375 
Q 38.96875 64.796875 32.078125 64.796875 
z
M 9.8125 72.90625 
L 32.078125 72.90625 
Q 44.34375 72.90625 50.609375 67.359375 
Q 56.890625 61.8125 56.890625 51.125 
Q 56.890625 40.328125 50.609375 34.8125 
Q 44.34375 29.296875 32.078125 29.296875 
L 19.671875 29.296875 
L 19.671875 0 
L 9.8125 0 
z
" id="DejaVuSans-80"/>
      <path d="M -0.296875 72.90625 
L 61.375 72.90625 
L 61.375 64.59375 
L 35.5 64.59375 
L 35.5 0 
L 25.59375 0 
L 25.59375 64.59375 
L -0.296875 64.59375 
z
" id="DejaVuSans-84"/>
     </defs>
     <g transform="translate(211.13875 24.837812)scale(0.14 -0.14)">
      <use xlink:href="#DejaVuSans-67"/>
      <use x="69.824219" xlink:href="#DejaVuSans-111"/>
      <use x="131.005859" xlink:href="#DejaVuSans-110"/>
      <use x="194.384766" xlink:href="#DejaVuSans-115"/>
      <use x="246.484375" xlink:href="#DejaVuSans-116"/>
      <use x="285.693359" xlink:href="#DejaVuSans-45"/>
      <use x="321.777344" xlink:href="#DejaVuSans-80"/>
      <use x="378.455078" xlink:href="#DejaVuSans-101"/>
      <use x="439.978516" xlink:href="#DejaVuSans-114"/>
      <use x="474.716797" xlink:href="#DejaVuSans-45"/>
      <use x="510.800781" xlink:href="#DejaVuSans-76"/>
      <use x="566.513672" xlink:href="#DejaVuSans-97"/>
      <use x="627.792969" xlink:href="#DejaVuSans-121"/>
      <use x="686.972656" xlink:href="#DejaVuSans-101"/>
      <use x="748.496094" xlink:href="#DejaVuSans-114"/>
      <use x="789.609375" xlink:href="#DejaVuSans-32"/>
      <use x="821.396484" xlink:href="#DejaVuSans-84"/>
      <use x="882.480469" xlink:href="#DejaVuSans-104"/>
      <use x="945.859375" xlink:href="#DejaVuSans-101"/>
      <use x="1007.382812" xlink:href="#DejaVuSans-111"/>
      <use x="1068.564453" xlink:href="#DejaVuSans-114"/>
      <use x="1109.677734" xlink:href="#DejaVuSans-121"/>
     </g>
    </g>
    <g id="line2d_15">
     <path d="M 171.93875 40.487187 
L 199.93875 40.487187 
" style="fill:none;stroke:#000000;stroke-dasharray:7.4,3.2;stroke-dashoffset:0;stroke-width:2;"/>
    </g>
    <g id="line2d_16"/>
    <g id="text_14">
     <!-- Const-Fan-In Theory -->
     <defs>
      <path d="M 9.8125 72.90625 
L 51.703125 72.90625 
L 51.703125 64.59375 
L 19.671875 64.59375 
L 19.671875 43.109375 
L 48.578125 43.109375 
L 48.578125 34.8125 
L 19.671875 34.8125 
L 19.671875 0 
L 9.8125 0 
z
" id="DejaVuSans-70"/>
      <path d="M 9.8125 72.90625 
L 19.671875 72.90625 
L 19.671875 0 
L 9.8125 0 
z
" id="DejaVuSans-73"/>
     </defs>
     <g transform="translate(211.13875 45.387187)scale(0.14 -0.14)">
      <use xlink:href="#DejaVuSans-67"/>
      <use x="69.824219" xlink:href="#DejaVuSans-111"/>
      <use x="131.005859" xlink:href="#DejaVuSans-110"/>
      <use x="194.384766" xlink:href="#DejaVuSans-115"/>
      <use x="246.484375" xlink:href="#DejaVuSans-116"/>
      <use x="285.693359" xlink:href="#DejaVuSans-45"/>
      <use x="321.777344" xlink:href="#DejaVuSans-70"/>
      <use x="370.171875" xlink:href="#DejaVuSans-97"/>
      <use x="431.451172" xlink:href="#DejaVuSans-110"/>
      <use x="494.830078" xlink:href="#DejaVuSans-45"/>
      <use x="530.914062" xlink:href="#DejaVuSans-73"/>
      <use x="560.40625" xlink:href="#DejaVuSans-110"/>
      <use x="623.785156" xlink:href="#DejaVuSans-32"/>
      <use x="655.572266" xlink:href="#DejaVuSans-84"/>
      <use x="716.65625" xlink:href="#DejaVuSans-104"/>
      <use x="780.035156" xlink:href="#DejaVuSans-101"/>
      <use x="841.558594" xlink:href="#DejaVuSans-111"/>
      <use x="902.740234" xlink:href="#DejaVuSans-114"/>
      <use x="943.853516" xlink:href="#DejaVuSans-121"/>
     </g>
    </g>
    <g id="line2d_17">
     <path d="M 171.93875 61.036562 
L 199.93875 61.036562 
" style="fill:none;stroke:#ffffff;stroke-linecap:square;stroke-width:3.5;"/>
    </g>
    <g id="line2d_18">
     <defs>
      <path d="M 0 5 
C 1.326016 5 2.597899 4.473168 3.535534 3.535534 
C 4.473168 2.597899 5 1.326016 5 0 
C 5 -1.326016 4.473168 -2.597899 3.535534 -3.535534 
C 2.597899 -4.473168 1.326016 -5 0 -5 
C -1.326016 -5 -2.597899 -4.473168 -3.535534 -3.535534 
C -4.473168 -2.597899 -5 -1.326016 -5 0 
C -5 1.326016 -4.473168 2.597899 -3.535534 3.535534 
C -2.597899 4.473168 -1.326016 5 0 5 
z
" id="m5e0ef34ed6" style="stroke:#ffffff;"/>
     </defs>
     <g>
      <use style="stroke:#ffffff;" x="185.93875" xlink:href="#m5e0ef34ed6" y="61.036562"/>
     </g>
    </g>
    <g id="text_15">
     <!-- Const-Per-Layer Experiment -->
     <defs>
      <path d="M 9.8125 72.90625 
L 55.90625 72.90625 
L 55.90625 64.59375 
L 19.671875 64.59375 
L 19.671875 43.015625 
L 54.390625 43.015625 
L 54.390625 34.71875 
L 19.671875 34.71875 
L 19.671875 8.296875 
L 56.78125 8.296875 
L 56.78125 0 
L 9.8125 0 
z
" id="DejaVuSans-69"/>
      <path d="M 54.890625 54.6875 
L 35.109375 28.078125 
L 55.90625 0 
L 45.3125 0 
L 29.390625 21.484375 
L 13.484375 0 
L 2.875 0 
L 24.125 28.609375 
L 4.6875 54.6875 
L 15.28125 54.6875 
L 29.78125 35.203125 
L 44.28125 54.6875 
z
" id="DejaVuSans-120"/>
      <path d="M 18.109375 8.203125 
L 18.109375 -20.796875 
L 9.078125 -20.796875 
L 9.078125 54.6875 
L 18.109375 54.6875 
L 18.109375 46.390625 
Q 20.953125 51.265625 25.265625 53.625 
Q 29.59375 56 35.59375 56 
Q 45.5625 56 51.78125 48.09375 
Q 58.015625 40.1875 58.015625 27.296875 
Q 58.015625 14.40625 51.78125 6.484375 
Q 45.5625 -1.421875 35.59375 -1.421875 
Q 29.59375 -1.421875 25.265625 0.953125 
Q 20.953125 3.328125 18.109375 8.203125 
z
M 48.6875 27.296875 
Q 48.6875 37.203125 44.609375 42.84375 
Q 40.53125 48.484375 33.40625 48.484375 
Q 26.265625 48.484375 22.1875 42.84375 
Q 18.109375 37.203125 18.109375 27.296875 
Q 18.109375 17.390625 22.1875 11.75 
Q 26.265625 6.109375 33.40625 6.109375 
Q 40.53125 6.109375 44.609375 11.75 
Q 48.6875 17.390625 48.6875 27.296875 
z
" id="DejaVuSans-112"/>
      <path d="M 52 44.1875 
Q 55.375 50.25 60.0625 53.125 
Q 64.75 56 71.09375 56 
Q 79.640625 56 84.28125 50.015625 
Q 88.921875 44.046875 88.921875 33.015625 
L 88.921875 0 
L 79.890625 0 
L 79.890625 32.71875 
Q 79.890625 40.578125 77.09375 44.375 
Q 74.3125 48.1875 68.609375 48.1875 
Q 61.625 48.1875 57.5625 43.546875 
Q 53.515625 38.921875 53.515625 30.90625 
L 53.515625 0 
L 44.484375 0 
L 44.484375 32.71875 
Q 44.484375 40.625 41.703125 44.40625 
Q 38.921875 48.1875 33.109375 48.1875 
Q 26.21875 48.1875 22.15625 43.53125 
Q 18.109375 38.875 18.109375 30.90625 
L 18.109375 0 
L 9.078125 0 
L 9.078125 54.6875 
L 18.109375 54.6875 
L 18.109375 46.1875 
Q 21.1875 51.21875 25.484375 53.609375 
Q 29.78125 56 35.6875 56 
Q 41.65625 56 45.828125 52.96875 
Q 50 49.953125 52 44.1875 
z
" id="DejaVuSans-109"/>
     </defs>
     <g transform="translate(211.13875 65.936562)scale(0.14 -0.14)">
      <use xlink:href="#DejaVuSans-67"/>
      <use x="69.824219" xlink:href="#DejaVuSans-111"/>
      <use x="131.005859" xlink:href="#DejaVuSans-110"/>
      <use x="194.384766" xlink:href="#DejaVuSans-115"/>
      <use x="246.484375" xlink:href="#DejaVuSans-116"/>
      <use x="285.693359" xlink:href="#DejaVuSans-45"/>
      <use x="321.777344" xlink:href="#DejaVuSans-80"/>
      <use x="378.455078" xlink:href="#DejaVuSans-101"/>
      <use x="439.978516" xlink:href="#DejaVuSans-114"/>
      <use x="474.716797" xlink:href="#DejaVuSans-45"/>
      <use x="510.800781" xlink:href="#DejaVuSans-76"/>
      <use x="566.513672" xlink:href="#DejaVuSans-97"/>
      <use x="627.792969" xlink:href="#DejaVuSans-121"/>
      <use x="686.972656" xlink:href="#DejaVuSans-101"/>
      <use x="748.496094" xlink:href="#DejaVuSans-114"/>
      <use x="789.609375" xlink:href="#DejaVuSans-32"/>
      <use x="821.396484" xlink:href="#DejaVuSans-69"/>
      <use x="884.580078" xlink:href="#DejaVuSans-120"/>
      <use x="943.759766" xlink:href="#DejaVuSans-112"/>
      <use x="1007.236328" xlink:href="#DejaVuSans-101"/>
      <use x="1068.759766" xlink:href="#DejaVuSans-114"/>
      <use x="1109.873047" xlink:href="#DejaVuSans-105"/>
      <use x="1137.65625" xlink:href="#DejaVuSans-109"/>
      <use x="1235.068359" xlink:href="#DejaVuSans-101"/>
      <use x="1296.591797" xlink:href="#DejaVuSans-110"/>
      <use x="1359.970703" xlink:href="#DejaVuSans-116"/>
     </g>
    </g>
    <g id="line2d_19"/>
    <g id="line2d_20">
     <defs>
      <path d="M 0 4.5 
C 1.193414 4.5 2.338109 4.025852 3.181981 3.181981 
C 4.025852 2.338109 4.5 1.193414 4.5 0 
C 4.5 -1.193414 4.025852 -2.338109 3.181981 -3.181981 
C 2.338109 -4.025852 1.193414 -4.5 0 -4.5 
C -1.193414 -4.5 -2.338109 -4.025852 -3.181981 -3.181981 
C -4.025852 -2.338109 -4.5 -1.193414 -4.5 0 
C -4.5 1.193414 -4.025852 2.338109 -3.181981 3.181981 
C -2.338109 4.025852 -1.193414 4.5 0 4.5 
z
" id="me1858a681b" style="stroke:#000000;"/>
     </defs>
     <g>
      <use style="fill-opacity:0;stroke:#000000;" x="185.93875" xlink:href="#me1858a681b" y="81.585937"/>
     </g>
    </g>
    <g id="text_16">
     <!-- Const-Fan-In Experiment -->
     <g transform="translate(211.13875 86.485937)scale(0.14 -0.14)">
      <use xlink:href="#DejaVuSans-67"/>
      <use x="69.824219" xlink:href="#DejaVuSans-111"/>
      <use x="131.005859" xlink:href="#DejaVuSans-110"/>
      <use x="194.384766" xlink:href="#DejaVuSans-115"/>
      <use x="246.484375" xlink:href="#DejaVuSans-116"/>
      <use x="285.693359" xlink:href="#DejaVuSans-45"/>
      <use x="321.777344" xlink:href="#DejaVuSans-70"/>
      <use x="370.171875" xlink:href="#DejaVuSans-97"/>
      <use x="431.451172" xlink:href="#DejaVuSans-110"/>
      <use x="494.830078" xlink:href="#DejaVuSans-45"/>
      <use x="530.914062" xlink:href="#DejaVuSans-73"/>
      <use x="560.40625" xlink:href="#DejaVuSans-110"/>
      <use x="623.785156" xlink:href="#DejaVuSans-32"/>
      <use x="655.572266" xlink:href="#DejaVuSans-69"/>
      <use x="718.755859" xlink:href="#DejaVuSans-120"/>
      <use x="777.935547" xlink:href="#DejaVuSans-112"/>
      <use x="841.412109" xlink:href="#DejaVuSans-101"/>
      <use x="902.935547" xlink:href="#DejaVuSans-114"/>
      <use x="944.048828" xlink:href="#DejaVuSans-105"/>
      <use x="971.832031" xlink:href="#DejaVuSans-109"/>
      <use x="1069.244141" xlink:href="#DejaVuSans-101"/>
      <use x="1130.767578" xlink:href="#DejaVuSans-110"/>
      <use x="1194.146484" xlink:href="#DejaVuSans-116"/>
     </g>
    </g>
   </g>
   <g id="legend_2">
    <g id="text_17">
     <!-- sparsity: -->
     <defs>
      <path d="M 11.71875 12.40625 
L 22.015625 12.40625 
L 22.015625 0 
L 11.71875 0 
z
M 11.71875 51.703125 
L 22.015625 51.703125 
L 22.015625 39.3125 
L 11.71875 39.3125 
z
" id="DejaVuSans-58"/>
     </defs>
     <g transform="translate(338.00125 116.690937)scale(0.16 -0.16)">
      <use xlink:href="#DejaVuSans-115"/>
      <use x="52.099609" xlink:href="#DejaVuSans-112"/>
      <use x="115.576172" xlink:href="#DejaVuSans-97"/>
      <use x="176.855469" xlink:href="#DejaVuSans-114"/>
      <use x="217.96875" xlink:href="#DejaVuSans-115"/>
      <use x="270.068359" xlink:href="#DejaVuSans-105"/>
      <use x="297.851562" xlink:href="#DejaVuSans-116"/>
      <use x="337.060547" xlink:href="#DejaVuSans-121"/>
      <use x="388.990234" xlink:href="#DejaVuSans-58"/>
     </g>
    </g>
    <g id="line2d_21">
     <path d="M 336.605 132.75625 
L 364.605 132.75625 
" style="fill:none;stroke:#45b6fe;stroke-linecap:square;stroke-width:2;"/>
    </g>
    <g id="line2d_22">
     <defs>
      <path d="M 0 4 
C 1.060812 4 2.078319 3.578535 2.828427 2.828427 
C 3.578535 2.078319 4 1.060812 4 0 
C 4 -1.060812 3.578535 -2.078319 2.828427 -2.828427 
C 2.078319 -3.578535 1.060812 -4 0 -4 
C -1.060812 -4 -2.078319 -3.578535 -2.828427 -2.828427 
C -3.578535 -2.078319 -4 -1.060812 -4 0 
C -4 1.060812 -3.578535 2.078319 -2.828427 2.828427 
C -2.078319 3.578535 -1.060812 4 0 4 
z
" id="mb9f5379321" style="stroke:#45b6fe;"/>
     </defs>
     <g>
      <use style="fill:#45b6fe;stroke:#45b6fe;" x="350.605" xlink:href="#mb9f5379321" y="132.75625"/>
     </g>
    </g>
    <g id="text_18">
     <!-- $0.95$ -->
     <defs>
      <path d="M 10.984375 1.515625 
L 10.984375 10.5 
Q 14.703125 8.734375 18.5 7.8125 
Q 22.3125 6.890625 25.984375 6.890625 
Q 35.75 6.890625 40.890625 13.453125 
Q 46.046875 20.015625 46.78125 33.40625 
Q 43.953125 29.203125 39.59375 26.953125 
Q 35.25 24.703125 29.984375 24.703125 
Q 19.046875 24.703125 12.671875 31.3125 
Q 6.296875 37.9375 6.296875 49.421875 
Q 6.296875 60.640625 12.9375 67.421875 
Q 19.578125 74.21875 30.609375 74.21875 
Q 43.265625 74.21875 49.921875 64.515625 
Q 56.59375 54.828125 56.59375 36.375 
Q 56.59375 19.140625 48.40625 8.859375 
Q 40.234375 -1.421875 26.421875 -1.421875 
Q 22.703125 -1.421875 18.890625 -0.6875 
Q 15.09375 0.046875 10.984375 1.515625 
z
M 30.609375 32.421875 
Q 37.25 32.421875 41.125 36.953125 
Q 45.015625 41.5 45.015625 49.421875 
Q 45.015625 57.28125 41.125 61.84375 
Q 37.25 66.40625 30.609375 66.40625 
Q 23.96875 66.40625 20.09375 61.84375 
Q 16.21875 57.28125 16.21875 49.421875 
Q 16.21875 41.5 20.09375 36.953125 
Q 23.96875 32.421875 30.609375 32.421875 
z
" id="DejaVuSans-57"/>
     </defs>
     <g transform="translate(375.805 137.65625)scale(0.14 -0.14)">
      <use transform="translate(0 0.78125)" xlink:href="#DejaVuSans-48"/>
      <use transform="translate(63.623047 0.78125)" xlink:href="#DejaVuSans-46"/>
      <use transform="translate(95.410156 0.78125)" xlink:href="#DejaVuSans-57"/>
      <use transform="translate(159.033203 0.78125)" xlink:href="#DejaVuSans-53"/>
     </g>
    </g>
    <g id="line2d_23">
     <path d="M 336.605 153.305625 
L 364.605 153.305625 
" style="fill:none;stroke:#ffab40;stroke-linecap:square;stroke-width:2;"/>
    </g>
    <g id="line2d_24">
     <defs>
      <path d="M 0 4 
C 1.060812 4 2.078319 3.578535 2.828427 2.828427 
C 3.578535 2.078319 4 1.060812 4 0 
C 4 -1.060812 3.578535 -2.078319 2.828427 -2.828427 
C 2.078319 -3.578535 1.060812 -4 0 -4 
C -1.060812 -4 -2.078319 -3.578535 -2.828427 -2.828427 
C -3.578535 -2.078319 -4 -1.060812 -4 0 
C -4 1.060812 -3.578535 2.078319 -2.828427 2.828427 
C -2.078319 3.578535 -1.060812 4 0 4 
z
" id="m1da54cc93f" style="stroke:#ffab40;"/>
     </defs>
     <g>
      <use style="fill:#ffab40;stroke:#ffab40;" x="350.605" xlink:href="#m1da54cc93f" y="153.305625"/>
     </g>
    </g>
    <g id="text_19">
     <!-- $0.9$ -->
     <g transform="translate(375.805 158.205625)scale(0.14 -0.14)">
      <use transform="translate(0 0.78125)" xlink:href="#DejaVuSans-48"/>
      <use transform="translate(63.623047 0.78125)" xlink:href="#DejaVuSans-46"/>
      <use transform="translate(95.410156 0.78125)" xlink:href="#DejaVuSans-57"/>
     </g>
    </g>
    <g id="line2d_25">
     <path d="M 336.605 173.855 
L 364.605 173.855 
" style="fill:none;stroke:#9c0534;stroke-linecap:square;stroke-width:2;"/>
    </g>
    <g id="line2d_26">
     <defs>
      <path d="M 0 4 
C 1.060812 4 2.078319 3.578535 2.828427 2.828427 
C 3.578535 2.078319 4 1.060812 4 0 
C 4 -1.060812 3.578535 -2.078319 2.828427 -2.828427 
C 2.078319 -3.578535 1.060812 -4 0 -4 
C -1.060812 -4 -2.078319 -3.578535 -2.828427 -2.828427 
C -3.578535 -2.078319 -4 -1.060812 -4 0 
C -4 1.060812 -3.578535 2.078319 -2.828427 2.828427 
C -2.078319 3.578535 -1.060812 4 0 4 
z
" id="m2f3e9e75b9" style="stroke:#9c0534;"/>
     </defs>
     <g>
      <use style="fill:#9c0534;stroke:#9c0534;" x="350.605" xlink:href="#m2f3e9e75b9" y="173.855"/>
     </g>
    </g>
    <g id="text_20">
     <!-- $0.8$ -->
     <g transform="translate(375.805 178.755)scale(0.14 -0.14)">
      <use transform="translate(0 0.78125)" xlink:href="#DejaVuSans-48"/>
      <use transform="translate(63.623047 0.78125)" xlink:href="#DejaVuSans-46"/>
      <use transform="translate(92.785156 0.78125)" xlink:href="#DejaVuSans-56"/>
     </g>
    </g>
   </g>
  </g>
 </g>
 <defs>
  <clipPath id="p08530ead1a">
   <rect height="271.8" width="334.8" x="79.225" y="7.2"/>
  </clipPath>
 </defs>
</svg>
