<?xml version="1.0" encoding="UTF-8" standalone="no"?>
<!-- Created with Inkscape (http://www.inkscape.org/) -->

<svg
   version="1.1"
   id="svg2"
   width="295.33334"
   height="75.959999"
   viewBox="0 0 295.33334 75.959999"
   sodipodi:docname="UC-horz-white.eps"
   xmlns:inkscape="http://www.inkscape.org/namespaces/inkscape"
   xmlns:sodipodi="http://sodipodi.sourceforge.net/DTD/sodipodi-0.dtd"
   xmlns="http://www.w3.org/2000/svg"
   xmlns:svg="http://www.w3.org/2000/svg">
  <defs
     id="defs6" />
  <sodipodi:namedview
     id="namedview4"
     pagecolor="#ffffff"
     bordercolor="#000000"
     borderopacity="0.25"
     inkscape:showpageshadow="2"
     inkscape:pageopacity="0.0"
     inkscape:pagecheckerboard="0"
     inkscape:deskcolor="#d1d1d1" />
  <g
     id="g8"
     inkscape:groupmode="layer"
     inkscape:label="ink_ext_XXXXXX"
     transform="matrix(1.3333333,0,0,-1.3333333,0,75.96)">
    <g
       id="g10"
       transform="scale(0.1)">
      <path
         d="m 189.922,274.215 c 1.074,-1.383 1.824,-3.024 1.824,-4.895 0,-4.574 -3.769,-8.222 -8.387,-8.222 -4.699,0 -8.496,3.648 -8.496,8.222 0,2.426 1.145,4.551 2.852,6.051 -6.652,1.231 -13.567,4.606 -13.567,4.606 1.555,-4.793 5.04,-23.172 17.114,-24.485 14.918,-1.683 18.777,12.164 18.777,12.164 0,0 -2.488,4.418 -10.117,6.559"
         style="fill:#ffffff;fill-opacity:1;fill-rule:nonzero;stroke:none"
         id="path12" />
      <path
         d="m 261.172,275.371 c 1.726,-1.5 2.859,-3.625 2.859,-6.051 0,-4.574 -3.808,-8.222 -8.484,-8.222 -4.629,0 -8.399,3.648 -8.399,8.222 0,1.871 0.75,3.512 1.825,4.895 -7.633,-2.141 -10.125,-6.559 -10.125,-6.559 0,0 3.855,-13.847 18.789,-12.164 12.07,1.313 15.554,19.692 17.097,24.485 0,0 -6.902,-3.375 -13.562,-4.606"
         style="fill:#ffffff;fill-opacity:1;fill-rule:nonzero;stroke:none"
         id="path14" />
      <path
         d="m 275.223,318.051 c -4.891,4.039 -11.297,-1.008 -6.446,-6.488 4.024,-4.555 6.684,-7.497 4.942,-10.825 -2.403,-4.508 -25.145,-3.41 -54.266,-14.367 -29.133,10.957 -51.875,9.859 -54.269,14.367 -1.758,3.328 0.902,6.27 4.945,10.825 4.84,5.48 -1.574,10.527 -6.457,6.488 -4.102,-3.367 -11.633,-13.746 -8.926,-20.711 4.238,-11.102 30.195,-7.598 64.617,-21.871 v -0.055 c 0.039,0.012 0.063,0.02 0.09,0.024 0.02,-0.004 0.051,-0.012 0.067,-0.024 v 0.055 c 34.445,14.273 60.382,10.769 64.64,21.871 2.684,6.965 -4.824,17.344 -8.937,20.711"
         style="fill:#ffffff;fill-opacity:1;fill-rule:nonzero;stroke:none"
         id="path16" />
      <path
         d="m 244.57,173.301 c -4.453,1.758 -12.461,6.387 -14.707,14.469 -2.019,7.375 0.84,12.445 4.16,13.261 3.133,0.754 6.524,-1.336 5.157,-5.187 -0.965,-2.891 -4.075,-4.344 -5.196,-5.082 -1.886,-1.129 -0.273,-3.633 2.11,-3.164 5.254,1.031 8.301,6.757 8.086,10.804 -0.254,6.282 -7.403,7.766 -11.348,7.008 -6.144,-1.187 -10.605,-7.297 -8.086,-17.812 2.41,-9.957 11.223,-15.328 15.848,-17.43 -4.024,-1.684 -12.75,-3.055 -21.153,-3.582 -8.406,0.527 -17.105,1.898 -21.132,3.582 4.613,2.102 13.429,7.473 15.824,17.43 2.547,10.515 -1.926,16.625 -8.078,17.812 -3.938,0.758 -11.086,-0.726 -11.336,-7.008 -0.207,-4.047 2.84,-9.773 8.074,-10.804 2.383,-0.469 4.012,2.035 2.129,3.164 -1.145,0.738 -4.238,2.191 -5.215,5.082 -1.348,3.851 2.02,5.941 5.156,5.187 3.328,-0.816 6.192,-5.886 4.18,-13.261 -2.258,-8.082 -10.254,-12.711 -14.727,-14.469 -3.789,-1.488 -4.347,-5.375 -1.972,-6.758 7.879,-4.473 19.422,-5.484 26.543,-5.578 v -0.02 c 0.164,0 0.379,0.012 0.554,0.016 0.188,-0.004 0.395,-0.016 0.579,-0.016 v 0.02 c 7.117,0.094 18.652,1.105 26.523,5.578 2.391,1.383 1.824,5.27 -1.973,6.758"
         style="fill:#ffffff;fill-opacity:1;fill-rule:nonzero;stroke:none"
         id="path18" />
      <path
         d="m 219.609,507.652 c 2.118,0.297 4.512,0.946 6.563,2.348 v 0 c 0.312,0.281 0.594,0.496 0.918,0.746 2.246,2.094 6.824,8.379 8.183,11.137 0.293,0.5 0.293,1.062 0,1.754 -0.605,1.406 -2.128,2.718 -2.539,2.836 -2.05,0.699 -24.289,0.761 -26.394,0.05 v 0 c 0,0 -0.11,-0.023 -0.356,-0.168 -0.996,-0.71 -2.929,-2.781 -2.246,-4.308 1.313,-2.633 6.164,-9.156 8.45,-11.246 2.156,-1.934 4.949,-2.699 7.421,-3.149"
         style="fill:#ffffff;fill-opacity:1;fill-rule:nonzero;stroke:none"
         id="path20" />
      <path
         d="m 202.566,497.02 c 0.247,2.019 0.344,4.441 -0.347,6.71 v 0 c -0.09,0.379 -0.239,0.7 -0.422,1.11 -1.367,2.715 -6.231,8.652 -8.488,10.765 -0.465,0.418 -1.043,0.583 -1.746,0.551 -1.594,-0.133 -3.333,-1.148 -3.633,-1.484 -1.282,-1.664 -8.235,-22.043 -8.196,-24.141 v 0 c 0,0 0,-0.14 0.118,-0.41 0.351,-1.137 1.769,-3.558 3.574,-3.336 2.941,0.32 10.988,2.899 13.722,4.375 2.54,1.336 4.168,3.684 5.418,5.86"
         style="fill:#ffffff;fill-opacity:1;fill-rule:nonzero;stroke:none"
         id="path22" />
      <path
         d="m 207.715,478.066 c -1.953,0.887 -4.238,1.778 -6.668,1.778 v 0 c -0.422,0 -0.805,0 -1.195,-0.074 -3.164,-0.395 -10.594,-3.153 -13.407,-4.649 -0.5,-0.269 -0.851,-0.73 -1.035,-1.402 -0.383,-1.473 0.067,-3.352 0.281,-3.758 1.321,-1.719 19.219,-14.348 21.329,-15.012 v 0 c 0,0 0.07,0 0.41,0 1.211,0 4.14,0.578 4.472,2.254 0.539,2.793 0.539,11.082 -0.078,14.07 -0.508,2.766 -2.359,4.961 -4.109,6.793"
         style="fill:#ffffff;fill-opacity:1;fill-rule:nonzero;stroke:none"
         id="path24" />
      <path
         d="m 228.066,476.98 c -1.496,-1.472 -3.105,-3.328 -3.855,-5.632 v 0 c -0.148,-0.368 -0.219,-0.735 -0.297,-1.137 -0.605,-2.977 -0.203,-10.758 0.313,-13.793 0.16,-0.551 0.519,-1.023 1.086,-1.449 1.406,-0.813 3.378,-0.906 3.808,-0.832 2.168,0.613 20.117,13.148 21.375,14.945 v 0 c 0,0 0.117,0.043 0.156,0.289 0.442,1.16 0.743,3.984 -0.808,4.77 -2.598,1.429 -10.735,4.058 -13.821,4.492 -2.937,0.379 -5.652,-0.617 -7.957,-1.653"
         style="fill:#ffffff;fill-opacity:1;fill-rule:nonzero;stroke:none"
         id="path26" />
      <path
         d="m 235.398,495.234 c 1.047,-1.828 2.325,-3.824 4.368,-5.246 v 0 c 0.261,-0.179 0.593,-0.41 1.015,-0.59 2.766,-1.449 10.528,-3.695 13.645,-4.109 0.594,-0.133 1.14,0.09 1.726,0.57 1.27,0.954 2.024,2.739 2.051,3.172 0.039,2.129 -6.769,22.477 -8.066,24.211 v 0 c 0,0 -0.086,0.121 -0.313,0.25 -1.023,0.75 -3.73,1.879 -4.953,0.719 -2.207,-1.949 -7.293,-8.434 -8.633,-11.18 -1.308,-2.5 -1.14,-5.351 -0.84,-7.797"
         style="fill:#ffffff;fill-opacity:1;fill-rule:nonzero;stroke:none"
         id="path28" />
      <path
         d="m 224.949,488.715 c -1.308,0.336 -2.019,1.73 -1.64,2.996 0.492,1.25 1.855,1.941 3.136,1.496 1.278,-0.394 2.012,-1.727 1.571,-2.957 -0.399,-1.266 -1.797,-1.902 -3.067,-1.535 z m -5.136,7.336 c -1.141,0.746 -1.375,2.246 -0.555,3.332 0.762,1.082 2.285,1.285 3.445,0.547 1.098,-0.813 1.289,-2.325 0.481,-3.34 -0.774,-1.067 -2.325,-1.332 -3.371,-0.539 z m 0.292,-13.707 c -1.355,0 -2.429,1.039 -2.429,2.379 0,1.297 1.074,2.382 2.429,2.382 1.387,0 2.485,-1.085 2.485,-2.382 0,-1.34 -1.098,-2.379 -2.485,-2.379 z m -5.71,11.761 c -1.153,-0.8 -2.696,-0.496 -3.457,0.567 -0.84,1.082 -0.567,2.551 0.496,3.305 1.144,0.793 2.629,0.519 3.437,-0.539 0.844,-1.051 0.59,-2.532 -0.476,-3.333 z m -1.379,-8.5 c -1.317,-0.402 -2.703,0.27 -3.114,1.5 -0.371,1.243 0.282,2.579 1.532,3.016 1.379,0.395 2.777,-0.254 3.105,-1.5 0.481,-1.285 -0.234,-2.601 -1.523,-3.016 z m 18.859,8.004 c -0.566,1.047 -1.445,1.883 -2.473,2.563 0.129,0.758 0.215,1.523 0.071,2.293 -0.301,1.887 -1.321,3.484 -2.903,4.676 -2.625,1.808 -6.25,1.562 -8.777,-0.27 -2.441,1.152 -5.508,1.117 -7.754,-0.461 -1.555,-1.101 -2.648,-2.734 -2.883,-4.637 -0.254,-1.203 -0.027,-2.343 0.371,-3.437 -0.562,-0.531 -1.101,-1.094 -1.472,-1.793 -0.899,-1.727 -1.035,-3.625 -0.43,-5.438 0.969,-2.984 3.84,-4.933 7.012,-4.933 0.066,0 0.136,0.031 0.215,0.031 1.211,-2.301 3.613,-3.933 6.511,-3.933 3.332,0 6.067,2.199 6.985,5.125 2.761,0.398 5.097,2.171 5.949,4.773 0.652,1.82 0.445,3.707 -0.422,5.441"
         style="fill:#ffffff;fill-opacity:1;fill-rule:nonzero;stroke:none"
         id="path30" />
      <path
         d="m 87.6563,518.992 c -6.8672,6.43 -10.7149,7.863 -12.7149,7.863 -1.125,0 -2.5391,-0.382 -4.8828,-2.894 -0.5938,-0.594 -1.1797,-1.281 -1.7695,-1.914 -3.25,-3.742 -7.293,-8.488 -14.375,-8.488 -2.625,0 -5.4063,0.722 -8.4063,2.129 v -54.149 c 2.7461,-4.715 5.4883,-7.402 7.8203,-7.402 1.2813,0 3.4883,0.73 6.8867,4.394 8,8.524 17.6368,10.11 27.4415,4.34 v 56.121"
         style="fill:#ffffff;fill-opacity:1;fill-rule:nonzero;stroke:none"
         id="path32" />
      <path
         d="m 130.715,513.559 c -7.055,0 -11.164,4.746 -14.367,8.488 -0.586,0.633 -1.192,1.32 -1.758,1.914 -2.332,2.512 -3.77,2.894 -4.902,2.894 -2.024,0 -5.84,-1.433 -12.6685,-7.863 v -56.121 c 3.8205,2.285 7.6365,3.414 11.4575,3.414 5.761,0 11.074,-2.594 15.964,-7.754 3.36,-3.664 5.586,-4.394 6.836,-4.394 2.395,0 5.11,2.687 7.825,7.402 v 54.149 c -3,-1.407 -5.782,-2.129 -8.387,-2.129"
         style="fill:#ffffff;fill-opacity:1;fill-rule:nonzero;stroke:none"
         id="path34" />
      <path
         d="m 350.676,462.871 c 9.793,5.77 19.441,4.184 27.437,-4.34 3.399,-3.664 5.606,-4.394 6.899,-4.394 2.324,0 5.054,2.687 7.801,7.402 v 54.149 c -2.989,-1.407 -5.77,-2.129 -8.399,-2.129 -7.078,0 -11.113,4.746 -14.387,8.488 -0.562,0.633 -1.172,1.32 -1.757,1.914 -2.352,2.512 -3.758,2.894 -4.891,2.894 -1.992,0 -5.852,-1.433 -12.703,-7.863 v -56.121"
         style="fill:#ffffff;fill-opacity:1;fill-rule:nonzero;stroke:none"
         id="path36" />
      <path
         d="m 307.605,513.559 c -2.605,0 -5.386,0.722 -8.378,2.129 v -54.149 c 2.714,-4.715 5.441,-7.402 7.812,-7.402 1.262,0 3.488,0.73 6.848,4.394 4.883,5.16 10.207,7.754 15.965,7.754 3.808,0 7.636,-1.129 11.464,-3.414 v 56.121 c -6.836,6.43 -10.64,7.863 -12.675,7.863 -1.121,0 -2.567,-0.382 -4.903,-2.894 -0.574,-0.594 -1.16,-1.281 -1.746,-1.914 -3.222,-3.742 -7.336,-8.488 -14.387,-8.488"
         style="fill:#ffffff;fill-opacity:1;fill-rule:nonzero;stroke:none"
         id="path38" />
      <path
         d="m 163.613,348.719 c -17.453,6.078 -53.097,23.699 -68.1755,65.664 -3.8945,10.84 -9.5898,9.234 -8.5234,-2.293 2.8125,-30.199 21.9649,-66.93 62.1369,-83.625 17.219,-7.133 26.887,15.969 14.562,20.254"
         style="fill:#ffffff;fill-opacity:1;fill-rule:nonzero;stroke:none"
         id="path40" />
      <path
         d="m 275.273,348.719 c 17.45,6.078 53.106,23.699 68.184,65.664 3.906,10.84 9.598,9.234 8.523,-2.293 -2.808,-30.199 -21.96,-66.93 -62.136,-83.625 -17.227,-7.133 -26.883,15.969 -14.571,20.254"
         style="fill:#ffffff;fill-opacity:1;fill-rule:nonzero;stroke:none"
         id="path42" />
      <path
         d="m 264.375,357.215 c 2.371,0.508 5.77,1.406 9.656,2.676 10.782,4.07 29.942,13.769 44.641,33.179 -33.809,6.602 -68.262,10.188 -99.094,10.188 -31.094,0 -65.762,-3.66 -99.773,-10.379 15.332,-20.141 35.476,-29.785 45.879,-33.5 3.281,-0.965 6.218,-1.723 8.269,-2.164 4.848,-1.024 9.758,-1.805 15.805,3.234 6.062,5.074 7.176,8.098 29.414,8.098 22.223,0 23.328,-3.024 29.391,-8.098 6.054,-5.039 10.976,-4.258 15.812,-3.234"
         style="fill:#ffffff;fill-opacity:1;fill-rule:nonzero;stroke:none"
         id="path44" />
      <path
         d="M 380.332,303.012 330.664,221.07 c 18.731,8.473 46.758,29.785 49.668,81.942"
         style="fill:#ffffff;fill-opacity:1;fill-rule:nonzero;stroke:none"
         id="path46" />
      <path
         d="M 107.664,221.07 58.0078,303.012 C 60.9063,250.855 88.9336,229.543 107.664,221.07"
         style="fill:#ffffff;fill-opacity:1;fill-rule:nonzero;stroke:none"
         id="path48" />
      <path
         d="m 367.371,158.113 c -9.558,-7.664 -17.012,-12.937 -23.016,-17.152 -13.125,-9.195 -18.183,-13.348 -17.617,-20.203 l 2.305,-29.4924 -17.227,7.9766 c -13.574,6.0278 -19.914,14.1988 -21.093,27.3868 -1.856,20.422 10.769,41.691 33.757,56.984 5.461,3.575 10.325,6.153 14.25,8.102 3.868,1.976 7.469,4.082 7.813,5.109 0.742,2.274 -3.582,5.985 -16.23,11.629 -1.27,0.57 -3.633,1.567 -5.793,2.473 L 219.172,37.0938 113.809,210.926 c -2.161,-0.906 -4.512,-1.903 -5.801,-2.473 -12.6369,-5.644 -16.9611,-9.355 -16.2111,-11.629 0.332,-1.027 3.9258,-3.133 7.7929,-5.109 3.9262,-1.949 8.7972,-4.527 14.2502,-8.102 22.984,-15.293 35.625,-36.562 33.777,-56.984 -1.191,-13.188 -7.527,-21.359 -21.113,-27.3868 l -17.227,-7.9766 2.305,29.4924 c 0.574,6.855 -4.492,11.008 -17.6172,20.203 -5.996,4.215 -13.4492,9.488 -22.996,17.152 -58.9766,47.391 -60.9024,107.102 -43.6641,132.535 5.7422,8.379 21.9414,26.524 22.0508,26.633 l -2.7227,4.192 c -5.9297,0.578 -10.5859,5.519 -10.5859,11.601 0,6.469 5.2422,11.711 11.707,11.711 6.4727,0 11.7188,-5.242 11.7188,-11.711 0,-1.258 -0.2461,-2.445 -0.6172,-3.578 0.1093,-0.086 0.2851,-0.125 0.2148,-0.367 L 219.172,61.1719 379.246,329.129 c -0.047,0.242 0.117,0.281 0.227,0.367 -0.364,1.133 -0.606,2.32 -0.606,3.578 0,6.469 5.242,11.711 11.699,11.711 6.465,0 11.707,-5.242 11.707,-11.711 0,-6.082 -4.644,-11.023 -10.574,-11.601 l -2.726,-4.192 c 0.097,-0.109 16.3,-18.254 22.043,-26.633 17.254,-25.433 15.324,-85.144 -43.645,-132.535 z m -10.406,226.059 c -6.82,-18.707 -19.262,-38.086 -38.871,-52.68 15.586,-4.929 35.176,-5.047 48.586,3.844 -4.563,-11.645 -18.797,-26.805 -29.102,-36.785 -1.875,1.246 -3.75,2.871 -5.098,4.32 -4.14,4.43 -7.882,0.535 -5.058,-3.137 0.965,-1.269 3.496,-4.867 4.969,-6.086 -3.067,-2.843 -5.301,-4.812 -5.973,-5.402 -2.074,1.266 -4.211,3.176 -5.727,4.785 -4.14,4.43 -7.878,0.539 -5.054,-3.133 0.996,-1.3 3.629,-5.062 5.105,-6.203 -2.539,-2.023 -5.32,-4.234 -7.793,-5.914 -5.187,6.551 -10.754,13.41 -19.14,9.117 -8.887,-4.539 -0.059,-10.515 -0.059,-19.414 0,-35.535 -22.355,-48.726 -27.883,-63.789 -5.574,-15.043 -10.84,-41.941 -15.254,-49.293 -4.336,-7.234 -22.929,-15.343 -31.441,-8.648 -8.535,-6.695 -27.297,1.316 -31.469,8.648 -4.18,7.352 -10.098,34.25 -15.683,49.293 -5.528,15.063 -27.43,28.254 -27.43,63.789 0,8.899 8.816,14.875 -0.07,19.414 -8.399,4.293 -13.965,-2.566 -19.149,-9.117 -2.461,1.68 -5.242,3.891 -7.773,5.914 1.465,1.141 4.09,4.903 5.097,6.203 2.821,3.672 -0.918,7.563 -5.058,3.133 -1.516,-1.609 -3.653,-3.519 -5.735,-4.785 -0.664,0.59 -2.91,2.559 -5.976,5.402 1.484,1.219 4.004,4.817 4.992,6.086 2.82,3.672 -0.918,7.567 -5.059,3.137 -1.367,-1.449 -3.23,-3.074 -5.105,-4.32 -10.3048,9.98 -24.5431,25.14 -29.1056,36.785 13.9375,-9.25 32.0426,-8.805 47.8636,-3.27 C 100.43,346.508 88.2305,365.504 81.4727,383.883 51.3086,375.57 23.0273,364.797 0,351.746 V 276.063 C 0,153.879 174.695,12.6172 219.551,0 264.395,12.6172 437.938,153.879 437.938,276.063 v 76.417 c -22.848,12.872 -50.973,23.5 -80.973,31.692"
         style="fill:#ffffff;fill-opacity:1;fill-rule:nonzero;stroke:none"
         id="path50" />
      <path
         d="m 406.008,438.695 -52.219,11.09 v -4.883 h -15.574 v 4.883 l -29.016,-4.359 c -0.351,-0.067 -0.703,-0.133 -1.062,-0.164 l -22.114,-3.321 v 77.047 l 3.907,1.086 v 12.821 l 7.472,-5.524 c 5.301,-3.976 8.485,-4.824 10.203,-4.824 2.559,0 4.407,1.98 7.247,5.266 0.675,0.722 1.328,1.468 1.945,2.187 3.691,3.895 7.508,5.797 11.836,5.797 5.117,0 10.664,-2.883 17.39,-8.817 6.719,5.934 12.258,8.817 17.356,8.817 4.305,0 8.133,-1.902 11.777,-5.797 0.664,-0.719 1.336,-1.465 1.973,-2.187 2.82,-3.286 4.734,-5.266 7.273,-5.266 1.711,0 4.875,0.848 10.157,4.824 l 7.539,5.524 v -12.821 l 3.91,-1.086 z M 269.16,475.941 c -0.773,-2.289 -3.789,-3.515 -7.566,-3.554 0.039,-2.176 -0.539,-4.301 -1.133,-5.153 -2.16,-2.851 -26.652,-19.894 -30.102,-20.949 -0.39,-0.097 -0.847,-0.129 -1.406,-0.129 -1.109,0 -2.344,0.176 -3.652,0.524 -1.129,-3.735 -3.387,-6.348 -5.985,-6.348 -2.519,0 -4.746,2.469 -5.91,6.098 -1.472,-0.547 -3.074,-0.817 -4.312,-0.817 -0.625,0 -1.086,0.051 -1.516,0.145 -3.437,1.086 -27.832,18.273 -29.894,21.172 -0.606,0.789 -1.114,2.601 -1.219,4.523 -3.848,0 -6.926,1.203 -7.688,3.531 -0.75,2.329 0.899,5.055 4.004,7.258 -1.648,1.828 -2.625,4.297 -2.625,5.36 -0.058,3.531 9.309,31.187 11.582,34.007 0.586,0.692 2.293,1.852 4.395,2.547 -1.074,3.426 -0.762,6.477 1.23,7.891 1.953,1.348 5.02,0.801 7.938,-1.203 1.34,2.051 3.379,3.687 4.457,4.035 2.273,0.746 12.39,0.809 16.687,0.809 6.602,0 18.313,-0.219 20.496,-0.907 1.036,-0.367 2.786,-1.785 4.075,-3.582 3.172,2.149 6.308,2.86 8.371,1.406 1.902,-1.308 2.332,-4.281 1.336,-7.562 2.332,-0.633 4.277,-1.969 4.851,-2.762 2.227,-2.785 11.446,-30.504 11.379,-34.082 0,-0.996 -0.801,-3.043 -2.168,-4.816 3.301,-2.235 5.195,-5.02 4.375,-7.442 z m -116.863,-34 -22.102,3.321 c -0.351,0.031 -0.715,0.097 -1.074,0.164 l -29.004,4.359 v -4.883 h -7.7811 -7.7968 v 4.883 l -52.2266,-11.09 v 80.293 l 3.918,1.086 v 12.821 l 7.539,-5.524 c 5.2813,-3.976 8.4493,-4.824 10.1563,-4.824 2.539,0 4.4609,1.98 7.2656,5.266 0.6445,0.722 1.3086,1.468 1.9727,2.187 3.6523,3.895 7.4726,5.797 11.7968,5.797 5.0899,0 10.6133,-2.883 17.336,-8.817 6.7461,5.934 12.2731,8.817 17.3911,8.817 4.335,0 8.144,-1.902 11.835,-5.797 0.625,-0.719 1.27,-1.465 1.954,-2.187 2.839,-3.286 4.687,-5.266 7.253,-5.266 1.719,0 4.895,0.848 10.188,4.824 l 7.48,5.524 v -12.821 l 3.899,-1.086 z m 66.656,127.743 C 57.2656,569.684 0,520.199 0,520.199 V 374.664 c 21.9141,11.223 48.2813,20.566 76.3477,27.93 -0.5196,2.879 -0.9571,5.711 -1.211,8.426 -0.7344,7.804 0.7422,13.765 4.3438,17.73 2.6367,2.891 6.2031,4.48 10.0234,4.48 4.1563,0 11.8441,-1.941 16.5121,-14.945 1.035,-2.879 2.207,-5.594 3.437,-8.226 37.41,7.476 75.391,11.5 109.5,11.5 34.035,0 72.57,-4.012 109.942,-11.465 1.222,2.621 2.382,5.328 3.418,8.191 4.679,13.004 12.355,14.945 16.503,14.945 3.829,0 7.383,-1.589 10.024,-4.48 3.609,-3.965 5.078,-9.926 4.351,-17.73 -0.253,-2.75 -0.703,-5.61 -1.218,-8.524 27.91,-7.344 54.14,-16.66 75.965,-27.832 v 145.535 c 0,0 -57.352,49.485 -218.985,49.485"
         style="fill:#ffffff;fill-opacity:1;fill-rule:nonzero;stroke:none"
         id="path52" />
      <path
         d="m 344.387,214.461 c 7.234,-3.949 14.715,-9.75 14.715,-17.637 0,-8.39 -7.012,-11.972 -14.512,-15.808 -3.828,-1.977 -8.117,-4.125 -12.981,-7.403 -7.234,-4.785 -30.515,-22.183 -28.394,-45.929 0.769,-8.262 3.863,-12.661 12.098,-16.664 l -1.075,10.668 c -0.488,10.601 8.985,19.41 22.715,29.054 5.86,4.145 13.113,9.258 22.391,16.668 50.824,40.82 56.515,93.926 41.172,116.602 -2.047,3.015 -5.055,7.316 -8.106,11.554 -4.551,-46.273 -28.113,-69.543 -48.023,-81.105"
         style="fill:#ffffff;fill-opacity:1;fill-rule:nonzero;stroke:none"
         id="path54" />
      <path
         d="m 45.9258,295.566 c -3.0547,-4.238 -6.0625,-8.539 -8.1133,-11.554 -15.332,-22.676 -9.6602,-75.782 41.1719,-116.602 9.2695,-7.41 16.5312,-12.523 22.3946,-16.668 13.726,-9.644 23.199,-18.453 22.723,-29.054 l -1.086,-10.668 c 8.234,4.003 11.32,8.402 12.101,16.664 2.117,23.746 -21.172,41.144 -28.406,45.929 -4.856,3.278 -9.1329,5.426 -12.9727,7.403 -7.4883,3.836 -14.5,7.418 -14.5,15.808 0,7.887 7.4609,13.688 14.707,17.637 -19.9023,11.562 -43.4765,34.832 -48.0195,81.105"
         style="fill:#ffffff;fill-opacity:1;fill-rule:nonzero;stroke:none"
         id="path56" />
      <path
         d="m 568.777,454.414 v 76.102 h 28.43 v -75.34 c 0,-21.692 10.516,-32.91 27.871,-32.91 17.344,0 27.871,10.847 27.871,31.961 v 76.289 h 28.418 v -75.145 c 0,-40.332 -21.972,-60.117 -56.66,-60.117 -34.707,0 -55.93,19.969 -55.93,59.16"
         style="fill:#ffffff;fill-opacity:1;fill-rule:nonzero;stroke:none"
         id="path58" />
      <path
         d="m 721.426,530.516 h 26.211 l 60.527,-81.993 v 81.993 h 28.055 V 397.344 h -24.176 l -62.57,84.66 v -84.66 h -28.047 v 133.172"
         style="fill:#ffffff;fill-opacity:1;fill-rule:nonzero;stroke:none"
         id="path60" />
      <path
         d="m 879.609,530.516 h 28.418 V 397.344 h -28.418 v 133.172"
         style="fill:#ffffff;fill-opacity:1;fill-rule:nonzero;stroke:none"
         id="path62" />
      <path
         d="m 940.332,530.516 h 31.367 l 33.781,-93.789 33.78,93.789 h 30.63 l -52.22,-134.121 h -25.111 l -52.227,134.121"
         style="fill:#ffffff;fill-opacity:1;fill-rule:nonzero;stroke:none"
         id="path64" />
      <path
         d="m 1100.92,530.516 h 97.43 v -26.063 h -69.2 V 477.43 h 60.91 v -26.051 h -60.91 v -27.973 h 70.12 v -26.062 h -98.35 v 133.172"
         style="fill:#ffffff;fill-opacity:1;fill-rule:nonzero;stroke:none"
         id="path66" />
      <path
         d="m 1300.25,465.828 c 13.85,0 21.78,7.617 21.78,18.828 v 0.391 c 0,12.551 -8.5,19.023 -22.33,19.023 h -28.24 v -38.242 z m -57.21,64.688 h 59.06 c 16.41,0 29.14,-4.754 37.64,-13.512 7.21,-7.426 11.07,-17.875 11.07,-30.434 v -0.379 c 0,-21.503 -11.25,-35.011 -27.67,-41.289 l 31.56,-47.558 h -33.22 l -27.7,42.617 h -0.37 -21.95 v -42.617 h -28.42 v 133.172"
         style="fill:#ffffff;fill-opacity:1;fill-rule:nonzero;stroke:none"
         id="path68" />
      <path
         d="m 1386.07,416.746 16.8,20.742 c 11.64,-9.902 23.8,-16.172 38.57,-16.172 11.64,0 18.65,4.747 18.65,12.563 v 0.367 c 0,7.426 -4.43,11.231 -26.03,16.934 -26.02,6.855 -42.82,14.281 -42.82,40.722 v 0.371 c 0,24.161 18.83,40.137 45.22,40.137 18.83,0 34.88,-6.074 47.99,-16.933 l -14.77,-22.071 c -11.44,8.184 -22.69,13.145 -33.59,13.145 -10.88,0 -16.6,-5.145 -16.6,-11.61 v -0.382 c 0,-8.75 5.52,-11.598 27.87,-17.5 26.19,-7.051 40.97,-16.739 40.97,-39.961 v -0.371 c 0,-26.446 -19.57,-41.289 -47.44,-41.289 -19.57,0 -39.31,7.042 -54.82,21.308"
         style="fill:#ffffff;fill-opacity:1;fill-rule:nonzero;stroke:none"
         id="path70" />
      <path
         d="m 1529.12,530.516 h 28.41 V 397.344 h -28.41 v 133.172"
         style="fill:#ffffff;fill-opacity:1;fill-rule:nonzero;stroke:none"
         id="path72" />
      <path
         d="m 1631.01,503.504 h -39.32 v 27.012 h 107.05 v -27.012 h -39.31 v -106.16 h -28.42 v 106.16"
         style="fill:#ffffff;fill-opacity:1;fill-rule:nonzero;stroke:none"
         id="path74" />
      <path
         d="m 1771.65,449.852 -49.64,80.664 h 33.22 l 30.82,-53.457 31.37,53.457 h 32.3 l -49.65,-80.094 v -53.078 h -28.42 v 52.508"
         style="fill:#ffffff;fill-opacity:1;fill-rule:nonzero;stroke:none"
         id="path76" />
      <path
         d="m 2047.94,463.547 v 0.387 c 0,22.824 -16.23,41.847 -39.12,41.847 -22.89,0 -38.75,-18.644 -38.75,-41.476 v -0.371 c 0,-22.832 16.25,-41.856 39.12,-41.856 22.89,0 38.75,18.633 38.75,41.469 z m -107.59,0 v 0.387 c 0,37.851 28.98,68.867 68.84,68.867 39.87,0 68.48,-30.625 68.48,-68.496 v -0.371 c 0,-37.871 -28.98,-68.875 -68.85,-68.875 -39.86,0 -68.47,30.632 -68.47,68.488"
         style="fill:#ffffff;fill-opacity:1;fill-rule:nonzero;stroke:none"
         id="path78" />
      <path
         d="m 2109.23,530.516 h 98.36 v -26.637 h -69.94 v -28.344 h 61.64 v -26.64 h -61.64 v -51.551 h -28.42 v 133.172"
         style="fill:#ffffff;fill-opacity:1;fill-rule:nonzero;stroke:none"
         id="path80" />
      <path
         d="m 677.012,344.098 c -70.645,0 -123.907,-55.243 -123.907,-128.485 v -0.726 c 0,-34.707 12.372,-66.91 34.825,-90.633 22.664,-23.941 53.691,-37.1173 87.351,-37.1173 39.887,0 68.02,12.5469 96.817,43.2613 l -25.879,27.118 c -20.731,-19.879 -39.735,-32.161 -69.559,-32.161 -45.449,0 -81.035,39.653 -81.035,90.258 v 0.715 c 0,51.039 34.844,89.539 81.035,89.539 24.492,0 45.43,-9.476 67.766,-30.664 l 25.945,30.91 c -19.297,18.91 -45.586,37.985 -93.359,37.985"
         style="fill:#ffffff;fill-opacity:1;fill-rule:nonzero;stroke:none"
         id="path82" />
      <path
         d="m 953.672,188.727 h -86.699 l 43.164,104.152 z M 992.891,91.418 H 1037.5 L 931.816,341.59 H 889.941 L 784.238,91.418 h 43.133 l 24.953,60.512 H 968.32 l 24.571,-60.512"
         style="fill:#ffffff;fill-opacity:1;fill-rule:nonzero;stroke:none"
         id="path84" />
      <path
         d="m 1661.93,188.727 h -86.7 l 43.16,104.152 z m 39.24,-97.309 h 44.59 L 1640.05,341.59 H 1598.2 L 1492.51,91.418 h 43.13 l 24.94,60.512 h 116 l 24.59,-60.512"
         style="fill:#ffffff;fill-opacity:1;fill-rule:nonzero;stroke:none"
         id="path86" />
      <path
         d="m 1063.81,91.418 h 170.93 v 37.887 h -127.4 v 210.48 h -43.53 V 91.418"
         style="fill:#ffffff;fill-opacity:1;fill-rule:nonzero;stroke:none"
         id="path88" />
      <path
         d="m 1365.4,344.098 c -69.47,0 -126.44,-56.438 -126.44,-128.485 v -0.726 c 0,-75.223 53.77,-127.7503 127.11,-127.7503 46.48,0 80,20.8163 103.94,38.4143 V 229.18 h -99.51 v -36.098 h 56.55 V 144.52 l -0.41,-0.325 c -15.86,-12.183 -37.43,-19.191 -59.17,-19.191 -49.14,0 -83.47,37.269 -83.47,90.609 v 0.715 c 0,49.36 35.74,89.539 79.65,89.539 30.9,0 49.51,-10.535 67.73,-26.394 l 25.65,31.59 c -27.07,23.449 -53.72,33.035 -91.63,33.035"
         style="fill:#ffffff;fill-opacity:1;fill-rule:nonzero;stroke:none"
         id="path90" />
      <path
         d="m 1880.39,215.59 h -63.42 v 86.328 h 63.06 c 32.6,0 51.27,-15.531 51.27,-42.637 v -0.722 c 0,-26.114 -20,-42.969 -50.91,-42.969 z m 51.09,-124.172 h 47.56 l -65.08,94.406 1.44,0.43 c 36.78,10.855 61.33,37.434 61.33,74.824 v 0.719 c 0,21.098 -11.15,39.519 -24.08,53.289 -15.98,16.168 -39.9,24.699 -69.16,24.699 H 1773.74 V 91.418 h 43.23 v 87.367 h 54.98 l 59.53,-87.367"
         style="fill:#ffffff;fill-opacity:1;fill-rule:nonzero;stroke:none"
         id="path92" />
      <path
         d="m 2073.14,91.418 h 46.46 v 95.535 l 95.39,152.832 h -47.98 l -69.14,-111.91 -68.46,111.91 h -48.83 l 92.56,-152.832 V 91.418"
         style="fill:#ffffff;fill-opacity:1;fill-rule:nonzero;stroke:none"
         id="path94" />
    </g>
  </g>
</svg>
