<?xml version="1.0" encoding="UTF-8" standalone="no"?>
<!-- Created with Inkscape (http://www.inkscape.org/) -->

<svg
   version="1.1"
   id="svg2"
   width="297.89334"
   height="81.360001"
   viewBox="0 0 297.89334 81.360001"
   sodipodi:docname="UC-horz-rgb.eps"
   xmlns:inkscape="http://www.inkscape.org/namespaces/inkscape"
   xmlns:sodipodi="http://sodipodi.sourceforge.net/DTD/sodipodi-0.dtd"
   xmlns="http://www.w3.org/2000/svg"
   xmlns:svg="http://www.w3.org/2000/svg">
  <defs
     id="defs6" />
  <sodipodi:namedview
     id="namedview4"
     pagecolor="#ffffff"
     bordercolor="#000000"
     borderopacity="0.25"
     inkscape:showpageshadow="2"
     inkscape:pageopacity="0.0"
     inkscape:pagecheckerboard="0"
     inkscape:deskcolor="#d1d1d1" />
  <g
     id="g8"
     inkscape:groupmode="layer"
     inkscape:label="ink_ext_XXXXXX"
     transform="matrix(1.3333333,0,0,-1.3333333,0,81.36)">
    <g
       id="g10"
       transform="scale(0.1)">
      <path
         d="M 238.203,610.18 C 69.7852,610.18 0,553.66 0,553.66 V 300.332 C 0,160.039 185.555,14.4844 238.203,0 290.801,14.4844 476.348,160.039 476.348,300.332 V 553.66 c 0,0 -69.739,56.52 -238.145,56.52"
         style="fill:#100f0d;fill-opacity:1;fill-rule:nonzero;stroke:none"
         id="path12" />
      <path
         d="m 209.121,296.539 c 1.074,-1.383 1.824,-3.023 1.824,-4.894 0,-4.575 -3.769,-8.223 -8.386,-8.223 -4.7,0 -8.496,3.648 -8.496,8.223 0,2.429 1.14,4.55 2.851,6.05 -6.652,1.231 -13.566,4.606 -13.566,4.606 1.554,-4.789 5.039,-23.168 17.113,-24.485 14.918,-1.683 18.777,12.164 18.777,12.164 0,0 -2.492,4.418 -10.117,6.559"
         style="fill:#facb07;fill-opacity:1;fill-rule:nonzero;stroke:none"
         id="path14" />
      <path
         d="m 280.371,297.695 c 1.727,-1.5 2.859,-3.621 2.859,-6.05 0,-4.575 -3.808,-8.223 -8.484,-8.223 -4.629,0 -8.398,3.648 -8.398,8.223 0,1.871 0.75,3.511 1.824,4.894 -7.637,-2.141 -10.125,-6.559 -10.125,-6.559 0,0 3.855,-13.847 18.789,-12.164 12.07,1.317 15.555,19.696 17.098,24.485 0,0 -6.903,-3.375 -13.563,-4.606"
         style="fill:#facb07;fill-opacity:1;fill-rule:nonzero;stroke:none"
         id="path16" />
      <path
         d="m 294.422,340.375 c -4.891,4.039 -11.297,-1.008 -6.445,-6.488 4.023,-4.555 6.679,-7.496 4.941,-10.824 -2.402,-4.508 -25.145,-3.411 -54.266,-14.368 -29.132,10.957 -51.875,9.86 -54.269,14.368 -1.758,3.328 0.898,6.269 4.941,10.824 4.844,5.48 -1.57,10.527 -6.453,6.488 -4.101,-3.367 -11.633,-13.742 -8.926,-20.711 4.239,-11.098 30.196,-7.598 64.618,-21.871 v -0.055 c 0.039,0.012 0.058,0.02 0.089,0.028 0.02,-0.008 0.047,-0.016 0.067,-0.028 v 0.055 c 34.445,14.273 60.383,10.773 64.64,21.871 2.684,6.969 -4.824,17.344 -8.937,20.711"
         style="fill:#facb07;fill-opacity:1;fill-rule:nonzero;stroke:none"
         id="path18" />
      <path
         d="m 263.77,195.625 c -4.454,1.758 -12.461,6.387 -14.707,14.469 -2.024,7.379 0.839,12.445 4.16,13.261 3.132,0.758 6.523,-1.332 5.156,-5.187 -0.969,-2.891 -4.074,-4.344 -5.195,-5.082 -1.887,-1.129 -0.274,-3.633 2.109,-3.164 5.254,1.031 8.301,6.758 8.086,10.805 -0.254,6.281 -7.402,7.765 -11.348,7.007 -6.144,-1.187 -10.605,-7.293 -8.086,-17.812 2.41,-9.957 11.219,-15.328 15.848,-17.43 -4.023,-1.679 -12.754,-3.054 -21.152,-3.582 -8.407,0.528 -17.11,1.903 -21.133,3.582 4.609,2.102 13.43,7.473 15.82,17.43 2.551,10.519 -1.922,16.625 -8.074,17.812 -3.938,0.758 -11.086,-0.726 -11.34,-7.007 -0.203,-4.047 2.844,-9.774 8.078,-10.805 2.383,-0.469 4.012,2.035 2.129,3.164 -1.144,0.738 -4.238,2.191 -5.215,5.082 -1.347,3.855 2.02,5.945 5.157,5.187 3.328,-0.816 6.191,-5.882 4.179,-13.261 -2.258,-8.082 -10.254,-12.711 -14.726,-14.469 -3.789,-1.488 -4.348,-5.375 -1.973,-6.758 7.879,-4.472 19.422,-5.484 26.543,-5.574 v -0.02 c 0.164,0 0.379,0.008 0.555,0.012 0.187,-0.004 0.39,-0.012 0.578,-0.012 v 0.02 c 7.117,0.09 18.652,1.102 26.523,5.574 2.391,1.383 1.824,5.27 -1.972,6.758"
         style="fill:#facb07;fill-opacity:1;fill-rule:nonzero;stroke:none"
         id="path20" />
      <path
         d="m 238.809,529.977 c 2.117,0.296 4.511,0.945 6.562,2.347 v 0 c 0.313,0.285 0.594,0.5 0.918,0.746 2.246,2.098 6.824,8.379 8.184,11.141 0.293,0.496 0.293,1.059 0,1.75 -0.606,1.406 -2.129,2.723 -2.539,2.84 -2.051,0.695 -24.289,0.762 -26.399,0.047 v 0 c 0,0 -0.105,-0.024 -0.351,-0.164 -0.996,-0.715 -2.93,-2.786 -2.246,-4.313 1.308,-2.633 6.164,-9.156 8.449,-11.246 2.156,-1.934 4.949,-2.699 7.422,-3.148"
         style="fill:#facb07;fill-opacity:1;fill-rule:nonzero;stroke:none"
         id="path22" />
      <path
         d="m 221.766,519.348 c 0.246,2.015 0.343,4.437 -0.352,6.707 v 0 c -0.086,0.383 -0.234,0.699 -0.418,1.109 -1.367,2.715 -6.23,8.652 -8.488,10.766 -0.469,0.422 -1.043,0.582 -1.746,0.55 -1.594,-0.128 -3.332,-1.144 -3.633,-1.484 -1.281,-1.664 -8.234,-22.043 -8.195,-24.141 v 0 c 0,0 0,-0.14 0.117,-0.41 0.351,-1.136 1.769,-3.558 3.574,-3.332 2.941,0.317 10.988,2.895 13.723,4.375 2.539,1.332 4.168,3.68 5.418,5.86"
         style="fill:#facb07;fill-opacity:1;fill-rule:nonzero;stroke:none"
         id="path24" />
      <path
         d="m 226.914,500.391 c -1.953,0.89 -4.238,1.777 -6.672,1.777 v 0 c -0.418,0 -0.801,0 -1.191,-0.074 -3.164,-0.395 -10.594,-3.153 -13.406,-4.649 -0.5,-0.265 -0.852,-0.73 -1.036,-1.398 -0.382,-1.477 0.067,-3.356 0.282,-3.762 1.32,-1.719 19.218,-14.344 21.328,-15.008 v 0 c 0,0 0.07,0 0.41,0 1.211,0 4.141,0.575 4.473,2.25 0.539,2.793 0.539,11.082 -0.079,14.071 -0.507,2.765 -2.363,4.961 -4.109,6.793"
         style="fill:#facb07;fill-opacity:1;fill-rule:nonzero;stroke:none"
         id="path26" />
      <path
         d="m 247.266,499.309 c -1.496,-1.477 -3.106,-3.332 -3.86,-5.637 v 0 c -0.144,-0.367 -0.215,-0.731 -0.293,-1.137 -0.605,-2.972 -0.203,-10.758 0.313,-13.793 0.16,-0.547 0.519,-1.023 1.086,-1.445 1.406,-0.817 3.379,-0.91 3.808,-0.836 2.168,0.613 20.118,13.148 21.375,14.945 v 0 c 0,0 0.118,0.043 0.157,0.289 0.441,1.16 0.742,3.985 -0.809,4.77 -2.598,1.43 -10.734,4.058 -13.82,4.492 -2.938,0.383 -5.653,-0.613 -7.957,-1.648"
         style="fill:#facb07;fill-opacity:1;fill-rule:nonzero;stroke:none"
         id="path28" />
      <path
         d="m 254.598,517.559 c 1.047,-1.825 2.324,-3.825 4.367,-5.243 v 0 c 0.262,-0.183 0.594,-0.41 1.015,-0.593 2.762,-1.45 10.528,-3.696 13.641,-4.11 0.598,-0.133 1.145,0.09 1.731,0.571 1.269,0.953 2.019,2.738 2.05,3.175 0.039,2.129 -6.769,22.473 -8.066,24.207 v 0 c 0,0 -0.09,0.122 -0.313,0.25 -1.027,0.75 -3.73,1.879 -4.953,0.719 -2.207,-1.949 -7.293,-8.433 -8.632,-11.18 -1.309,-2.5 -1.141,-5.351 -0.84,-7.796"
         style="fill:#facb07;fill-opacity:1;fill-rule:nonzero;stroke:none"
         id="path30" />
      <path
         d="m 244.148,511.039 c -1.308,0.34 -2.019,1.731 -1.64,2.996 0.488,1.25 1.855,1.942 3.137,1.496 1.277,-0.394 2.011,-1.726 1.57,-2.957 -0.399,-1.265 -1.797,-1.898 -3.067,-1.535 z m -5.136,7.336 c -1.141,0.746 -1.375,2.246 -0.555,3.336 0.762,1.078 2.285,1.281 3.445,0.547 1.094,-0.817 1.289,-2.324 0.481,-3.34 -0.774,-1.07 -2.324,-1.336 -3.371,-0.543 z m 0.293,-13.707 c -1.356,0 -2.43,1.039 -2.43,2.379 0,1.297 1.074,2.383 2.43,2.383 1.386,0 2.48,-1.086 2.48,-2.383 0,-1.34 -1.094,-2.379 -2.48,-2.379 z m -5.711,11.762 c -1.153,-0.801 -2.696,-0.496 -3.457,0.566 -0.84,1.082 -0.567,2.551 0.496,3.309 1.144,0.789 2.629,0.515 3.437,-0.543 0.84,-1.051 0.586,-2.532 -0.476,-3.332 z m -1.379,-8.5 c -1.317,-0.399 -2.703,0.269 -3.113,1.5 -0.372,1.246 0.281,2.578 1.531,3.015 1.379,0.399 2.773,-0.254 3.105,-1.496 0.481,-1.289 -0.234,-2.605 -1.523,-3.019 z m 18.859,8.004 c -0.566,1.05 -1.445,1.882 -2.472,2.562 0.128,0.758 0.214,1.524 0.07,2.297 -0.305,1.883 -1.32,3.48 -2.902,4.672 -2.625,1.812 -6.25,1.562 -8.778,-0.27 -2.441,1.153 -5.508,1.118 -7.754,-0.457 -1.554,-1.105 -2.648,-2.734 -2.883,-4.64 -0.253,-1.2 -0.027,-2.344 0.372,-3.438 -0.567,-0.531 -1.102,-1.094 -1.473,-1.793 -0.899,-1.726 -1.035,-3.625 -0.43,-5.437 0.965,-2.985 3.836,-4.934 7.012,-4.934 0.066,0 0.137,0.031 0.215,0.031 1.211,-2.3 3.613,-3.929 6.512,-3.929 3.332,0 6.066,2.195 6.984,5.121 2.762,0.398 5.098,2.172 5.945,4.773 0.656,1.824 0.449,3.707 -0.418,5.442"
         style="fill:#facb07;fill-opacity:1;fill-rule:nonzero;stroke:none"
         id="path32" />
      <path
         d="m 106.855,541.32 c -6.8667,6.426 -10.7144,7.86 -12.7144,7.86 -1.125,0 -2.539,-0.379 -4.8828,-2.895 -0.5976,-0.59 -1.1836,-1.281 -1.7695,-1.914 -3.25,-3.742 -7.293,-8.488 -14.375,-8.488 -2.625,0 -5.4102,0.722 -8.4063,2.129 v -54.149 c 2.7422,-4.711 5.4883,-7.402 7.8203,-7.402 1.2813,0 3.4883,0.73 6.8868,4.394 7.9961,8.524 17.6367,10.114 27.4409,4.34 v 56.125"
         style="fill:#facb07;fill-opacity:1;fill-rule:nonzero;stroke:none"
         id="path34" />
      <path
         d="m 149.91,535.883 c -7.051,0 -11.16,4.746 -14.363,8.488 -0.586,0.633 -1.192,1.324 -1.758,1.914 -2.336,2.516 -3.769,2.895 -4.902,2.895 -2.024,0 -5.84,-1.434 -12.668,-7.86 v -56.125 c 3.82,2.285 7.636,3.414 11.457,3.414 5.762,0 11.074,-2.593 15.965,-7.754 3.359,-3.664 5.586,-4.394 6.836,-4.394 2.394,0 5.109,2.691 7.824,7.402 v 54.149 c -3,-1.407 -5.781,-2.129 -8.391,-2.129"
         style="fill:#facb07;fill-opacity:1;fill-rule:nonzero;stroke:none"
         id="path36" />
      <path
         d="m 369.871,485.195 c 9.797,5.774 19.445,4.184 27.442,-4.34 3.398,-3.664 5.605,-4.394 6.898,-4.394 2.32,0 5.055,2.691 7.801,7.402 v 54.149 c -2.989,-1.407 -5.774,-2.129 -8.399,-2.129 -7.082,0 -11.113,4.746 -14.386,8.488 -0.567,0.633 -1.172,1.324 -1.758,1.914 -2.352,2.516 -3.758,2.895 -4.891,2.895 -1.992,0 -5.851,-1.434 -12.707,-7.86 v -56.125"
         style="fill:#facb07;fill-opacity:1;fill-rule:nonzero;stroke:none"
         id="path38" />
      <path
         d="m 326.805,535.883 c -2.606,0 -5.387,0.722 -8.379,2.129 v -54.149 c 2.715,-4.711 5.441,-7.402 7.812,-7.402 1.262,0 3.489,0.73 6.848,4.394 4.883,5.161 10.207,7.754 15.965,7.754 3.808,0 7.637,-1.129 11.465,-3.414 v 56.125 c -6.836,6.426 -10.645,7.86 -12.676,7.86 -1.121,0 -2.567,-0.379 -4.902,-2.895 -0.575,-0.59 -1.161,-1.281 -1.747,-1.914 -3.222,-3.742 -7.336,-8.488 -14.386,-8.488"
         style="fill:#facb07;fill-opacity:1;fill-rule:nonzero;stroke:none"
         id="path40" />
      <path
         d="m 182.813,371.047 c -17.454,6.074 -53.098,23.695 -68.176,65.664 -3.895,10.84 -9.59,9.23 -8.524,-2.297 2.813,-30.199 21.961,-66.93 62.137,-83.621 17.219,-7.137 26.887,15.965 14.563,20.254"
         style="fill:#facb07;fill-opacity:1;fill-rule:nonzero;stroke:none"
         id="path42" />
      <path
         d="m 294.473,371.047 c 17.449,6.074 53.105,23.695 68.183,65.664 3.907,10.84 9.598,9.23 8.524,-2.297 -2.813,-30.199 -21.961,-66.93 -62.137,-83.621 -17.227,-7.137 -26.887,15.965 -14.57,20.254"
         style="fill:#facb07;fill-opacity:1;fill-rule:nonzero;stroke:none"
         id="path44" />
      <path
         d="m 283.574,379.543 c 2.371,0.508 5.77,1.406 9.656,2.676 10.782,4.066 29.942,13.769 44.641,33.176 -33.808,6.601 -68.262,10.187 -99.094,10.187 -31.093,0 -65.761,-3.656 -99.773,-10.379 15.332,-20.14 35.476,-29.781 45.879,-33.5 3.281,-0.965 6.219,-1.723 8.269,-2.16 4.844,-1.027 9.758,-1.809 15.801,3.23 6.067,5.075 7.18,8.098 29.414,8.098 22.227,0 23.332,-3.023 29.395,-8.098 6.054,-5.039 10.976,-4.257 15.812,-3.23"
         style="fill:#facb07;fill-opacity:1;fill-rule:nonzero;stroke:none"
         id="path46" />
      <path
         d="m 399.531,325.336 -49.668,-81.941 c 18.731,8.472 46.758,29.785 49.668,81.941"
         style="fill:#facb07;fill-opacity:1;fill-rule:nonzero;stroke:none"
         id="path48" />
      <path
         d="m 126.863,243.395 -49.656,81.941 c 2.8985,-52.156 30.926,-73.469 49.656,-81.941"
         style="fill:#facb07;fill-opacity:1;fill-rule:nonzero;stroke:none"
         id="path50" />
      <path
         d="m 386.57,180.441 c -9.558,-7.668 -17.011,-12.941 -23.015,-17.156 -13.125,-9.191 -18.184,-13.347 -17.617,-20.203 l 2.304,-29.492 -17.226,7.976 c -13.575,6.028 -19.914,14.2 -21.094,27.387 -1.856,20.422 10.769,41.692 33.758,56.985 5.461,3.574 10.324,6.152 14.25,8.101 3.867,1.977 7.468,4.082 7.812,5.113 0.742,2.27 -3.586,5.981 -16.23,11.625 -1.27,0.571 -3.633,1.567 -5.793,2.477 L 238.367,59.418 133.008,233.254 c -2.16,-0.91 -4.512,-1.906 -5.801,-2.477 -12.637,-5.644 -16.965,-9.355 -16.211,-11.625 0.332,-1.031 3.926,-3.136 7.793,-5.113 3.926,-1.949 8.797,-4.527 14.246,-8.101 22.988,-15.293 35.625,-36.563 33.781,-56.985 -1.191,-13.187 -7.531,-21.359 -21.113,-27.387 l -17.226,-7.976 2.304,29.492 c 0.574,6.856 -4.492,11.012 -17.617,20.203 -5.996,4.215 -13.4492,9.488 -22.9999,17.156 -58.9727,47.387 -60.8985,107.098 -43.6602,132.532 5.7422,8.379 21.9414,26.523 22.0508,26.632 l -2.7266,4.196 c -5.9258,0.574 -10.5859,5.515 -10.5859,11.601 0,6.465 5.2461,11.707 11.7109,11.707 6.4727,0 11.7188,-5.242 11.7188,-11.707 0,-1.261 -0.2461,-2.449 -0.6172,-3.582 0.1094,-0.086 0.2851,-0.125 0.2148,-0.367 L 238.367,83.4961 398.445,351.453 c -0.047,0.242 0.118,0.281 0.227,0.367 -0.363,1.133 -0.606,2.321 -0.606,3.582 0,6.465 5.243,11.707 11.7,11.707 6.464,0 11.707,-5.242 11.707,-11.707 0,-6.086 -4.649,-11.027 -10.575,-11.601 l -2.726,-4.196 c 0.098,-0.109 16.301,-18.253 22.043,-26.632 17.254,-25.434 15.32,-85.145 -43.645,-132.532 z m -10.41,226.055 c -6.816,-18.707 -19.258,-38.086 -38.867,-52.676 15.586,-4.933 35.176,-5.05 48.586,3.84 -4.563,-11.644 -18.801,-26.805 -29.102,-36.785 -1.875,1.246 -3.75,2.871 -5.097,4.32 -4.141,4.43 -7.883,0.539 -5.059,-3.132 0.965,-1.27 3.496,-4.872 4.969,-6.09 -3.067,-2.844 -5.301,-4.813 -5.977,-5.403 -2.07,1.266 -4.207,3.176 -5.722,4.785 -4.141,4.43 -7.879,0.54 -5.055,-3.132 0.992,-1.301 3.629,-5.063 5.105,-6.203 -2.539,-2.024 -5.324,-4.235 -7.793,-5.911 -5.187,6.547 -10.753,13.407 -19.14,9.114 -8.887,-4.539 -0.059,-10.516 -0.059,-19.414 0,-35.536 -22.355,-48.723 -27.883,-63.789 -5.574,-15.043 -10.839,-41.942 -15.253,-49.29 -4.336,-7.238 -22.93,-15.347 -31.446,-8.652 -8.531,-6.695 -27.293,1.317 -31.465,8.652 -4.179,7.348 -10.097,34.247 -15.683,49.29 -5.528,15.066 -27.43,28.253 -27.43,63.789 0,8.898 8.816,14.875 -0.07,19.414 -8.399,4.293 -13.965,-2.567 -19.149,-9.114 -2.461,1.676 -5.246,3.887 -7.773,5.911 1.465,1.14 4.09,4.902 5.098,6.203 2.82,3.672 -0.918,7.562 -5.059,3.132 -1.516,-1.609 -3.652,-3.519 -5.734,-4.785 -0.664,0.59 -2.911,2.559 -5.977,5.403 1.484,1.218 4.004,4.82 4.992,6.09 2.821,3.671 -0.918,7.562 -5.058,3.132 -1.368,-1.449 -3.235,-3.074 -5.11,-4.32 -10.301,9.98 -24.5388,25.141 -29.1013,36.785 13.9373,-9.25 32.0433,-8.801 47.8633,-3.269 -19.082,14.441 -31.281,33.437 -38.039,51.816 C 70.5078,397.895 42.2266,387.121 19.1992,374.074 V 298.391 C 19.1992,176.203 193.895,34.9414 238.75,22.3242 283.594,34.9414 457.137,176.203 457.137,298.391 v 76.414 c -22.852,12.871 -50.977,23.5 -80.977,31.691"
         style="fill:#facb07;fill-opacity:1;fill-rule:nonzero;stroke:none"
         id="path52" />
      <path
         d="m 425.203,461.02 -52.215,11.089 v -4.882 H 357.41 v 4.882 l -29.012,-4.359 c -0.351,-0.062 -0.703,-0.133 -1.062,-0.16 l -22.113,-3.32 v 77.043 l 3.906,1.085 v 12.821 l 7.473,-5.52 c 5.3,-3.98 8.484,-4.824 10.203,-4.824 2.558,0 4.406,1.977 7.246,5.262 0.676,0.722 1.328,1.468 1.945,2.187 3.692,3.899 7.508,5.797 11.836,5.797 5.117,0 10.664,-2.883 17.391,-8.812 6.718,5.929 12.257,8.812 17.355,8.812 4.305,0 8.133,-1.898 11.777,-5.797 0.665,-0.719 1.336,-1.465 1.973,-2.187 2.82,-3.285 4.735,-5.262 7.274,-5.262 1.711,0 4.875,0.844 10.156,4.824 l 7.539,5.52 v -12.821 l 3.906,-1.085 z m -136.844,37.246 c -0.773,-2.289 -3.789,-3.516 -7.57,-3.555 0.039,-2.176 -0.535,-4.301 -1.133,-5.148 -2.156,-2.852 -26.648,-19.899 -30.097,-20.954 -0.391,-0.097 -0.848,-0.129 -1.407,-0.129 -1.113,0 -2.343,0.176 -3.652,0.524 -1.133,-3.734 -3.387,-6.348 -5.984,-6.348 -2.52,0 -4.746,2.473 -5.911,6.098 -1.472,-0.547 -3.074,-0.813 -4.316,-0.813 -0.625,0 -1.082,0.047 -1.512,0.141 -3.437,1.09 -27.832,18.277 -29.894,21.172 -0.606,0.789 -1.113,2.601 -1.219,4.527 -3.848,0 -6.926,1.199 -7.687,3.528 -0.75,2.332 0.898,5.054 4.003,7.257 -1.648,1.832 -2.625,4.297 -2.625,5.36 -0.058,3.531 9.305,31.187 11.583,34.012 0.585,0.687 2.292,1.847 4.394,2.542 -1.074,3.426 -0.762,6.481 1.231,7.891 1.953,1.348 5.019,0.801 7.937,-1.203 1.34,2.051 3.379,3.687 4.453,4.035 2.277,0.746 12.395,0.809 16.692,0.809 6.601,0 18.308,-0.219 20.496,-0.907 1.035,-0.367 2.785,-1.781 4.074,-3.578 3.172,2.149 6.308,2.856 8.371,1.407 1.902,-1.309 2.332,-4.286 1.336,-7.567 2.332,-0.633 4.277,-1.965 4.851,-2.762 2.227,-2.785 11.446,-30.503 11.379,-34.082 0,-0.996 -0.8,-3.043 -2.168,-4.816 3.301,-2.234 5.196,-5.019 4.375,-7.441 z m -116.867,-33.996 -22.097,3.32 c -0.352,0.027 -0.715,0.098 -1.075,0.16 l -29.004,4.359 v -4.882 h -7.785 -7.793 v 4.882 L 51.5117,461.02 v 80.293 l 3.918,1.085 v 12.821 l 7.5391,-5.52 c 5.2812,-3.98 8.4453,-4.824 10.1562,-4.824 2.5391,0 4.4609,1.977 7.2656,5.262 0.6446,0.722 1.3086,1.468 1.9727,2.187 3.6523,3.899 7.4726,5.797 11.7969,5.797 5.0859,0 10.6128,-2.883 17.3318,-8.812 6.75,5.929 12.278,8.812 17.395,8.812 4.336,0 8.144,-1.898 11.836,-5.797 0.625,-0.719 1.269,-1.465 1.953,-2.187 2.84,-3.285 4.687,-5.262 7.254,-5.262 1.718,0 4.894,0.844 10.187,4.824 l 7.481,5.52 v -12.821 l 3.894,-1.085 z m 66.66,127.738 C 76.4648,592.008 19.1992,542.523 19.1992,542.523 V 396.988 c 21.9141,11.227 48.2813,20.567 76.3477,27.93 -0.5196,2.879 -0.9571,5.711 -1.211,8.426 -0.7343,7.804 0.7422,13.765 4.3438,17.73 2.6363,2.891 6.2033,4.485 10.0193,4.485 4.16,0 11.848,-1.946 16.516,-14.95 1.035,-2.879 2.207,-5.593 3.437,-8.226 37.411,7.476 75.391,11.5 109.5,11.5 34.036,0 72.571,-4.008 109.942,-11.465 1.222,2.621 2.383,5.328 3.418,8.191 4.679,13.004 12.355,14.95 16.504,14.95 3.828,0 7.382,-1.594 10.019,-4.485 3.613,-3.965 5.078,-9.926 4.356,-17.73 -0.254,-2.746 -0.703,-5.61 -1.219,-8.524 27.91,-7.343 54.141,-16.66 75.965,-27.832 v 145.535 c 0,0 -57.352,49.485 -218.985,49.485"
         style="fill:#d81e25;fill-opacity:1;fill-rule:nonzero;stroke:none"
         id="path54" />
      <path
         d="m 363.586,236.785 c 7.234,-3.949 14.715,-9.75 14.715,-17.633 0,-8.394 -7.012,-11.972 -14.512,-15.812 -3.828,-1.977 -8.117,-4.125 -12.98,-7.402 -7.235,-4.786 -30.516,-22.184 -28.399,-45.926 0.774,-8.262 3.867,-12.664 12.102,-16.668 l -1.074,10.672 c -0.489,10.597 8.984,19.406 22.714,29.05 5.86,4.145 13.114,9.258 22.391,16.672 50.82,40.821 56.516,93.922 41.172,116.602 -2.047,3.012 -5.059,7.312 -8.106,11.551 -4.55,-46.274 -28.113,-69.539 -48.023,-81.106"
         style="fill:#d81e25;fill-opacity:1;fill-rule:nonzero;stroke:none"
         id="path56" />
      <path
         d="m 65.125,317.891 c -3.0547,-4.239 -6.0625,-8.539 -8.1133,-11.551 -15.332,-22.68 -9.6601,-75.781 41.1719,-116.602 9.2654,-7.414 16.5314,-12.527 22.3904,-16.672 13.731,-9.644 23.203,-18.453 22.727,-29.05 l -1.086,-10.672 c 8.234,4.004 11.32,8.406 12.101,16.668 2.118,23.742 -21.171,41.14 -28.41,45.926 -4.851,3.277 -9.129,5.425 -12.968,7.402 -7.489,3.84 -14.5005,7.418 -14.5005,15.812 0,7.883 7.4605,13.684 14.7075,17.633 -19.9028,11.567 -43.477,34.832 -48.02,81.106"
         style="fill:#d81e25;fill-opacity:1;fill-rule:nonzero;stroke:none"
         id="path58" />
      <path
         d="m 587.977,476.738 v 76.106 h 28.429 V 477.5 c 0,-21.687 10.516,-32.91 27.871,-32.91 17.344,0 27.871,10.851 27.871,31.965 v 76.289 h 28.418 v -75.149 c 0,-40.332 -21.972,-60.117 -56.66,-60.117 -34.707,0 -55.929,19.973 -55.929,59.16"
         style="fill:#100f0d;fill-opacity:1;fill-rule:nonzero;stroke:none"
         id="path60" />
      <path
         d="m 740.625,552.844 h 26.211 l 60.527,-81.992 v 81.992 h 28.055 V 419.668 h -24.18 l -62.566,84.66 v -84.66 h -28.047 v 133.176"
         style="fill:#100f0d;fill-opacity:1;fill-rule:nonzero;stroke:none"
         id="path62" />
      <path
         d="m 898.809,552.844 h 28.418 V 419.668 h -28.418 v 133.176"
         style="fill:#100f0d;fill-opacity:1;fill-rule:nonzero;stroke:none"
         id="path64" />
      <path
         d="m 959.531,552.844 h 31.367 l 33.782,-93.789 33.78,93.789 h 30.63 l -52.22,-134.121 h -25.11 l -52.229,134.121"
         style="fill:#100f0d;fill-opacity:1;fill-rule:nonzero;stroke:none"
         id="path66" />
      <path
         d="m 1120.12,552.844 h 97.43 v -26.067 h -69.2 v -27.019 h 60.91 v -26.055 h -60.91 v -27.969 h 70.12 v -26.066 h -98.35 v 133.176"
         style="fill:#100f0d;fill-opacity:1;fill-rule:nonzero;stroke:none"
         id="path68" />
      <path
         d="m 1319.45,488.156 c 13.85,0 21.78,7.617 21.78,18.828 v 0.391 c 0,12.547 -8.5,19.023 -22.33,19.023 h -28.24 v -38.242 z m -57.21,64.688 h 59.06 c 16.41,0 29.14,-4.758 37.64,-13.516 7.21,-7.422 11.07,-17.875 11.07,-30.43 v -0.382 c 0,-21.504 -11.25,-35.008 -27.67,-41.289 l 31.56,-47.559 h -33.22 l -27.7,42.617 h -0.37 -21.95 v -42.617 h -28.42 v 133.176"
         style="fill:#100f0d;fill-opacity:1;fill-rule:nonzero;stroke:none"
         id="path70" />
      <path
         d="m 1405.27,439.074 16.8,20.742 c 11.64,-9.906 23.8,-16.171 38.57,-16.171 11.64,0 18.65,4.746 18.65,12.558 v 0.371 c 0,7.422 -4.43,11.231 -26.03,16.934 -26.02,6.855 -42.82,14.277 -42.82,40.722 v 0.372 c 0,24.16 18.83,40.136 45.22,40.136 18.83,0 34.88,-6.078 47.99,-16.933 l -14.77,-22.071 c -11.44,8.184 -22.69,13.145 -33.59,13.145 -10.88,0 -16.6,-5.149 -16.6,-11.613 v -0.379 c 0,-8.75 5.52,-11.602 27.87,-17.5 26.19,-7.051 40.97,-16.739 40.97,-39.961 v -0.371 c 0,-26.446 -19.57,-41.289 -47.44,-41.289 -19.57,0 -39.31,7.039 -54.82,21.308"
         style="fill:#100f0d;fill-opacity:1;fill-rule:nonzero;stroke:none"
         id="path72" />
      <path
         d="m 1548.32,552.844 h 28.41 V 419.668 h -28.41 v 133.176"
         style="fill:#100f0d;fill-opacity:1;fill-rule:nonzero;stroke:none"
         id="path74" />
      <path
         d="m 1650.21,525.828 h -39.32 v 27.016 h 107.05 v -27.016 h -39.31 v -106.16 h -28.42 v 106.16"
         style="fill:#100f0d;fill-opacity:1;fill-rule:nonzero;stroke:none"
         id="path76" />
      <path
         d="m 1790.85,472.18 -49.64,80.664 h 33.22 l 30.82,-53.457 31.37,53.457 h 32.3 l -49.65,-80.098 v -53.078 h -28.42 v 52.512"
         style="fill:#100f0d;fill-opacity:1;fill-rule:nonzero;stroke:none"
         id="path78" />
      <path
         d="m 2067.14,485.871 v 0.391 c 0,22.82 -16.23,41.843 -39.12,41.843 -22.89,0 -38.75,-18.64 -38.75,-41.472 v -0.371 c 0,-22.832 16.25,-41.856 39.12,-41.856 22.89,0 38.75,18.629 38.75,41.465 z m -107.59,0 v 0.391 c 0,37.851 28.98,68.867 68.84,68.867 39.87,0 68.48,-30.625 68.48,-68.496 v -0.371 c 0,-37.871 -28.98,-68.879 -68.85,-68.879 -39.86,0 -68.47,30.637 -68.47,68.488"
         style="fill:#100f0d;fill-opacity:1;fill-rule:nonzero;stroke:none"
         id="path80" />
      <path
         d="m 2128.43,552.844 h 98.36 v -26.641 h -69.94 v -28.34 h 61.64 v -26.64 h -61.64 v -51.555 h -28.42 v 133.176"
         style="fill:#100f0d;fill-opacity:1;fill-rule:nonzero;stroke:none"
         id="path82" />
      <path
         d="m 696.211,366.422 c -70.645,0 -123.906,-55.238 -123.906,-128.481 v -0.73 c 0,-34.707 12.371,-66.906 34.824,-90.633 22.664,-23.941 53.691,-37.113 87.351,-37.113 39.883,0 68.02,12.543 96.817,43.262 l -25.879,27.113 c -20.73,-19.879 -39.734,-32.16 -69.559,-32.16 -45.449,0 -81.035,39.656 -81.035,90.261 v 0.711 c 0,51.039 34.844,89.543 81.035,89.543 24.493,0 45.43,-9.48 67.762,-30.664 l 25.949,30.907 c -19.297,18.91 -45.586,37.984 -93.359,37.984"
         style="fill:#100f0d;fill-opacity:1;fill-rule:nonzero;stroke:none"
         id="path84" />
      <path
         d="m 972.871,211.051 h -86.699 l 43.164,104.152 z m 39.219,-97.309 h 44.61 L 951.016,363.918 H 909.141 L 803.438,113.742 h 43.132 l 24.953,60.512 H 987.52 l 24.57,-60.512"
         style="fill:#100f0d;fill-opacity:1;fill-rule:nonzero;stroke:none"
         id="path86" />
      <path
         d="m 1681.13,211.051 h -86.7 l 43.16,104.152 z m 39.24,-97.309 h 44.59 L 1659.25,363.918 H 1617.4 L 1511.71,113.742 h 43.13 l 24.94,60.512 h 116 l 24.59,-60.512"
         style="fill:#100f0d;fill-opacity:1;fill-rule:nonzero;stroke:none"
         id="path88" />
      <path
         d="m 1083.01,113.742 h 170.93 v 37.891 h -127.4 v 210.476 h -43.53 V 113.742"
         style="fill:#100f0d;fill-opacity:1;fill-rule:nonzero;stroke:none"
         id="path90" />
      <path
         d="m 1384.6,366.422 c -69.47,0 -126.44,-56.438 -126.44,-128.481 v -0.73 c 0,-75.223 53.77,-127.746 127.11,-127.746 46.48,0 80,20.812 103.94,38.41 v 103.629 h -99.51 v -36.098 h 56.55 v -48.558 l -0.41,-0.328 c -15.86,-12.184 -37.43,-19.192 -59.17,-19.192 -49.14,0 -83.47,37.274 -83.47,90.613 v 0.711 c 0,49.36 35.74,89.543 79.65,89.543 30.9,0 49.51,-10.539 67.73,-26.398 l 25.65,31.594 c -27.07,23.445 -53.72,33.031 -91.63,33.031"
         style="fill:#100f0d;fill-opacity:1;fill-rule:nonzero;stroke:none"
         id="path92" />
      <path
         d="m 1899.59,237.914 h -63.42 v 86.328 h 63.06 c 32.6,0 51.27,-15.531 51.27,-42.637 v -0.722 c 0,-26.113 -20,-42.969 -50.91,-42.969 z m 51.09,-124.172 h 47.56 l -65.08,94.406 1.44,0.43 c 36.78,10.856 61.33,37.434 61.33,74.824 v 0.719 c 0,21.098 -11.15,39.524 -24.08,53.289 -15.98,16.168 -39.9,24.699 -69.16,24.699 H 1792.94 V 113.742 h 43.23 v 87.367 h 54.98 l 59.53,-87.367"
         style="fill:#100f0d;fill-opacity:1;fill-rule:nonzero;stroke:none"
         id="path94" />
      <path
         d="m 2092.34,113.742 h 46.46 v 95.535 l 95.39,152.832 h -47.98 l -69.14,-111.91 -68.46,111.91 h -48.83 l 92.56,-152.832 v -95.535"
         style="fill:#100f0d;fill-opacity:1;fill-rule:nonzero;stroke:none"
         id="path96" />
    </g>
  </g>
</svg>
