<?xml version="1.0" standalone="no"?>
<!DOCTYPE svg PUBLIC "-//W3C//DTD SVG 20010904//EN"
 "http://www.w3.org/TR/2001/REC-SVG-20010904/DTD/svg10.dtd">
<svg version="1.0" xmlns="http://www.w3.org/2000/svg"
 width="1959.000000pt" height="808.000000pt" viewBox="0 0 1959.000000 808.000000"
 preserveAspectRatio="xMidYMid meet">

<g transform="translate(0.000000,808.000000) scale(0.100000,-0.100000)"
fill="#000000" stroke="none">
<path d="M5049 7321 c-333 -146 -676 -297 -761 -334 l-155 -68 -123 -287 c-68
-158 -129 -301 -136 -319 l-14 -32 38 16 c444 186 1166 482 1170 478 2 -2
-177 -451 -398 -997 -222 -546 -405 -1001 -408 -1012 -3 -10 54 -166 128 -352
l134 -334 502 1256 c277 691 505 1258 507 1260 2 2 122 -266 267 -596 145
-330 264 -599 265 -598 13 15 265 623 263 633 -6 26 -663 1555 -668 1554 -3
-1 -278 -121 -611 -268z"/>
</g>
</svg>
